<svg xmlns="http://www.w3.org/2000/svg" viewBox="0 0 89.6 98.66"><defs><style>.cls-1{fill:#fff;}</style></defs><g id="Layer_2" data-name="Layer 2"><g id="Layer_1-2" data-name="Layer 1"><g id="xuD0b1"><path class="cls-1" d="M0,0H89.6V98.66H0ZM37.36,95.49v.07l8.06-.19c.52,0,1,0,1.55,0,1.39-.06,2.79-.17,4.18-.19,2.18,0,4.36,0,6.53,0,2.66,0,5.31.1,8-.18a26.18,26.18,0,0,1,2.94-.1,20.29,20.29,0,0,0,5-.36,18.15,18.15,0,0,0,2.79-.72,4.26,4.26,0,0,0,2.56-2.44c.15-.42.31-.83.42-1.25.27-1,.56-2.09.74-3.14.15-.88.15-1.78.23-2.66.15-1.78.31-3.56.46-5.33.08-.94.16-1.88.22-2.81.09-1.41.16-2.81.25-4.22s.16-2.58.29-3.87c.09-.88.27-1.76.36-2.64s.18-1.85.23-2.77q.15-2.43.24-4.86c0-.89,0-1.78,0-2.68v-13c0-.19,0-.37,0-.56,0-1.14.07-2.29,0-3.43-.08-1.42-.31-2.84-.39-4.27a15.72,15.72,0,0,0-.79-4.24c-.17-.5-.27-1-.47-1.54A16.64,16.64,0,0,0,77,22.48a19.92,19.92,0,0,0-2.58-2.06,12.06,12.06,0,0,0-3.51-1.94.83.83,0,0,1-.59-.79c0-.18,0-.36,0-.53s.06-.38.34-.4c.71,0,1.43-.07,2.14-.14a1.53,1.53,0,0,0,1.42-.78,11.37,11.37,0,0,0,1.07-3.78,27.44,27.44,0,0,0,0-3.27,1.38,1.38,0,0,0-1.1-1.4C73,7.25,71.85,7.13,70.67,7c-.67-.06-.8-.2-.68-.86A1.34,1.34,0,0,0,70.06,6a2.14,2.14,0,0,0,0-.44c0-.22-.07-.44-.11-.66a3.25,3.25,0,0,0-.13-.62c-.25-.68-.85-.8-1.46-.84-.88-.06-1.76-.06-2.64-.13s-2-.28-3-.32c-3.15-.13-6.31-.3-9.46-.3-5.5,0-11-.28-16.49.2-1,.08-2,.11-2.94.16-2.33.13-4.67,0-7,.26-1,.13-2,0-3,.06s-2.13.11-3.19.21c-.7.07-1.07.44-1.08,1a3.54,3.54,0,0,0,.12.7c.12.64.25,1.27.34,1.91a.4.4,0,0,1-.22.3c-.74.14-1.49.23-2.22.39a2.22,2.22,0,0,0-1.71,1c-.31.55-.05,1.1,0,1.62.12.86.34,1.7.52,2.54.15.67.3,1.35.43,2a7.64,7.64,0,0,1,.19,1.56c0,.71.2,1.06.92,1.08.44,0,.88,0,1.32,0a.37.37,0,0,1,.29.16A1.32,1.32,0,0,1,19,19.44l-4,2.36a16.58,16.58,0,0,0-3.37,2.77,11,11,0,0,0-1.43,1.63,18.71,18.71,0,0,0-2.2,5.54c-.16.64-.24,1.3-.35,2a20.86,20.86,0,0,0-.31,2.08c-.08,1.76-.15,3.52-.15,5.28q0,8.77,0,17.56c0,.93,0,1.86.06,2.78,0,1.11,0,2.22.08,3.33,0,2.12.08,4.24.15,6.37,0,1.52.15,3,.22,4.55.08,1.91.21,3.82.21,5.73a27.31,27.31,0,0,0,.52,4.78,11.11,11.11,0,0,0,2.83,5.53A10.61,10.61,0,0,0,16,94.81a7.88,7.88,0,0,0,1.46.44c.94.09,1.88.08,2.83.09l10.33.15C32.88,95.51,35.12,95.49,37.36,95.49Z"/><path d="M37.36,95.49c-2.24,0-4.48,0-6.73,0L20.3,95.34c-.95,0-1.89,0-2.83-.09A7.88,7.88,0,0,1,16,94.81a10.61,10.61,0,0,1-4.85-3.12,11.11,11.11,0,0,1-2.83-5.53,27.31,27.31,0,0,1-.52-4.78c0-1.91-.13-3.82-.21-5.73-.07-1.51-.17-3-.22-4.55-.07-2.13-.1-4.25-.15-6.37,0-1.11-.06-2.22-.08-3.33,0-.92-.06-1.85-.06-2.78q0-8.79,0-17.56c0-1.76.07-3.52.15-5.28a20.86,20.86,0,0,1,.31-2.08c.11-.66.19-1.32.35-2a18.71,18.71,0,0,1,2.2-5.54,11,11,0,0,1,1.43-1.63,16.58,16.58,0,0,1,3.37-2.77l4-2.36a1.32,1.32,0,0,0,.65-1.65.37.37,0,0,0-.29-.16c-.44,0-.88,0-1.32,0-.72,0-1-.37-.92-1.08A7.64,7.64,0,0,0,16.88,15c-.13-.67-.28-1.35-.43-2-.18-.84-.4-1.68-.52-2.54-.07-.52-.33-1.07,0-1.62a2.22,2.22,0,0,1,1.71-1c.73-.16,1.48-.25,2.22-.39a.4.4,0,0,0,.22-.3c-.09-.64-.22-1.27-.34-1.91a3.54,3.54,0,0,1-.12-.7c0-.56.38-.93,1.08-1,1.06-.1,2.12-.17,3.19-.21s2,.07,3-.06c2.33-.29,4.67-.13,7-.26,1,0,2-.08,2.94-.16,5.49-.48,11-.2,16.49-.2,3.15,0,6.31.17,9.46.3,1,0,2,.24,3,.32s1.76.07,2.64.13c.61,0,1.21.16,1.46.84a3.25,3.25,0,0,1,.13.62c0,.22.09.44.11.66a2.14,2.14,0,0,1,0,.44,1.34,1.34,0,0,1-.07.18c-.12.66,0,.8.68.86,1.18.12,2.36.24,3.54.38a1.38,1.38,0,0,1,1.1,1.4,27.44,27.44,0,0,1,0,3.27,11.37,11.37,0,0,1-1.07,3.78,1.53,1.53,0,0,1-1.42.78c-.71.07-1.43.11-2.14.14-.28,0-.39.12-.34.4s0,.35,0,.53a.83.83,0,0,0,.59.79,12.06,12.06,0,0,1,3.51,1.94A19.92,19.92,0,0,1,77,22.48,16.64,16.64,0,0,1,80.75,28c.2.5.3,1,.47,1.54A15.72,15.72,0,0,1,82,33.79c.08,1.43.31,2.85.39,4.27.06,1.14,0,2.29,0,3.43,0,.19,0,.37,0,.56v13c0,.9,0,1.79,0,2.68q-.09,2.43-.24,4.86c0,.92-.12,1.85-.23,2.77s-.27,1.76-.36,2.64c-.13,1.29-.21,2.58-.29,3.87s-.16,2.81-.25,4.22c-.06.93-.14,1.87-.22,2.81-.15,1.77-.31,3.55-.46,5.33-.08.88-.08,1.78-.23,2.66-.18,1-.47,2.1-.74,3.14-.11.42-.27.83-.42,1.25a4.26,4.26,0,0,1-2.56,2.44,18.15,18.15,0,0,1-2.79.72,20.29,20.29,0,0,1-5,.36,26.18,26.18,0,0,0-2.94.1c-2.65.28-5.3.15-8,.18-2.17,0-4.35,0-6.53,0-1.39,0-2.79.13-4.18.19-.51,0-1,0-1.55,0l-8.06.19ZM65.43,41.15h.51c1.66,0,3.32,0,5,.09a1.51,1.51,0,0,0,1.09-.4c.73-.6,1.49-1.18,2.26-1.75a1.16,1.16,0,0,1,1.49.07,10.68,10.68,0,0,1,2,2.32.9.9,0,0,1,0,1,3.76,3.76,0,0,1-.6.72c-.33.3-.72.55-1,.85a.75.75,0,0,0-.23.49c0,.31.1.62.12.93,0,.92.08,1.84.06,2.76,0,1.53-.11,3.06-.18,4.6-.06,1.29-.17,2.58-.22,3.87a39.55,39.55,0,0,1-.44,4.6c-.2,1.21-.21,2.45-.3,3.68a.62.62,0,0,0,.12.38c.38.4.77.79,1.18,1.16.66.6,1.34,1.17,2,1.78s1,1,1.55,1.48c.06-.62.11-1.25.19-1.89.12-.93.28-1.85.39-2.79s.17-1.8.23-2.7c.09-1.56.22-3.13.22-4.7,0-6.88,0-13.75,0-20.62,0-.13,0-.26,0-.38-.11-1-.23-2-.34-3-.07-.6-.1-1.21-.22-1.79A20.6,20.6,0,0,0,79,28a18.15,18.15,0,0,0-2.7-4,11,11,0,0,0-2.66-2.19,14.82,14.82,0,0,0-3.2-1.81,2.34,2.34,0,0,1-1.68-2.41A1.48,1.48,0,0,0,68.7,17c-.12-.34-.41-.16-.62-.16s-.2.19-.23.31c-.07.33-.08.67-.16,1a1.18,1.18,0,0,1-.93,1,23.78,23.78,0,0,1-2.4.24c-.61,0-1.23,0-1.84,0-1.12.08-2.22.25-3.34.31-1.43.08-2.87.1-4.3.11h-7.7c-1.66.11-3.31.27-5,.33-2.86.11-5.73.2-8.59.21-3.12,0-6.24,0-9.36-.13a1.54,1.54,0,0,1-1.71-1.39,6,6,0,0,0-.36-1.06.39.39,0,0,0-.21-.24c-.56-.18-.82,0-.82.58v.61a1.66,1.66,0,0,1-.64,1.38,11.74,11.74,0,0,1-1.18.81c-1.33.79-2.71,1.49-4,2.37a32.41,32.41,0,0,0-3,2.52A5.06,5.06,0,0,0,11.45,27a16.4,16.4,0,0,0-2,5,31.16,31.16,0,0,0-.66,4c-.12,1.3-.11,2.62-.11,3.92q0,6.88,0,13.75c0,3.17,0,6.35.08,9.52,0,2.5.08,5,.14,7.5.05,1.72.16,3.44.23,5.16,0,.83,0,1.66.08,2.49a65,65,0,0,0,.58,7.24,10.34,10.34,0,0,0,2.25,4.81,8.87,8.87,0,0,0,4.13,2.86,7.68,7.68,0,0,0,1.33.5,18.24,18.24,0,0,0,2.22.11c1.25,0,2.51,0,3.77,0,2.37,0,4.75.15,7.13.13,4.46,0,8.92.15,13.39-.11,2.75-.16,5.5-.24,8.25-.29,5.12-.1,10.25.1,15.36-.24,1.94-.14,3.9.1,5.82-.38a14.89,14.89,0,0,0,2.07-.51,3,3,0,0,0,2.06-2c.3-1.16.71-2.3.93-3.48a26.8,26.8,0,0,0,.26-3.11c0-.64.08-1.28.13-1.92l.33-4.09c0-.45.07-.9.11-1.36.08-1,.17-2.09.26-3.12-1.36,1.72-2.69,3.44-4.06,5.11-.83,1-1.73,2-2.61,2.93a1,1,0,0,1-1.61.07,5.27,5.27,0,0,1-.43-.51,6.4,6.4,0,0,0-.09.76A4.92,4.92,0,0,1,70.45,83a4.31,4.31,0,0,1-2.91,2.14,1.89,1.89,0,0,0-1.46,1,2.31,2.31,0,0,1-.84.89c-.93.64-1.89,1.24-2.86,1.82a6.63,6.63,0,0,1-3.82.94,2.85,2.85,0,0,1-2-.85.71.71,0,0,0-.46-.16c-.51,0-1,0-1.54.12a5.74,5.74,0,0,0-2.45.57,3.21,3.21,0,0,1-1.53.31c-1.5.11-3,.18-4.52.23-.88,0-1.76,0-2.64,0A1.24,1.24,0,0,1,42,88.94a10,10,0,0,1-.09-1.09,1.51,1.51,0,0,1,.94-1.67.67.67,0,0,0,.14-.11,5.65,5.65,0,0,0-.95-.29c-.77-.09-1.55-.12-2.32-.2-.34,0-.67-.12-1-.17a.64.64,0,0,0-.75.32A5.51,5.51,0,0,1,36.9,87,5.24,5.24,0,0,1,33.29,88c-.28,0-.47,0-.56.36a1.47,1.47,0,0,1-.32.55c-.22.27-.47.51-.74.8,1.23.08,2.42.19,3.61.23,1.69.07,3.39.08,5.09.14,1.19.05,2.38.18,3.57.22q3,.09,6,.1c1.77,0,3.55,0,5.32,0s3.67-.17,5.5-.26l4-.19c1.52-.08,3-.2,4.56-.27a11.92,11.92,0,0,0,3.1-.24,9.65,9.65,0,0,0,1.37-.57,4.68,4.68,0,0,0,.73-.53l.09.09a3.88,3.88,0,0,1-1.12,1.36,6.79,6.79,0,0,1-2.48,1c-.49.11-1,.18-1.48.26-1.28.19-2.55.43-3.83.56s-2.71.18-4.06.24c-2.41.11-4.83.23-7.24.28-2.63,0-5.26,0-7.89,0-1.23,0-2.46-.11-3.69-.19s-2.31-.19-3.46-.23-2.52,0-3.78,0-2.68-.17-4-.21c-2.37-.07-4.73-.1-7.09-.16-.4,0-.8-.07-1.2-.09-1.3-.08-2.61-.13-3.91-.24a4,4,0,0,1-2.23-.7c-.69-.54-1.32-1.16-2-1.74a1.05,1.05,0,0,1-.12-.21,5.26,5.26,0,0,1,1.21.52,5,5,0,0,0,3.16.77c.87-.1,1.75-.17,2.63-.2s1.63,0,2.45,0c.4,0,.79.12,1.19.14s.78,0,1.22,0a7.93,7.93,0,0,1-3-1.88.47.47,0,0,0-.2-.1c-.56-.17-1.14-.31-1.69-.51a5.92,5.92,0,0,1-2.74-2,4.21,4.21,0,0,1-.74-2.84A6.16,6.16,0,0,1,19,79.78a10.41,10.41,0,0,1,1.08-1.68,1.67,1.67,0,0,1,1.33-.86,1.77,1.77,0,0,0,.37-.15c-1-.38-1.83-.77-2.73-1a15.18,15.18,0,0,0-1.9-.37,2.35,2.35,0,0,1-.56-.2c-.37-.18-.71-.43-1.09-.58-.73-.29-1.48-.54-2.22-.8s-1.61-.56-2.42-.82a.89.89,0,0,1-.72-1,2.37,2.37,0,0,1,.55-1.08c.68-.75,1.43-1.44,2.14-2.17.53-.55,1-1.11,1.55-1.68s.74-.9,1.11-1.34l-3.36-.82C11.43,65,11,64.58,11,64a12.24,12.24,0,0,1,.16-1.34c.09-.56.2-1.11.26-1.67.11-.93.17-1.88.3-2.81s.28-1.73.41-2.59.17-1.45.33-2.16c.23-1.06.53-2.11.81-3.16.09-.38.27-.72.69-.76a3.2,3.2,0,0,1,1,.07c.8.18,1.6.39,2.45.61a4.39,4.39,0,0,0,.11-.69c0-1.55,0-3.1,0-4.65a.86.86,0,0,0-.24-.54c-.39-.41-.84-.76-1.24-1.16a1.32,1.32,0,0,1-.4-1.48,7.48,7.48,0,0,1,1.83-2.81c.6-.56,1-.58,1.6,0s1.39,1.31,2.09,1.95a.72.72,0,0,0,.42.2c1.17,0,2.34,0,3.51,0a.54.54,0,0,0,.37-.23c.75-1.49,1.51-3,2.21-4.5a32.61,32.61,0,0,0,1.21-3.07c.43-1.26.77-2.54,1.17-3.81a1.33,1.33,0,0,1,.71-.88,2.3,2.3,0,0,1,1.51-.1,9.88,9.88,0,0,0,1.52.27c1.69.17,3.39.32,5.09.48a4.75,4.75,0,0,1,.93.15.51.51,0,0,0,.6-.18l2.39-2.76a3.18,3.18,0,0,1,.7-.62,2,2,0,0,1,1.95.1c1.27.6,2.52,1.25,3.78,1.87s2.27,1.2,3.45,1.68A29.21,29.21,0,0,0,58,30.83a1.08,1.08,0,0,1,.9,1.65c-.09.23-.2.45-.34.76a15.86,15.86,0,0,0,2,.42c1,.09,2,.08,3,.11.29,0,.58,0,.87-.05.93-.06,1.87-.15,2.81-.17A1,1,0,0,1,68,34.91c-.11.27-.25.52-.36.79-.51,1.2-1,2.4-1.51,3.6C65.89,39.89,65.68,40.49,65.43,41.15ZM18.91,67.76a1.73,1.73,0,0,1,1.45.79c.36.47.71.94,1.05,1.43a3.61,3.61,0,0,1,.48.8c.25.62.35.69,1,.74.82.07,1.64.16,2.46.28s1.4.31,2.11.38,1.71.1,2.56.11q7.59,0,15.18,0c5.54,0,11.08-.07,16.62-.1H63.9l5.17,0c.21,0,.39,0,.54-.23.57-.93,1.17-1.84,1.78-2.74a1.2,1.2,0,0,1,1.26-.66c.32.06.42-.11.44-.36.09-.91.17-1.82.24-2.74.11-1.32.18-2.65.31-4,.08-.87.27-1.73.36-2.6s.17-2,.23-3c.09-1.49.19-3,.22-4.48,0-1.87,0-3.75,0-5.63a3.33,3.33,0,0,0-.1-.56L73.09,46a1.33,1.33,0,0,1-1.81-.13c-.52-.44-1-.91-1.5-1.38a1,1,0,0,1-.11-1.33l.3-.47H67.15c-.8,0-1.59,0-2.38-.05-1.18-.08-2.35-.25-3.53-.31s-2.56,0-3.84,0c-4.94,0-9.88,0-14.81,0-2,0-4,.2-6,.22-4.67,0-9.34,0-14,0a.52.52,0,0,0-.55.33c-.41.83-.87,1.64-1.32,2.45-.34.59-.55.67-1.2.54h-.28a.63.63,0,0,0,0,.14c0,1-.09,2.09-.07,3.13s-.3,2-.17,3.08a10.37,10.37,0,0,1-.05,1.47q0,5.75,0,11.48c0,.34,0,.67,0,1ZM68.23,8.35l-.43,0-17-.15H47c-3.1,0-6.2,0-9.29.06-1.17,0-2.34,0-3.51.08-2.28.07-4.55.17-6.83.22a50.73,50.73,0,0,0-5.23.25c-.33.05-.43.17-.39.49s.08.88.12,1.31A11.55,11.55,0,0,0,22,11.9c.26,1.24.58,2.46.84,3.7.07.35.22.41.53.4l3.06-.06c2.69,0,5.38,0,8.08,0,2.31,0,4.63-.1,6.94-.13l8.75-.1c1.38,0,2.74-.1,4.12-.13.9,0,1.81,0,2.71-.05,1.36-.08,2.71-.27,4.06-.31,1.65-.06,3.3,0,4.95,0H67.1Zm-47-3.42c.12.69.28,1.27.32,1.86,0,.42.17.51.55.46.77-.09,1.54-.19,2.32-.23,2.16-.09,4.32-.15,6.49-.21,3.05-.08,6.1-.21,9.16-.22,4.79,0,9.58.07,14.38.1,3.4,0,6.8,0,10.19,0,1.14,0,2.27,0,3.4,0,.26,0,.32-.11.33-.3,0-.35,0-.7,0-1.05s-.13-.46-.47-.46c-.81,0-1.61-.06-2.41-.11-1.52-.11-3-.25-4.54-.34-.76,0-1.51,0-2.27,0-1.14,0-2.28-.11-3.43-.15a.46.46,0,0,0-.31.17,5.25,5.25,0,0,0-.4.53L54.5,5l.21-.65-.06-.1a2.82,2.82,0,0,0-.49.25,2.86,2.86,0,0,0-.4.45l-.1,0,.13-.61c-.72,0-1.43-.08-2.14-.09-3.3,0-6.6,0-9.9,0-1.32,0-2.65.13-4,.21s-2.53.18-3.8.22c-2.24.05-4.47,0-6.71.21-1.63.16-3.29.09-4.94.12C22,4.94,21.65,4.93,21.27,4.93Zm7.6,14a9,9,0,0,0,1.87,0c1,.06,2.06-.06,3.09-.08l5.89-.11c1.14,0,2.29,0,3.43,0,1.57-.08,3.13-.29,4.7-.33,3.62-.07,7.25-.07,10.87-.1l.34,0c1.34-.12,2.67-.25,4-.34.92-.06,1.84-.06,2.75-.09.34,0,.5-.26.48-.7s-.27-.27-.47-.27c-2.88.07-5.77-.09-8.67.2-2.22.22-4.47.19-6.71.25-1.42,0-2.84.06-4.26.08-2.76.05-5.51.12-8.27.15s-5.25,0-7.88,0H24.22l-.45,0a5,5,0,0,1,.19.7.57.57,0,0,0,.61.54l3.24.13a.61.61,0,0,0,.55-.24c.25-.27.54-.5.82-.75l.09.09ZM27.14,41c.25,0,.44,0,.62,0a.52.52,0,0,0,.63-.39,8.46,8.46,0,0,1,.49-1.06c.35-.63.77-1.24,1.09-1.89s.58-1.41.91-2.1c.56-1.15,1.16-2.28,1.74-3.43a1,1,0,0,1,1.27-.57,12.56,12.56,0,0,0,1.51.28c.71.11,1.42.18,2.12.3,1.23.19,2.45.41,3.67.6.78.12,1.57.18,2.35.28s.89.42.77,1-.29,1.14-.38,1.72a18.53,18.53,0,0,1-1.12,3.74c-.14.37-.26.75-.38,1.12l.09.12c.27-.08.64-.07.79-.24a10.4,10.4,0,0,0,1.94-3.71,28.08,28.08,0,0,1,1.31-4.08,9,9,0,0,0,.38-1.3l-.27,0-3.59-.07a2.27,2.27,0,0,1-.45,0c-1-.18-2.06-.4-3.11-.53-1.45-.19-2.91-.35-4.38-.45a20.35,20.35,0,0,1-3.2-.44.5.5,0,0,0-.44.21c-.27.7-.52,1.41-.73,2.13a22.54,22.54,0,0,1-.57,2.22c-.57,1.41-1.23,2.78-1.87,4.15C28,39.39,27.56,40.16,27.14,41ZM57.25,32.3c-.9-.22-1.73-.4-2.54-.64a21.49,21.49,0,0,1-2.61-.85c-1.17-.5-2.3-1.1-3.45-1.67l-3.59-1.8c-.53-.27-.7-.26-1.06.14-.58.64-1.14,1.3-1.71,1.95a1.39,1.39,0,0,0-.11.21,4.73,4.73,0,0,0,.77.15.72.72,0,0,0,.49-.15c.7-.85,1-.7,1.79-.32a4,4,0,0,0,2.08.51,1.08,1.08,0,0,1,1.06.6.7.7,0,0,0,.24.27c1,.57,2.08,1.12,3.12,1.67.63.32,1.27.61,1.89.93.44.21.6.46.47.82a1.39,1.39,0,0,1-.38.5c-.54.55-1.13,1.07-1.65,1.64-.82.9-1.61,1.83-2.4,2.75l-1.4,1.61a16.26,16.26,0,0,0,1.66.09,1,1,0,0,0,.94-.41C51.88,39.12,53,38,54,36.81c.86-1,1.64-2.12,2.44-3.2C56.71,33.21,57,32.78,57.25,32.3ZM31.38,41a3.68,3.68,0,0,1,.22-2.52,5.6,5.6,0,0,1,3-2.94,5.44,5.44,0,0,1,3.53-.25,9.13,9.13,0,0,1,1.92.85,2.68,2.68,0,0,1,1.43,1.81c.1.49.16,1,.25,1.54.1-.25.2-.47.27-.71q.44-1.44.84-2.88c.12-.41.18-.83.3-1.24s.09-.6-.39-.68c-.64-.1-1.27-.16-1.91-.24s-1.52-.17-2.27-.29-1.4-.27-2.11-.39-1.73-.26-2.6-.41c-.2,0-.3,0-.37.19a6.79,6.79,0,0,1-.37.83c-.52,1-1.11,2-1.55,3a17.61,17.61,0,0,1-1.65,3.2A8.4,8.4,0,0,0,29.37,41Zm-14,12.68c0-.51,0-1,.1-1.46a.43.43,0,0,0-.37-.54c-.67-.16-1.33-.33-2-.47a.42.42,0,0,0-.36.17,16.48,16.48,0,0,0-.48,1.7c-.19.95-.35,1.92-.52,2.88-.12.66-.27,1.32-.36,2s-.17,1.6-.26,2.39c-.06.51-.12,1-.2,1.53s-.13.82-.21,1.22,0,.55.38.69.67.2,1,.28c1,.23,2,.44,3,.66.22,0,.29,0,.29-.26,0-.5,0-1,0-1.51a.42.42,0,0,0-.23-.31c-.47-.09-1-.14-1.44-.22-.87-.14-1-.41-.94-1.06,0-.39.11-.77.17-1.15.17-1.15.33-2.31.51-3.46A8.06,8.06,0,0,1,16,54.22a.85.85,0,0,1,.94-.59Zm29,25.64v0a1.52,1.52,0,0,0,.21,0c.73,0,1.46,0,2.19,0h2.76c.19,0,.34,0,.31-.29-.08-.72-.16-1.44-.2-2.17a1,1,0,0,1,.9-1.2c1.11-.25,2.23-.46,3.35-.63a26.37,26.37,0,0,1,2.66-.29c1,0,2,0,3,0a.79.79,0,0,1,.72.53,2.86,2.86,0,0,1,.19.65c.1.63.18,1.26.27,1.95A11.59,11.59,0,0,1,67,77.07c-.85-.88-1.65-1.68-2.44-2.49-.52-.52-1.29-.48-1.89-.83-1.32,0-2.64,0-4,0-2.37,0-4.73.11-7.09.16-.53,0-.51,0-.55.5a10.39,10.39,0,0,1-.17,1.23c-.1.48-.5.69-.94.89l.39.72a1.07,1.07,0,0,1-.25,1.42,1.87,1.87,0,0,1-.78.24C48.32,79.07,47.32,79.18,46.32,79.3Zm28.44-12a4,4,0,0,1-.06.46,1.19,1.19,0,0,0,.43,1.37c.27.22.47.52.72.76.43.42.87.8,1.29,1.22a.77.77,0,0,1,.25.92,12.13,12.13,0,0,1-1,1.76c-.46.63-1,1.15-1.56,1.74A7,7,0,0,1,73,77.08a.87.87,0,0,1-1,0c-.57-.42-1.15-.84-1.7-1.3-.73-.61-1.43-1.26-2.15-1.88a.69.69,0,0,0-.34-.14c-.58,0-1.17,0-1.87,0L72,80c.28-.31.52-.58.77-.84.61-.65,1.27-1.27,1.83-2a41.44,41.44,0,0,0,4-5.53c.14-.24.16-.41,0-.6l-3.23-3.16C75.23,67.68,75,67.52,74.76,67.33Zm-18.53-31a14.26,14.26,0,0,0,1.93.28,20.49,20.49,0,0,1,3.65.47.68.68,0,0,1,.52,1c-.2.48-.44.95-.66,1.43L61,40.77c.88.07,1.67.1,2.45.2.32,0,.42-.07.52-.32.45-1.11.91-2.2,1.35-3.31.29-.71.54-1.43.82-2.19-1.28.09-2.49.27-3.7.24A13.1,13.1,0,0,1,58,34.64a.38.38,0,0,0-.52.14c-.2.27-.45.51-.66.77S56.43,36.05,56.23,36.32Zm-7.75-4.5c-.15.49-.28.92-.43,1.35a23.22,23.22,0,0,0-.81,2.3,16,16,0,0,1-1.51,4.15c-.19.33-.34.68-.53,1.09.47,0,.87,0,1.27,0a.82.82,0,0,0,.54-.24c.73-.8,1.42-1.62,2.13-2.44l2.71-3.09c.26-.3.56-.57.85-.86l-2.11-1.12ZM68.7,15.21h0c1.31,0,2.62-.08,3.92-.15.12,0,.27-.16.32-.28a11.56,11.56,0,0,0,.81-5.61.38.38,0,0,0-.24-.25c-1.09-.14-2.19-.24-3.28-.39-.32,0-.45.06-.5.34-.15.78-.32,1.57-.45,2.36C69.1,12.54,68.91,13.85,68.7,15.21ZM29.27,79.13a7.51,7.51,0,0,1,3.65-1.42,6.34,6.34,0,0,1,3.86.48l.5-4.24c-1.87,0-3.7,0-5.52,0-.11,0-.25.17-.31.29-.15.34-.23.72-.41,1-.59,1.07-1.2,2.13-1.81,3.18A.46.46,0,0,0,29.27,79.13Zm8.05,3.18a3.33,3.33,0,0,0-.66-2.14A.65.65,0,0,0,36.3,80a5.84,5.84,0,0,0-2.75.17,5,5,0,0,0-2.5,1.78,1,1,0,0,0,0,.94,6.43,6.43,0,0,0,1,1.12,3.32,3.32,0,0,1,1,2.23.36.36,0,0,0,.25.27,3.64,3.64,0,0,0,4-4.15ZM33.7,41c0-.45-.11-.71-.53-.8a.45.45,0,0,1-.41-.57c0-.17.24-.42.37-.42a.59.59,0,0,0,.65-.45.52.52,0,0,1,.72-.29.59.59,0,0,1,.22.76,2.76,2.76,0,0,0-.09.81,2,2,0,0,0,.22.53,3.68,3.68,0,0,0,.49-.23,4.2,4.2,0,0,0,1.07-1.53,1.43,1.43,0,0,1,1.28-.7A1.48,1.48,0,0,1,39,39.28a.51.51,0,0,0,.38.42.67.67,0,0,1,.39.48c0,.17-.22.36-.36.51s-.18.05-.27.07c.51.06,1.05.12,1.25-.5a3.07,3.07,0,0,0,0-2.29,3.49,3.49,0,0,0-2.8-1.73,4.55,4.55,0,0,0-3.26.6,4.09,4.09,0,0,0-1.93,3.73c0,.16.2.39.34.41A4.64,4.64,0,0,0,33.7,41Zm27.48-3c-.46-.09-.86-.21-1.26-.25-1.33-.16-2.67-.31-4-.44a.69.69,0,0,0-.49.16c-.5.53-1,1.09-1.44,1.64L52.7,40.64a.46.46,0,0,0,.16.06h6.72a.57.57,0,0,0,.4-.27C60.39,39.67,60.77,38.89,61.18,38.05ZM30,73.86c-.7,0-1.3-.07-1.9-.08-.08,0-.19.1-.24.18-.18.27-.32.54-.49.81a1,1,0,0,1-1.42.53c-.56-.19-1.12-.36-1.67-.57-1.09-.41-2.17-.85-3.26-1.27-.11,0-.28-.1-.34,0-.4.33-.77.69-1.22,1.11L28,77.63A27.51,27.51,0,0,0,30,73.86ZM21.26,16.07c-.22-1-.48-1.92-.63-2.85-.2-1.28-.33-2.56-.45-3.85C20.15,9,20,9,19.72,9l-.62.12c-.48.1-1,.2-1.44.28a.29.29,0,0,0-.27.37c.05.27.09.54.14.81.2,1,.4,1.94.59,2.91.14.75.27,1.5.43,2.24,0,.12.15.29.24.29C19.6,16.07,20.42,16.07,21.26,16.07Zm3,66.08.13-.08c0-.11-.07-.22-.1-.34a7.71,7.71,0,0,1-.33-1,1.13,1.13,0,0,1,1-1.36.88.88,0,0,0,.78-.32.39.39,0,0,1,.6-.07c.14.14.28.44.21.57a.78.78,0,0,0,.05.83.47.47,0,0,1-.22.68.49.49,0,0,1-.69-.18,1.19,1.19,0,0,0-.29-.34.38.38,0,0,0-.3-.07.36.36,0,0,0-.08.29,6.38,6.38,0,0,0,.34.92c0,.06.21.1.31.09.65-.07,1.29-.16,1.93-.26.13,0,.31-.1.35-.21a1.66,1.66,0,0,0-.58-1.94,6,6,0,0,0-4.56-1,1.35,1.35,0,0,0-1.2,1.18c-.09.69-.12,1.39-.15,2.09A2.71,2.71,0,0,0,23,83.8c.08,0,.23,0,.26,0A7.12,7.12,0,0,0,23.7,83a2.19,2.19,0,0,0-.24.11.52.52,0,0,1-.7-.74.4.4,0,0,0,.07-.31.53.53,0,0,1,.31-.69c.31-.13.52,0,.69.3S24.12,82,24.26,82.15ZM49.54,74c-.82,0-1.58,0-2.34,0-.08,0-.19.13-.23.22a1,1,0,0,1-.66.67c-.28.08-.55.18-.83.25-1.64.4-3.28.8-4.92,1.22-.58.14-1.16.32-1.73.51-.13,0-.32.15-.33.25-.07.4-.09.81-.13,1.27.2,0,.33,0,.46-.07,1.83-.56,3.66-1.13,5.5-1.68l4.78-1.45a.71.71,0,0,0,.38-.4A3.4,3.4,0,0,0,49.54,74ZM19.14,69.5a14,14,0,0,0-2.94,2.41.41.41,0,0,0-.11.35,13.32,13.32,0,0,0,.72,1.27.64.64,0,0,0,1,.16c.91-.73,1.8-1.48,2.75-2.26ZM12,72l2.6,1c-.39-1-.39-1.28.09-1.75.7-.68,1.41-1.36,2.17-2a1.17,1.17,0,0,0,.52-1.1c-.05-.55,0-1.11,0-1.66l-.14-.07c-.24.27-.48.52-.71.79-.5.6-1,1.25-1.5,1.82s-1.31,1.24-2,1.87C12.71,71.19,12.4,71.54,12,72Zm48.49,9.3A8.41,8.41,0,0,1,63,80.57c.14,0,.4-.13.42-.23A1.34,1.34,0,0,1,65,79.08a.52.52,0,0,1,.53.49.51.51,0,0,1-.44.53,2.39,2.39,0,0,1-.44.07c.29.24.51.55.78.6a1.19,1.19,0,0,1,.86.76.35.35,0,0,0,.3.14,3.11,3.11,0,0,0,1.4-1A1.11,1.11,0,0,0,67.72,79a3.53,3.53,0,0,0-1.52-.33,8.17,8.17,0,0,0-3.41.84A7.36,7.36,0,0,0,60.49,81.25Zm-30.69,6c.46-.08.93-.15,1.39-.27.12,0,.29-.18.29-.28a2.43,2.43,0,0,0-.15-1,4.42,4.42,0,0,0-1.69-1.82,4,4,0,0,0-3.17-.73c-.64.15-.83.52-.6,1.13a4.21,4.21,0,0,0,1.6,2A3.92,3.92,0,0,0,29.8,87.2ZM75,40.5a21.68,21.68,0,0,0-3.55,3c-.17.19-.18.3,0,.46a4.81,4.81,0,0,1,.51.5.4.4,0,0,0,.6.07l1-.66c.78-.53,1.56-1.06,2.33-1.6.19-.12.3-.29.13-.5ZM71.21,72.21c.28.35.49.62.72.87.39.43.8.86,1.23,1.27.1.09.36.16.43.11.47-.4.9-.83,1.35-1.25.21-.2.18-.36,0-.57-.43-.44-.84-.93-1.28-1.37s-.72-.67-1.11-1ZM59.48,84.13a6.82,6.82,0,0,0,.77-.23,1.33,1.33,0,0,1,1.54.2c.26.36.46.76.71,1.18a5.28,5.28,0,0,0,2-2.49.54.54,0,0,0-.52-.68,7.06,7.06,0,0,0-4,1.18.39.39,0,0,0-.17.19C59.68,83.68,59.59,83.88,59.48,84.13Zm-42.13-26c0-1,0-2,0-3,0-.13-.11-.26-.17-.39-.12.1-.31.19-.34.31-.21,1-.4,1.93-.56,2.91s-.29,2-.44,3c-.05.29.05.43.34.45a5.14,5.14,0,0,1,.7.09c.42.1.48.07.48-.34Zm26,21.72-4.76.66c0,.19.06.43.11.66a.62.62,0,0,0,.57.55c.75.08,1.49.21,2.23.3a1,1,0,0,0,.46-.08c.31-.11.61-.27.92-.35s.28-.1.3-.3C43.25,80.82,43.32,80.36,43.38,79.85Zm-25-39.65c-.25.38-.48.69-.68,1-.5.79-.5.81.19,1.45s1.14,1,1.75,1.5c.32-.58.62-1.1.89-1.63a.4.4,0,0,0-.09-.36C19.74,41.53,19.07,40.89,18.34,40.2ZM60.2,85.1l-.2,0c-.61.05-1.24.17-1.72-.39a.34.34,0,0,0-.35,0c-.33.38-.65.79-1,1.2a.46.46,0,0,0,.16.68,1.06,1.06,0,0,0,.51.19,8.54,8.54,0,0,0,3.2-.6,7.69,7.69,0,0,0,.95-.48l0-.1a2,2,0,0,0-.49,0C60.57,85.83,60.47,85.79,60.2,85.1ZM45.51,74c-1.09,0-2.12,0-3.16,0a1.94,1.94,0,0,0-.71.17,1.93,1.93,0,0,1-1.52.17c-.23-.1-.45-.21-.68-.3s-.5-.22-.57.08a15.44,15.44,0,0,0-.24,1.64Zm13.37,4.78c0,.49,0,.55.49.49a7.67,7.67,0,0,0,1-.15,1.18,1.18,0,0,0,.65-.38,1.25,1.25,0,0,0,.07-.75s-.32-.08-.49-.07c-.36,0-.72.09-1.08.15C58.9,78.13,58.89,78.14,58.88,78.73Zm-2.82.87c.53-.06,1-.09,1.47-.16a.44.44,0,0,0,.27-.23,5.1,5.1,0,0,0,.08-.67c0-.21-.06-.29-.25-.27q-.63.08-1.26.18a.33.33,0,0,0-.31.39C56.07,79.07,56.06,79.31,56.06,79.6ZM30.14,88.69a3.38,3.38,0,0,1-.78,0,6,6,0,0,1-1.71-.49,8.3,8.3,0,0,1-2.82-2.55,2.7,2.7,0,0,0-.23-.18,2.35,2.35,0,0,0,0,.38,2,2,0,0,0,.85,1.32,10,10,0,0,0,3.23,1.55A2,2,0,0,0,30.14,88.69ZM36.31,41c.48,0,1,0,1.44-.08.07,0,.21-.1.21-.15a10.76,10.76,0,0,0,0-1.27.55.55,0,0,0-.33-.32c-.08,0-.25.1-.32.2C37,39.9,36.65,40.43,36.31,41Zm5,43.19,0,.09c.12-.08.33-.16.34-.26s-.11-.39-.2-.41c-.77-.14-1.55-.25-2.33-.35-.09,0-.27.11-.27.17a.72.72,0,0,0,.13.42.38.38,0,0,0,.27.12ZM23,73.05l0,.1,2.86,1c.61.22.69.17.87-.53l-3.06-.52C23.41,73.07,23.19,73.07,23,73.05ZM20,82.57a2.46,2.46,0,0,0,1,2.26,4,4,0,0,0,1.95,1c.08-.31-.09-.39-.29-.47A4.58,4.58,0,0,1,20,82.57ZM50.48,83h-.56c-.53,0-.29.38-.33.62s.14.33.37.31l1.19-.12c.21,0,.43,0,.44-.31s-.06-.48-.4-.48S50.72,83.05,50.48,83Zm7.08-5.83L58.78,77c.35,0,.3-.31.29-.55s-.21-.2-.38-.19c-.46.06-.92.13-1.38.16-.28,0-.34.14-.34.4C57,77.35,57.28,77.22,57.56,77.21ZM55,78.67c-.48.06-.9.09-1.31.17a.47.47,0,0,0-.3.3c-.06.17,0,.29.24.33a1.26,1.26,0,0,1,.54.24c.24.23.48.08.69,0s.12-.28.14-.44S55,78.89,55,78.67Zm-1.86,2.54c-.11-.14-.18-.32-.26-.32-.55,0-1.1,0-1.65,0-.07,0-.18.16-.19.25a.53.53,0,0,0,.09.34c.58,0,1.15.3,1.72,0C52.93,81.46,53,81.34,53.11,81.21Zm16.64-7.42c.46.45.89.88,1.34,1.29s.73.62,1.1.91a1.12,1.12,0,0,0,.38.11l0-.11c-.64-.65-1.3-1.28-1.92-1.95A.83.83,0,0,0,69.75,73.79ZM59.23,80.28c-.38,0-.73.1-1.09.12s-.79.1-.56.87C58.75,81.29,58.83,81.25,59.23,80.28ZM48.57,84.07c.07-.91,0-1-.79-1h-.07c-.15,0-.4.06-.42.13a2.61,2.61,0,0,0,0,.74.22.22,0,0,0,.15.08ZM54.93,84a5.09,5.09,0,0,0,.71-.11.37.37,0,0,0,.23-.26,6.56,6.56,0,0,0-.11-.89.27.27,0,0,0-.14,0,6.57,6.57,0,0,0-.77.16.22.22,0,0,0-.11.19C54.79,83.34,54.86,83.64,54.93,84ZM69.28,81.8l-.08,0a11.45,11.45,0,0,1-.92.8c-.36.23-.76.37-1.13.58a.39.39,0,0,0-.1.32.3.3,0,0,0,.25.12A2.72,2.72,0,0,0,69,82.4,4,4,0,0,0,69.28,81.8ZM46.05,88.48c.2,0,.4,0,.6-.07.38-.08.22-.39.23-.61s-.18-.22-.35-.21a5,5,0,0,1-.67,0c-.38,0-.47.15-.45.5C45.43,88.64,45.81,88.4,46.05,88.48Zm-2.81-4.12c.18-.08.3-.15.43-.2a1.28,1.28,0,0,1,.39-.07c.3,0,.36-.14.35-.4,0-.53-.06-.57-.58-.57h-.3c-.21,0-.29.09-.29.29S43.24,84,43.24,84.36Zm4.75,4c.4,0,.77-.06,1.14-.11.07,0,.15-.12.17-.2.1-.46,0-.57-.47-.54h-.27c-.7,0-.58-.06-.6.62A1.94,1.94,0,0,0,48,88.39Zm5.4-.88,2-.26-.19-.51C54.44,86.7,53.74,86.69,53.39,87.51Zm-4.1-6h0c.11,0,.23,0,.34,0s.35,0,.36-.31-.12-.35-.37-.33-.48,0-.71,0-.33.07-.32.3.07.36.32.34S49.16,81.5,49.29,81.5Zm6.57-4.88a5.21,5.21,0,0,0-.62.08c-.11,0-.29.15-.27.2.05.21.11.53.25.58.5.17.76-.09.68-.61ZM50.4,88.26a2.53,2.53,0,0,0,.75-.13c.11,0,.17-.28.18-.44s-.13-.22-.22-.24a1,1,0,0,0-.48,0,.33.33,0,0,0-.22.19A4.37,4.37,0,0,0,50.4,88.26Zm-.75-2.35v0c.3,0,.6,0,.9,0,.08,0,.14-.13.21-.2s-.12-.16-.17-.15c-.59,0-1.18.06-1.76.1-.06,0-.1.12-.15.18s.12.1.18.1ZM57,83.42l1.32-1.06C56.84,82.35,56.92,82.46,57,83.42Zm-10.85.09c0-.11.17-.41-.22-.38-.19,0-.54-.16-.49.24,0,.24-.17.65.32.71S46.17,83.85,46.16,83.51Zm2.44-6.08,0-.2c-.14-.06-.3-.2-.42-.16-.66.19-1.32.42-2,.63v.06Zm7.09,3.28-.1.15a3.11,3.11,0,0,0,.32.69s.43,0,.47-.15a.81.81,0,0,0,0-.67C56.25,80.62,55.92,80.71,55.69,80.71ZM54,77.77c-.14-.85-.13-.85-.6-.77s-.31.37-.25.59C53.33,78.22,53.71,77.57,54,77.77ZM53.6,83c-.48.08-.56.19-.41.62a.83.83,0,0,0,.19.36.46.46,0,0,0,.33.08s.12-.16.11-.23C53.76,83.54,53.68,83.26,53.6,83Zm-6.08-2.1a4.14,4.14,0,0,0-.72.12c-.08,0-.15.18-.16.28s.08.25.13.25a1.38,1.38,0,0,0,.68-.07C47.54,81.43,47.5,81.12,47.52,80.89Zm-3.59,7.57c.23,0,.44.05.41-.3,0-.2,0-.42-.29-.34s-.56-.1-.58.31S43.67,88.5,43.93,88.46Zm.7-2.78c-.06.29,0,.43.32.43a3.5,3.5,0,0,0,.56,0c.09,0,.16-.13.25-.2-.09-.07-.17-.2-.27-.2A8.16,8.16,0,0,0,44.63,85.68Zm16-9.53c-.32.06-.48.1-.47.39s.1.31.3.27.49,0,.48-.27C60.92,76.41,60.73,76.28,60.62,76.15ZM54,85.76c.26-.1.67,0,.57-.49-.07-.31-.32-.21-.48-.17C53.59,85.23,54,85.52,54,85.76Zm-8.84-4.12.07-.08c.27,0,.37-.06.37-.32s-.14-.27-.33-.26-.47,0-.4.32C44.84,81.43,45,81.53,45.11,81.64Zm2.15,3.88c-.18.12-.37.19-.39.29s.17.23.33.21a2.18,2.18,0,0,0,.38-.18Zm5,.41.12-.18-.39-.3c0,.09-.11.23-.09.25A1.69,1.69,0,0,0,52.22,85.93Zm7.5,2.21v.06L60.77,88l0-.11Zm-30.22-7,.07,0,.68-.82-.07-.06Z"/><path class="cls-1" d="M65.43,41.15c.25-.66.46-1.26.71-1.85.49-1.2,1-2.4,1.51-3.6.11-.27.25-.52.36-.79a1,1,0,0,0-.88-1.36c-.94,0-1.88.11-2.81.17-.29,0-.58.05-.87.05-1,0-2,0-3-.11a15.86,15.86,0,0,1-2-.42c.14-.31.25-.53.34-.76a1.08,1.08,0,0,0-.9-1.65,29.21,29.21,0,0,1-5.22-1.43c-1.18-.48-2.3-1.11-3.45-1.68s-2.51-1.27-3.78-1.87a2,2,0,0,0-1.95-.1,3.18,3.18,0,0,0-.7.62l-2.39,2.76a.51.51,0,0,1-.6.18,4.75,4.75,0,0,0-.93-.15c-1.7-.16-3.4-.31-5.09-.48a9.88,9.88,0,0,1-1.52-.27,2.3,2.3,0,0,0-1.51.1,1.33,1.33,0,0,0-.71.88c-.4,1.27-.74,2.55-1.17,3.81a32.61,32.61,0,0,1-1.21,3.07c-.7,1.52-1.46,3-2.21,4.5a.54.54,0,0,1-.37.23c-1.17,0-2.34,0-3.51,0a.72.72,0,0,1-.42-.2c-.7-.64-1.39-1.31-2.09-1.95s-1-.54-1.6,0a7.48,7.48,0,0,0-1.83,2.81,1.32,1.32,0,0,0,.4,1.48c.4.4.85.75,1.24,1.16a.86.86,0,0,1,.24.54c0,1.55,0,3.1,0,4.65a4.39,4.39,0,0,1-.11.69c-.85-.22-1.65-.43-2.45-.61a3.2,3.2,0,0,0-1-.07c-.42,0-.6.38-.69.76-.28,1-.58,2.1-.81,3.16-.16.71-.21,1.44-.33,2.16s-.3,1.72-.41,2.59-.19,1.88-.3,2.81c-.06.56-.17,1.11-.26,1.67A12.24,12.24,0,0,0,11,64c0,.57.4,1,1.08,1.13l3.36.82c-.37.44-.73.9-1.11,1.34s-1,1.13-1.55,1.68c-.71.73-1.46,1.42-2.14,2.17a2.37,2.37,0,0,0-.55,1.08.89.89,0,0,0,.72,1c.81.26,1.61.54,2.42.82s1.49.51,2.22.8c.38.15.72.4,1.09.58a2.35,2.35,0,0,0,.56.2A15.18,15.18,0,0,1,19,76c.9.28,1.77.67,2.73,1a1.77,1.77,0,0,1-.37.15,1.67,1.67,0,0,0-1.33.86A10.41,10.41,0,0,0,19,79.78a6.16,6.16,0,0,0-.51,2.49,4.21,4.21,0,0,0,.74,2.84,5.92,5.92,0,0,0,2.74,2c.55.2,1.13.34,1.69.51a.47.47,0,0,1,.2.1,7.93,7.93,0,0,0,3,1.88c-.44,0-.83,0-1.22,0s-.79-.12-1.19-.14c-.82,0-1.64,0-2.45,0s-1.76.1-2.63.2a5,5,0,0,1-3.16-.77A5.26,5.26,0,0,0,15,88.38a1.05,1.05,0,0,0,.12.21c.66.58,1.29,1.2,2,1.74a4,4,0,0,0,2.23.7c1.3.11,2.61.16,3.91.24.4,0,.8.08,1.2.09,2.36.06,4.72.09,7.09.16,1.34,0,2.68.17,4,.21s2.52,0,3.78,0,2.3.16,3.46.23,2.46.18,3.69.19c2.63,0,5.26,0,7.89,0,2.41,0,4.83-.17,7.24-.28,1.35-.06,2.71-.11,4.06-.24s2.55-.37,3.83-.56c.5-.08,1-.15,1.48-.26a6.79,6.79,0,0,0,2.48-1,3.88,3.88,0,0,0,1.12-1.36l-.09-.09a4.68,4.68,0,0,1-.73.53,9.65,9.65,0,0,1-1.37.57,11.92,11.92,0,0,1-3.1.24c-1.52.07-3,.19-4.56.27l-4,.19c-1.83.09-3.66.21-5.5.26s-3.55,0-5.32,0q-3,0-6-.1c-1.19,0-2.38-.17-3.57-.22C38.67,90,37,90,35.28,90c-1.19,0-2.38-.15-3.61-.23.27-.29.52-.53.74-.8a1.47,1.47,0,0,0,.32-.55c.09-.31.28-.37.56-.36A5.24,5.24,0,0,0,36.9,87,5.51,5.51,0,0,0,38,85.73a.64.64,0,0,1,.75-.32c.33,0,.66.14,1,.17.77.08,1.55.11,2.32.2a5.65,5.65,0,0,1,.95.29.67.67,0,0,1-.14.11,1.51,1.51,0,0,0-.94,1.67A10,10,0,0,0,42,88.94a1.24,1.24,0,0,0,1.41,1.11c.88,0,1.76,0,2.64,0,1.51-.05,3-.12,4.52-.23a3.21,3.21,0,0,0,1.53-.31,5.74,5.74,0,0,1,2.45-.57c.51-.07,1-.1,1.54-.12a.71.71,0,0,1,.46.16,2.85,2.85,0,0,0,2,.85,6.63,6.63,0,0,0,3.82-.94c1-.58,1.93-1.18,2.86-1.82a2.31,2.31,0,0,0,.84-.89,1.89,1.89,0,0,1,1.46-1A4.31,4.31,0,0,0,70.45,83a4.92,4.92,0,0,0,.35-1.33,6.4,6.4,0,0,1,.09-.76,5.27,5.27,0,0,0,.43.51,1,1,0,0,0,1.61-.07c.88-1,1.78-1.92,2.61-2.93,1.37-1.67,2.7-3.39,4.06-5.11-.09,1-.18,2.08-.26,3.12,0,.46-.07.91-.11,1.36l-.33,4.09c-.05.64-.08,1.28-.13,1.92a26.8,26.8,0,0,1-.26,3.11c-.22,1.18-.63,2.32-.93,3.48a3,3,0,0,1-2.06,2,14.89,14.89,0,0,1-2.07.51c-1.92.48-3.88.24-5.82.38-5.11.34-10.24.14-15.36.24-2.75,0-5.5.13-8.25.29-4.47.26-8.93.07-13.39.11-2.38,0-4.76-.1-7.13-.13-1.26,0-2.52,0-3.77,0a18.24,18.24,0,0,1-2.22-.11,7.68,7.68,0,0,1-1.33-.5,8.87,8.87,0,0,1-4.13-2.86A10.34,10.34,0,0,1,9.8,85.54a65,65,0,0,1-.58-7.24c-.05-.83,0-1.66-.08-2.49-.07-1.72-.18-3.44-.23-5.16-.06-2.5-.1-5-.14-7.5,0-3.17-.08-6.35-.08-9.52q0-6.87,0-13.75c0-1.3,0-2.62.11-3.92a31.16,31.16,0,0,1,.66-4,16.4,16.4,0,0,1,2-5,5.06,5.06,0,0,1,.93-1.08,32.41,32.41,0,0,1,3-2.52c1.26-.88,2.64-1.58,4-2.37a11.74,11.74,0,0,0,1.18-.81,1.66,1.66,0,0,0,.64-1.38v-.61c0-.57.26-.76.82-.58a.39.39,0,0,1,.21.24,6,6,0,0,1,.36,1.06,1.54,1.54,0,0,0,1.71,1.39c3.12.09,6.24.15,9.36.13,2.86,0,5.73-.1,8.59-.21,1.66-.06,3.31-.22,5-.33h7.7c1.43,0,2.87,0,4.3-.11,1.12-.06,2.22-.23,3.34-.31.61,0,1.23,0,1.84,0a23.78,23.78,0,0,0,2.4-.24,1.18,1.18,0,0,0,.93-1c.08-.33.09-.67.16-1,0-.12.15-.3.23-.31s.5-.18.62.16a1.48,1.48,0,0,1,.09.51,2.34,2.34,0,0,0,1.68,2.41,14.82,14.82,0,0,1,3.2,1.81,11,11,0,0,1,2.66,2.19A18.15,18.15,0,0,1,79,28a20.6,20.6,0,0,1,1.2,4c.12.58.15,1.19.22,1.79.11,1,.23,2,.34,3,0,.12,0,.25,0,.38,0,6.87,0,13.74,0,20.62,0,1.57-.13,3.14-.22,4.7-.06.9-.13,1.81-.23,2.7S80.08,67,80,67.92c-.08.64-.13,1.27-.19,1.89-.52-.5-1-1-1.55-1.48s-1.34-1.18-2-1.78c-.41-.37-.8-.76-1.18-1.16a.62.62,0,0,1-.12-.38c.09-1.23.1-2.47.3-3.68a39.55,39.55,0,0,0,.44-4.6c0-1.29.16-2.58.22-3.87.07-1.54.15-3.07.18-4.6,0-.92,0-1.84-.06-2.76,0-.31-.12-.62-.12-.93a.75.75,0,0,1,.23-.49c.33-.3.72-.55,1-.85a3.76,3.76,0,0,0,.6-.72.9.9,0,0,0,0-1,10.68,10.68,0,0,0-2-2.32,1.16,1.16,0,0,0-1.49-.07c-.77.57-1.53,1.15-2.26,1.75a1.51,1.51,0,0,1-1.09.4c-1.66-.05-3.32-.06-5-.09Zm1.64-19.56a3.1,3.1,0,0,0-.86.37c-.62.51-1.19,1.08-1.76,1.64a.8.8,0,0,0-.06,1.23,2,2,0,0,0,1,.57,21.56,21.56,0,0,1,6.53,4.39c.65.64,1.24,1.34,1.89,2a1.08,1.08,0,0,0,1.5.14c.49-.32,1-.65,1.44-1a1.06,1.06,0,0,0,.46-1.12,3.26,3.26,0,0,0-.49-1,34.41,34.41,0,0,0-2.28-2.94A17.81,17.81,0,0,0,71,23.08,9.65,9.65,0,0,0,67.07,21.59Zm9.79,11.63c-1.42,0-2.42.8-2.37,2a2.4,2.4,0,0,0,2.28,2.51c1.37,0,2.45-.84,2.41-2C79.12,34.35,78.34,33.11,76.86,33.22ZM22.66,20l-.13-.08a1.3,1.3,0,0,1-.08.17,2.26,2.26,0,0,1-1.36,1.12,16.43,16.43,0,0,0-3.9,2.08,5.45,5.45,0,0,0-1.51,1.66,2.18,2.18,0,0,0-.16.45.49.49,0,0,0,.29-.11,14.19,14.19,0,0,1,1.29-.9c1.14-.61,2.32-1.14,3.45-1.77a10.19,10.19,0,0,0,1.57-1.15A1.75,1.75,0,0,0,22.66,20ZM10.3,40.44h.14L12,31.9l-.11,0a8.72,8.72,0,0,0-1.94,4.61A12.24,12.24,0,0,0,10.3,40.44ZM67.92,19.11a1.56,1.56,0,0,0,.34,1.22,4.22,4.22,0,0,0,2.47,1.37c.26.07.52.11.77.17l.06-.1a2.2,2.2,0,0,0-.27-.26C70.2,20.68,68.84,20.26,67.92,19.11Zm9,33.07a1.7,1.7,0,0,0,1.46-.77A2.11,2.11,0,0,0,77,52.18ZM12.28,85.79A1.37,1.37,0,0,0,13.51,85,2,2,0,0,0,12.28,85.79Zm.42.74.08.11,1.08-.72A1.09,1.09,0,0,0,12.7,86.53Zm1.52.15c-.6,0-1,.32-1,.72A1.94,1.94,0,0,0,14.22,86.68ZM78.36,52.29c-.36.16-.78.21-1,.7A1.25,1.25,0,0,0,78.36,52.29Z"/><path class="cls-1" d="M18.91,67.76V66.18c0-.34,0-.67,0-1q0-5.73,0-11.48A10.37,10.37,0,0,0,19,52.22c-.13-1,.2-2,.17-3.08s0-2.09.07-3.13a.63.63,0,0,1,0-.14h.28c.65.13.86.05,1.2-.54.45-.81.91-1.62,1.32-2.45a.52.52,0,0,1,.55-.33c4.67,0,9.34,0,14,0,2,0,4-.21,6-.22,4.93,0,9.87,0,14.81,0,1.28,0,2.56,0,3.84,0s2.35.23,3.53.31c.79.06,1.58,0,2.38.05H70l-.3.47a1,1,0,0,0,.11,1.33c.49.47,1,.94,1.5,1.38a1.33,1.33,0,0,0,1.81.13l1.27-.78a3.33,3.33,0,0,1,.1.56c0,1.88,0,3.76,0,5.63,0,1.5-.13,3-.22,4.48-.06,1-.12,2-.23,3s-.28,1.73-.36,2.6c-.13,1.33-.2,2.66-.31,4-.07.92-.15,1.83-.24,2.74,0,.25-.12.42-.44.36a1.2,1.2,0,0,0-1.26.66c-.61.9-1.21,1.81-1.78,2.74-.15.25-.33.23-.54.23l-5.17,0H61.82c-5.54,0-11.08.08-16.62.1q-7.59,0-15.18,0c-.85,0-1.71,0-2.56-.11s-1.4-.28-2.11-.38-1.64-.21-2.46-.28c-.65,0-.75-.12-1-.74a3.61,3.61,0,0,0-.48-.8c-.34-.49-.69-1-1.05-1.43A1.73,1.73,0,0,0,18.91,67.76ZM47.74,51.12a3,3,0,0,1,.49.1c.53.24,1.07.47,1.6.74A.76.76,0,0,0,51,51.32a.74.74,0,0,0-.46-.75c-.67-.32-1.35-.6-2-.89-.22-.1-.55-.1-.67-.26s0-.49,0-.74a.75.75,0,0,0-1.44-.3,3.25,3.25,0,0,0-.17.81.4.4,0,0,1-.32.39,4.59,4.59,0,0,0-1.94,1.24,5.13,5.13,0,0,0-1.06,2.06A3,3,0,0,0,44,56.17a4.7,4.7,0,0,0,2,.8c.23,0,.38.08.38.36,0,1.61,0,3.22,0,4.83,0,.1-.12.27-.2.28a2.94,2.94,0,0,1-1.85-.13.72.72,0,0,0-1,.29.74.74,0,0,0,.15,1,1.94,1.94,0,0,0,.42.25A3.75,3.75,0,0,0,46,64c.3,0,.4,0,.38.33a1,1,0,0,0,0,.34.83.83,0,0,0,.7.64.79.79,0,0,0,.8-.57,1.11,1.11,0,0,0,0-.44c-.08-.52.15-.76.63-1a4.66,4.66,0,0,0,3.09-3.55,3.82,3.82,0,0,0-.23-2.07,3.51,3.51,0,0,0-3.29-2.23c-.34,0-.42-.14-.42-.45,0-1.1,0-2.19,0-3.29ZM65.2,69.9c.76-.3,1.56-1.25,1.51-1.75A3.52,3.52,0,0,0,65.2,69.9Zm.9.78a3.73,3.73,0,0,0,1.38-1.63A2.33,2.33,0,0,0,66.1,70.68Z"/><path class="cls-1" d="M68.23,8.35,67.1,15.2H66c-1.65,0-3.3,0-4.95,0-1.35,0-2.7.23-4.06.31-.9.05-1.81,0-2.71.05-1.38,0-2.74.11-4.12.13l-8.75.1c-2.31,0-4.63.11-6.94.13-2.7,0-5.39,0-8.08,0L23.32,16c-.31,0-.46-.05-.53-.4-.26-1.24-.58-2.46-.84-3.7a11.55,11.55,0,0,1-.11-1.32c0-.43-.06-.87-.12-1.31s.06-.44.39-.49a50.73,50.73,0,0,1,5.23-.25c2.28,0,4.55-.15,6.83-.22,1.17,0,2.34-.07,3.51-.08,3.09,0,6.19,0,9.29-.06h3.8l17,.15ZM22.83,9.4a5.49,5.49,0,0,0,3.83,0C26.26,8.94,23.53,9,22.83,9.4Z"/><path class="cls-1" d="M21.27,4.93c.38,0,.71,0,1.05,0,1.65,0,3.31,0,4.94-.12C29.5,4.6,31.73,4.65,34,4.6c1.27,0,2.53-.15,3.8-.22s2.66-.2,4-.21c3.3,0,6.6,0,9.9,0,.71,0,1.42.06,2.14.09l-.13.61.1,0a2.86,2.86,0,0,1,.4-.45,2.82,2.82,0,0,1,.49-.25l.06.1L54.5,5l.12.06a5.25,5.25,0,0,1,.4-.53.46.46,0,0,1,.31-.17c1.15,0,2.29.11,3.43.15.76,0,1.51,0,2.27,0,1.51.09,3,.23,4.54.34.8,0,1.6.09,2.41.11.34,0,.49.11.47.46s0,.7,0,1.05c0,.19-.07.31-.33.3-1.13,0-2.26,0-3.4,0-3.39,0-6.79,0-10.19,0-4.8,0-9.59-.11-14.38-.1-3.06,0-6.11.14-9.16.22-2.17.06-4.33.12-6.49.21-.78,0-1.55.14-2.32.23-.38,0-.52,0-.55-.46C21.55,6.2,21.39,5.62,21.27,4.93Zm2.19,1.66a.85.85,0,0,0,1-.65ZM23.58,6l-.14-.16-.62.53.12.14Z"/><path class="cls-1" d="M28.87,18.88l.4-.85-.09-.09c-.28.25-.57.48-.82.75a.61.61,0,0,1-.55.24l-3.24-.13a.57.57,0,0,1-.61-.54,5,5,0,0,0-.19-.7l.45,0H30c2.63,0,5.26,0,7.88,0s5.51-.1,8.27-.15c1.42,0,2.84,0,4.26-.08,2.24-.06,4.49,0,6.71-.25,2.9-.29,5.79-.13,8.67-.2.2,0,.46-.09.47.27s-.14.68-.48.7c-.91,0-1.83,0-2.75.09-1.34.09-2.67.22-4,.34l-.34,0c-3.62,0-7.25,0-10.87.1-1.57,0-3.13.25-4.7.33-1.14,0-2.29,0-3.43,0l-5.89.11c-1,0-2.06.14-3.09.08A9,9,0,0,1,28.87,18.88Z"/><path class="cls-1" d="M27.14,41c.42-.85.82-1.62,1.19-2.4.64-1.37,1.3-2.74,1.87-4.15a22.54,22.54,0,0,0,.57-2.22c.21-.72.46-1.43.73-2.13a.5.5,0,0,1,.44-.21,20.35,20.35,0,0,0,3.2.44c1.47.1,2.93.26,4.38.45,1,.13,2.08.35,3.11.53a2.27,2.27,0,0,0,.45,0l3.59.07.27,0a9,9,0,0,1-.38,1.3,28.08,28.08,0,0,0-1.31,4.08,10.4,10.4,0,0,1-1.94,3.71c-.15.17-.52.16-.79.24l-.09-.12c.12-.37.24-.75.38-1.12a18.53,18.53,0,0,0,1.12-3.74c.09-.58.26-1.14.38-1.72s-.13-1-.77-1-1.57-.16-2.35-.28c-1.22-.19-2.44-.41-3.67-.6-.7-.12-1.41-.19-2.12-.3a12.56,12.56,0,0,1-1.51-.28,1,1,0,0,0-1.27.57c-.58,1.15-1.18,2.28-1.74,3.43-.33.69-.57,1.42-.91,2.1s-.74,1.26-1.09,1.89a8.46,8.46,0,0,0-.49,1.06.52.52,0,0,1-.63.39C27.58,41,27.39,41,27.14,41Z"/><path class="cls-1" d="M57.25,32.3c-.3.48-.54.91-.84,1.31-.8,1.08-1.58,2.17-2.44,3.2-1,1.2-2.09,2.31-3.11,3.49a1,1,0,0,1-.94.41,16.26,16.26,0,0,1-1.66-.09L49.66,39c.79-.92,1.58-1.85,2.4-2.75.52-.57,1.11-1.09,1.65-1.64a1.39,1.39,0,0,0,.38-.5c.13-.36,0-.61-.47-.82-.62-.32-1.26-.61-1.89-.93-1-.55-2.08-1.1-3.12-1.67a.7.7,0,0,1-.24-.27,1.08,1.08,0,0,0-1.06-.6,4,4,0,0,1-2.08-.51c-.81-.38-1.09-.53-1.79.32a.72.72,0,0,1-.49.15,4.73,4.73,0,0,1-.77-.15,1.39,1.39,0,0,1,.11-.21c.57-.65,1.13-1.31,1.71-1.95.36-.4.53-.41,1.06-.14l3.59,1.8c1.15.57,2.28,1.17,3.45,1.67a21.49,21.49,0,0,0,2.61.85C55.52,31.9,56.35,32.08,57.25,32.3Z"/><path class="cls-1" d="M31.38,41h-2a8.4,8.4,0,0,1,.53-1.12,17.61,17.61,0,0,0,1.65-3.2c.44-1,1-2,1.55-3a6.79,6.79,0,0,0,.37-.83c.07-.19.17-.22.37-.19.87.15,1.74.27,2.6.41s1.4.28,2.11.39,1.51.2,2.27.29,1.27.14,1.91.24c.48.08.52.2.39.68s-.18.83-.3,1.24q-.41,1.44-.84,2.88c-.07.24-.17.46-.27.71-.09-.54-.15-1-.25-1.54A2.68,2.68,0,0,0,40,36.12a9.13,9.13,0,0,0-1.92-.85,5.44,5.44,0,0,0-3.53.25,5.6,5.6,0,0,0-3,2.94A3.68,3.68,0,0,0,31.38,41Z"/><path class="cls-1" d="M17.33,53.66l-.39,0a.85.85,0,0,0-.94.59,8.06,8.06,0,0,0-.59,2.51c-.18,1.15-.34,2.31-.51,3.46-.06.38-.13.76-.17,1.15-.08.65.07.92.94,1.06.48.08,1,.13,1.44.22a.42.42,0,0,1,.23.31c0,.5,0,1,0,1.51,0,.21-.07.31-.29.26-1-.22-2-.43-3-.66-.34-.08-.68-.18-1-.28s-.47-.26-.38-.69.15-.81.21-1.22.14-1,.2-1.53c.09-.79.15-1.6.26-2.39s.24-1.33.36-2c.17-1,.33-1.93.52-2.88a16.48,16.48,0,0,1,.48-1.7.42.42,0,0,1,.36-.17c.68.14,1.34.31,2,.47a.43.43,0,0,1,.37.54C17.37,52.67,17.36,53.15,17.33,53.66Z"/><path class="cls-1" d="M46.32,79.3c1-.12,2-.23,3-.37a1.87,1.87,0,0,0,.78-.24,1.07,1.07,0,0,0,.25-1.42L50,76.55c.44-.2.84-.41.94-.89a10.39,10.39,0,0,0,.17-1.23c0-.51,0-.49.55-.5,2.36-.05,4.72-.12,7.09-.16,1.32,0,2.64,0,4,0,.6.35,1.37.31,1.89.83.79.81,1.59,1.61,2.44,2.49a11.59,11.59,0,0,0-4.32.75c-.09-.69-.17-1.32-.27-1.95a2.86,2.86,0,0,0-.19-.65.79.79,0,0,0-.72-.53c-1,0-2,0-3,0a26.37,26.37,0,0,0-2.66.29c-1.12.17-2.24.38-3.35.63a1,1,0,0,0-.9,1.2c0,.73.12,1.45.2,2.17,0,.28-.12.29-.31.29H48.71c-.73,0-1.46,0-2.19,0a1.52,1.52,0,0,1-.21,0Z"/><path class="cls-1" d="M74.76,67.33c.24.19.47.35.66.53L78.65,71c.19.19.17.36,0,.6a41.44,41.44,0,0,1-4,5.53c-.56.69-1.22,1.31-1.83,2-.25.26-.49.53-.77.84l-6.13-6.2c.7,0,1.29,0,1.87,0a.69.69,0,0,1,.34.14c.72.62,1.42,1.27,2.15,1.88.55.46,1.13.88,1.7,1.3a.87.87,0,0,0,1,0,7,7,0,0,0,1.86-1.52c.51-.59,1.1-1.11,1.56-1.74a12.13,12.13,0,0,0,1-1.76.77.77,0,0,0-.25-.92c-.42-.42-.86-.8-1.29-1.22-.25-.24-.45-.54-.72-.76a1.19,1.19,0,0,1-.43-1.37A4,4,0,0,0,74.76,67.33Z"/><path class="cls-1" d="M56.23,36.32c.2-.27.36-.53.55-.77s.46-.5.66-.77a.38.38,0,0,1,.52-.14,13.1,13.1,0,0,0,4.51.75c1.21,0,2.42-.15,3.7-.24-.28.76-.53,1.48-.82,2.19-.44,1.11-.9,2.2-1.35,3.31-.1.25-.2.36-.52.32-.78-.1-1.57-.13-2.45-.2l.64-1.32c.22-.48.46-1,.66-1.43a.68.68,0,0,0-.52-1,20.49,20.49,0,0,0-3.65-.47A14.26,14.26,0,0,1,56.23,36.32Z"/><path class="cls-1" d="M48.48,31.82l2.11,1.12,2.11,1.12c-.29.29-.59.56-.85.86L49.14,38c-.71.82-1.4,1.64-2.13,2.44a.82.82,0,0,1-.54.24c-.4,0-.8,0-1.27,0,.19-.41.34-.76.53-1.09a16,16,0,0,0,1.51-4.15,23.22,23.22,0,0,1,.81-2.3C48.2,32.74,48.33,32.31,48.48,31.82Z"/><path class="cls-1" d="M68.7,15.21c.21-1.36.4-2.67.61-4,.13-.79.3-1.58.45-2.36,0-.28.18-.38.5-.34,1.09.15,2.19.25,3.28.39a.38.38,0,0,1,.24.25A11.56,11.56,0,0,1,73,14.79c0,.12-.2.28-.32.28-1.3.07-2.61.11-3.92.15Zm1.78-5.8A16.58,16.58,0,0,0,69.4,13C70.29,12.81,71,10.29,70.48,9.41Z"/><path class="cls-1" d="M29.27,79.13a.46.46,0,0,1,0-.66c.61-1,1.22-2.11,1.81-3.18.18-.32.26-.7.41-1,.06-.12.2-.29.31-.29,1.82,0,3.65,0,5.52,0l-.5,4.24a6.34,6.34,0,0,0-3.86-.48A7.51,7.51,0,0,0,29.27,79.13Z"/><path class="cls-1" d="M37.32,82.31a3.64,3.64,0,0,1-4,4.15.36.36,0,0,1-.25-.27,3.32,3.32,0,0,0-1-2.23,6.43,6.43,0,0,1-1-1.12,1,1,0,0,1,0-.94,5,5,0,0,1,2.5-1.78A5.84,5.84,0,0,1,36.3,80a.65.65,0,0,1,.36.22A3.33,3.33,0,0,1,37.32,82.31Zm-3.35.5,0-.09a.45.45,0,0,1,.16,0c.43.07.73,0,.78-.35s-.15-.55-.49-.65a.86.86,0,0,1-.62-.48.53.53,0,0,0-.76-.34c-.29.16-.36.48-.15.85a.66.66,0,0,1,0,.7.85.85,0,0,0,.25,1.14,7.14,7.14,0,0,0,.87.5c-.06,0-.21,0-.27,0a1.35,1.35,0,0,0-.44.59.43.43,0,0,0,.45.46.56.56,0,0,1,.6.39.44.44,0,0,0,.66.23c.25-.14.43-.34.27-.68a.52.52,0,0,1,0-.42,1,1,0,0,0-.68-1.61C34.41,83,34.19,82.9,34,82.81Z"/><path class="cls-1" d="M33.7,41a4.64,4.64,0,0,1-1,0c-.14,0-.31-.25-.34-.41a4.09,4.09,0,0,1,1.93-3.73,4.55,4.55,0,0,1,3.26-.6A3.49,3.49,0,0,1,40.36,38a3.07,3.07,0,0,1,0,2.29c-.2.62-.74.56-1.25.5.09,0,.21,0,.27-.07s.36-.34.36-.51a.67.67,0,0,0-.39-.48.51.51,0,0,1-.38-.42,1.48,1.48,0,0,0-1.33-1.17,1.43,1.43,0,0,0-1.28.7,4.2,4.2,0,0,1-1.07,1.53,3.68,3.68,0,0,1-.49.23,2,2,0,0,1-.22-.53,2.76,2.76,0,0,1,.09-.81.59.59,0,0,0-.22-.76.52.52,0,0,0-.72.29.59.59,0,0,1-.65.45c-.13,0-.33.25-.37.42a.45.45,0,0,0,.41.57C33.59,40.29,33.71,40.55,33.7,41Z"/><path class="cls-1" d="M61.18,38.05c-.41.84-.79,1.62-1.2,2.38a.57.57,0,0,1-.4.27H52.86a.46.46,0,0,1-.16-.06L54,39.16c.48-.55.94-1.11,1.44-1.64a.69.69,0,0,1,.49-.16c1.33.13,2.67.28,4,.44C60.32,37.84,60.72,38,61.18,38.05Z"/><path class="cls-1" d="M30,73.86a27.51,27.51,0,0,1-2,3.77l-8.54-3.1c.45-.42.82-.78,1.22-1.11.06-.06.23,0,.34,0,1.09.42,2.17.86,3.26,1.27.55.21,1.11.38,1.67.57a1,1,0,0,0,1.42-.53c.17-.27.31-.54.49-.81.05-.08.16-.19.24-.18C28.65,73.79,29.25,73.82,30,73.86Z"/><path class="cls-1" d="M21.26,16.07c-.84,0-1.66,0-2.47,0-.09,0-.22-.17-.24-.29-.16-.74-.29-1.49-.43-2.24-.19-1-.39-1.94-.59-2.91-.05-.27-.09-.54-.14-.81a.29.29,0,0,1,.27-.37c.48-.08,1-.18,1.44-.28L19.72,9c.28,0,.43,0,.46.34.12,1.29.25,2.57.45,3.85C20.78,14.15,21,15.07,21.26,16.07Z"/><path class="cls-1" d="M24.26,82.15c-.14-.16-.3-.31-.43-.48s-.38-.43-.69-.3a.53.53,0,0,0-.31.69.4.4,0,0,1-.07.31.52.52,0,0,0,.7.74A2.19,2.19,0,0,1,23.7,83a7.12,7.12,0,0,1-.43.77s-.18.06-.26,0a2.71,2.71,0,0,1-1.53-2.17c0-.7.06-1.4.15-2.09a1.35,1.35,0,0,1,1.2-1.18,6,6,0,0,1,4.56,1A1.66,1.66,0,0,1,28,81.27c0,.11-.22.19-.35.21-.64.1-1.28.19-1.93.26-.1,0-.28,0-.31-.09a6.38,6.38,0,0,1-.34-.92.36.36,0,0,1,.08-.29.38.38,0,0,1,.3.07,1.19,1.19,0,0,1,.29.34.49.49,0,0,0,.69.18.47.47,0,0,0,.22-.68.78.78,0,0,1-.05-.83c.07-.13-.07-.43-.21-.57a.39.39,0,0,0-.6.07.88.88,0,0,1-.78.32,1.13,1.13,0,0,0-1,1.36,7.71,7.71,0,0,0,.33,1c0,.12.07.23.1.34Z"/><path class="cls-1" d="M49.54,74a3.4,3.4,0,0,1,0,.8.71.71,0,0,1-.38.4L44.33,76.6c-1.84.55-3.67,1.12-5.5,1.68-.13,0-.26,0-.46.07,0-.46.06-.87.13-1.27,0-.1.2-.21.33-.25.57-.19,1.15-.37,1.73-.51,1.64-.42,3.28-.82,4.92-1.22.28-.07.55-.17.83-.25a1,1,0,0,0,.66-.67c0-.09.15-.22.23-.22C48,73.94,48.72,74,49.54,74Z"/><path class="cls-1" d="M19.14,69.5l1.45,1.93c-.95.78-1.84,1.53-2.75,2.26a.64.64,0,0,1-1-.16,13.32,13.32,0,0,1-.72-1.27.41.41,0,0,1,.11-.35A14,14,0,0,1,19.14,69.5Z"/><path class="cls-1" d="M12,72c.4-.41.71-.76,1.05-1.08.66-.63,1.35-1.21,2-1.87s1-1.22,1.5-1.82c.23-.27.47-.52.71-.79l.14.07c0,.55,0,1.11,0,1.66a1.17,1.17,0,0,1-.52,1.1c-.76.61-1.47,1.29-2.17,2-.48.47-.48.73-.09,1.75Z"/><path class="cls-1" d="M60.49,81.25a7.36,7.36,0,0,1,2.3-1.78,8.17,8.17,0,0,1,3.41-.84,3.53,3.53,0,0,1,1.52.33A1.11,1.11,0,0,1,68,80.69a3.11,3.11,0,0,1-1.4,1,.35.35,0,0,1-.3-.14,1.19,1.19,0,0,0-.86-.76c-.27,0-.49-.36-.78-.6a2.39,2.39,0,0,0,.44-.07.51.51,0,0,0,.44-.53.52.52,0,0,0-.53-.49,1.34,1.34,0,0,0-1.58,1.26c0,.1-.28.23-.42.23A8.41,8.41,0,0,0,60.49,81.25Z"/><path class="cls-1" d="M29.8,87.2a3.92,3.92,0,0,1-2.33-1,4.21,4.21,0,0,1-1.6-2c-.23-.61,0-1,.6-1.13a4,4,0,0,1,3.17.73,4.42,4.42,0,0,1,1.69,1.82,2.43,2.43,0,0,1,.15,1c0,.1-.17.26-.29.28C30.73,87.05,30.26,87.12,29.8,87.2Zm-.61-1.47c.08.61.08.61.76.94a.49.49,0,0,0,.67-.15.47.47,0,0,0,0-.65,1.72,1.72,0,0,1-.27-.52.92.92,0,0,0-.92-.69h-1a.65.65,0,0,1,0-.13.48.48,0,0,0,0-.68.5.5,0,0,0-.7-.11.5.5,0,0,1-.36,0,.6.6,0,0,0-.81.29c-.1.25.08.52.42.69a.61.61,0,0,1,.3.29,1.05,1.05,0,0,0,1.31.81Z"/><path class="cls-1" d="M75,40.5l1,1.26c.17.21.06.38-.13.5-.77.54-1.55,1.07-2.33,1.6l-1,.66a.4.4,0,0,1-.6-.07,4.81,4.81,0,0,0-.51-.5c-.2-.16-.19-.27,0-.46A21.68,21.68,0,0,1,75,40.5Z"/><path class="cls-1" d="M71.21,72.21l1.32-2c.39.35.77.67,1.11,1s.85.93,1.28,1.37c.2.21.23.37,0,.57-.45.42-.88.85-1.35,1.25-.07.05-.33,0-.43-.11-.43-.41-.84-.84-1.23-1.27C71.7,72.83,71.49,72.56,71.21,72.21Z"/><path class="cls-1" d="M59.48,84.13c.11-.25.2-.45.31-.65a.39.39,0,0,1,.17-.19,7.06,7.06,0,0,1,4-1.18.54.54,0,0,1,.52.68,5.28,5.28,0,0,1-2,2.49c-.25-.42-.45-.82-.71-1.18a1.33,1.33,0,0,0-1.54-.2A6.82,6.82,0,0,1,59.48,84.13Z"/><path class="cls-1" d="M17.35,58.13v3c0,.41-.06.44-.48.34a5.14,5.14,0,0,0-.7-.09c-.29,0-.39-.16-.34-.45.15-1,.27-2,.44-3s.35-1.94.56-2.91c0-.12.22-.21.34-.31.06.13.17.26.17.39C17.36,56.12,17.35,57.13,17.35,58.13Z"/><path class="cls-1" d="M43.38,79.85c-.06.51-.13,1-.17,1.44,0,.2-.11.25-.3.3s-.61.24-.92.35a1,1,0,0,1-.46.08c-.74-.09-1.48-.22-2.23-.3a.62.62,0,0,1-.57-.55c0-.23-.08-.47-.11-.66Z"/><path class="cls-1" d="M18.34,40.2c.73.69,1.4,1.33,2.06,2a.4.4,0,0,1,.09.36c-.27.53-.57,1.05-.89,1.63-.61-.52-1.2-1-1.75-1.5s-.69-.66-.19-1.45C17.86,40.89,18.09,40.58,18.34,40.2Z"/><path class="cls-1" d="M60.2,85.1c.27.69.37.73,1.08.53a2,2,0,0,1,.49,0l0,.1a7.69,7.69,0,0,1-.95.48,8.54,8.54,0,0,1-3.2.6,1.06,1.06,0,0,1-.51-.19.46.46,0,0,1-.16-.68c.3-.41.62-.82,1-1.2a.34.34,0,0,1,.35,0c.48.56,1.11.44,1.72.39Z"/><path class="cls-1" d="M45.51,74l-6.88,1.77a15.44,15.44,0,0,1,.24-1.64c.07-.3.37-.16.57-.08s.45.2.68.3a1.93,1.93,0,0,0,1.52-.17,1.94,1.94,0,0,1,.71-.17C43.39,73.94,44.42,74,45.51,74Z"/><path class="cls-1" d="M58.88,78.73c0-.59,0-.6.6-.71.36-.06.72-.12,1.08-.15.17,0,.49,0,.49.07a1.25,1.25,0,0,1-.07.75,1.18,1.18,0,0,1-.65.38,7.67,7.67,0,0,1-1,.15C58.93,79.28,58.87,79.22,58.88,78.73Z"/><path class="cls-1" d="M56.06,79.6c0-.29,0-.53,0-.76a.33.33,0,0,1,.31-.39q.63-.11,1.26-.18c.19,0,.28.06.25.27a5.1,5.1,0,0,1-.08.67.44.44,0,0,1-.27.23C57.06,79.51,56.59,79.54,56.06,79.6Z"/><path class="cls-1" d="M30.14,88.69a2,2,0,0,1-1.46,0,10,10,0,0,1-3.23-1.55,2,2,0,0,1-.85-1.32,2.35,2.35,0,0,1,0-.38,2.7,2.7,0,0,1,.23.18,8.3,8.3,0,0,0,2.82,2.55,6,6,0,0,0,1.71.49A3.38,3.38,0,0,0,30.14,88.69Z"/><path class="cls-1" d="M36.31,41c.34-.57.66-1.1,1-1.62.07-.1.24-.22.32-.2a.55.55,0,0,1,.33.32,10.76,10.76,0,0,1,0,1.27s-.14.14-.21.15C37.27,41,36.79,41,36.31,41Z"/><path class="cls-1" d="M41.28,84.19l-2-.22a.38.38,0,0,1-.27-.12.72.72,0,0,1-.13-.42c0-.06.18-.18.27-.17.78.1,1.56.21,2.33.35.09,0,.22.28.2.41s-.22.18-.34.26Z"/><path class="cls-1" d="M23,73.05c.21,0,.43,0,.64,0l3.06.52c-.18.7-.26.75-.87.53l-2.86-1Z"/><path class="cls-1" d="M20,82.57a4.58,4.58,0,0,0,2.65,2.8c.2.08.37.16.29.47a4,4,0,0,1-1.95-1A2.46,2.46,0,0,1,20,82.57Z"/><path class="cls-1" d="M50.48,83c.24,0,.47,0,.71,0s.4.18.4.48-.23.3-.44.31L50,84c-.23,0-.42,0-.37-.31s-.2-.63.33-.62h.56Z"/><path class="cls-1" d="M57.56,77.21c-.28,0-.6.14-.59-.36,0-.26.06-.39.34-.4.46,0,.92-.1,1.38-.16.17,0,.37-.1.38.19s.06.5-.29.55Z"/><path class="cls-1" d="M55,78.67c0,.22,0,.42,0,.62s0,.42-.14.44-.45.21-.69,0a1.26,1.26,0,0,0-.54-.24c-.21,0-.3-.16-.24-.33a.47.47,0,0,1,.3-.3C54.07,78.76,54.49,78.73,55,78.67Z"/><path class="cls-1" d="M53.11,81.21c-.12.13-.18.25-.29.3-.57.26-1.14,0-1.72,0a.53.53,0,0,1-.09-.34c0-.09.12-.25.19-.25.55,0,1.1,0,1.65,0C52.93,80.89,53,81.07,53.11,81.21Z"/><path class="cls-1" d="M69.75,73.79a.83.83,0,0,1,.94.25c.62.67,1.28,1.3,1.92,1.95l0,.11a1.12,1.12,0,0,1-.38-.11c-.37-.29-.74-.59-1.1-.91S70.21,74.24,69.75,73.79Z"/><path class="cls-1" d="M59.23,80.28c-.4,1-.48,1-1.65,1-.23-.77.08-.86.56-.87S58.85,80.32,59.23,80.28Z"/><path class="cls-1" d="M48.57,84.07H47.42a.22.22,0,0,1-.15-.08,2.61,2.61,0,0,1,0-.74c0-.07.27-.09.42-.13h.07C48.59,83.09,48.64,83.16,48.57,84.07Z"/><path class="cls-1" d="M54.93,84c-.07-.31-.14-.61-.19-.92a.22.22,0,0,1,.11-.19,6.57,6.57,0,0,1,.77-.16.27.27,0,0,1,.14,0,6.56,6.56,0,0,1,.11.89.37.37,0,0,1-.23.26A5.09,5.09,0,0,1,54.93,84Z"/><path class="cls-1" d="M69.28,81.8a4,4,0,0,1-.26.6,2.72,2.72,0,0,1-1.72,1.18.3.3,0,0,1-.25-.12.39.39,0,0,1,.1-.32c.37-.21.77-.35,1.13-.58a11.45,11.45,0,0,0,.92-.8Z"/><path class="cls-1" d="M46.05,88.48c-.24-.08-.62.16-.64-.35,0-.35.07-.52.45-.5a5,5,0,0,0,.67,0c.17,0,.37,0,.35.21s.15.53-.23.61C46.45,88.45,46.25,88.46,46.05,88.48Z"/><path class="cls-1" d="M43.24,84.36c0-.35,0-.65,0-1s.08-.3.29-.29h.3c.52,0,.55,0,.58.57,0,.26,0,.41-.35.4a1.28,1.28,0,0,0-.39.07C43.54,84.21,43.42,84.28,43.24,84.36Z"/><path class="cls-1" d="M48,88.39a1.94,1.94,0,0,1,0-.22c0-.68-.1-.6.6-.62h.27c.47,0,.57.08.47.54,0,.08-.1.19-.17.2C48.76,88.33,48.39,88.36,48,88.39Z"/><path class="cls-1" d="M53.39,87.51c.35-.82,1-.81,1.79-.77l.19.51Z"/><path class="cls-1" d="M49.29,81.5c-.13,0-.25,0-.38,0s-.32-.1-.32-.34.1-.31.32-.3.47,0,.71,0,.37.06.37.33-.14.32-.36.31-.23,0-.34,0Z"/><path class="cls-1" d="M55.86,76.62l0,.25c.08.52-.18.78-.68.61-.14,0-.2-.37-.25-.58,0-.05.16-.18.27-.2A5.21,5.21,0,0,1,55.86,76.62Z"/><path class="cls-1" d="M50.4,88.26a4.37,4.37,0,0,1,0-.63.33.33,0,0,1,.22-.19,1,1,0,0,1,.48,0c.09,0,.23.16.22.24s-.07.39-.18.44A2.53,2.53,0,0,1,50.4,88.26Z"/><path class="cls-1" d="M49.65,85.91h-.79c-.06,0-.12-.06-.18-.1s.09-.17.15-.18c.58,0,1.17-.08,1.76-.1,0,0,.11.09.17.15s-.13.2-.21.2c-.3,0-.6,0-.9,0Z"/><path class="cls-1" d="M57,83.42c-.09-1-.17-1.07,1.32-1.06Z"/><path class="cls-1" d="M46.16,83.51c0,.34,0,.62-.39.57s-.29-.47-.32-.71c-.05-.4.3-.23.49-.24C46.33,83.1,46.14,83.4,46.16,83.51Z"/><path class="cls-1" d="M48.6,77.43l-2.34.33V77.7c.65-.21,1.31-.44,2-.63.12,0,.28.1.42.16Z"/><path class="cls-1" d="M55.69,80.71c.23,0,.56-.09.67,0a.81.81,0,0,1,0,.67c0,.1-.44.2-.47.15a3.11,3.11,0,0,1-.32-.69Z"/><path class="cls-1" d="M54,77.77c-.3-.2-.68.45-.85-.18-.06-.22-.15-.52.25-.59S53.87,76.92,54,77.77Z"/><path class="cls-1" d="M53.6,83c.08.27.16.55.22.83,0,.07-.06.22-.11.23a.46.46,0,0,1-.33-.08.83.83,0,0,1-.19-.36C53,83.18,53.12,83.07,53.6,83Z"/><path class="cls-1" d="M47.52,80.89c0,.23,0,.54-.07.58a1.38,1.38,0,0,1-.68.07c-.05,0-.13-.17-.13-.25s.08-.26.16-.28A4.14,4.14,0,0,1,47.52,80.89Z"/><path class="cls-1" d="M43.93,88.46c-.26,0-.46,0-.46-.33s.37-.26.58-.31.27.14.29.34C44.37,88.51,44.16,88.48,43.93,88.46Z"/><path class="cls-1" d="M44.63,85.68a8.16,8.16,0,0,1,.86,0c.1,0,.18.13.27.2-.09.07-.16.18-.25.2a3.5,3.5,0,0,1-.56,0C44.68,86.11,44.57,86,44.63,85.68Z"/><path class="cls-1" d="M60.62,76.15c.11.13.3.26.31.39,0,.31-.29.24-.48.27s-.29,0-.3-.27S60.3,76.21,60.62,76.15Z"/><path class="cls-1" d="M54,85.76c0-.24-.36-.53.09-.66.16,0,.41-.14.48.17C54.62,85.75,54.21,85.66,54,85.76Z"/><path class="cls-1" d="M45.11,81.64c-.1-.11-.27-.21-.29-.34-.07-.31.18-.31.4-.32s.34,0,.33.26-.1.37-.37.32Z"/><path class="cls-1" d="M47.26,85.52l.32.32a2.18,2.18,0,0,1-.38.18c-.16,0-.38,0-.33-.21S47.08,85.64,47.26,85.52Z"/><path class="cls-1" d="M52.22,85.93a1.69,1.69,0,0,1-.36-.23s.06-.16.09-.25l.39.3Z"/><path class="cls-1" d="M59.72,88.14l1-.27,0,.11-1.06.22Z"/><path class="cls-1" d="M29.5,81.16l.68-.83.07.06-.68.82Z"/><path d="M67.07,21.59a9.65,9.65,0,0,1,4,1.49,17.81,17.81,0,0,1,3.44,2.73,34.41,34.41,0,0,1,2.28,2.94,3.26,3.26,0,0,1,.49,1,1.06,1.06,0,0,1-.46,1.12c-.46.37-1,.7-1.44,1a1.08,1.08,0,0,1-1.5-.14c-.65-.65-1.24-1.35-1.89-2a21.56,21.56,0,0,0-6.53-4.39,2,2,0,0,1-1-.57.8.8,0,0,1,.06-1.23C65,23,65.59,22.47,66.21,22A3.1,3.1,0,0,1,67.07,21.59Zm8.52,8.24A14.4,14.4,0,0,0,72.42,26,13.51,13.51,0,0,0,68,23.37a1.28,1.28,0,0,0-1.71.71,24.4,24.4,0,0,1,8.4,6.39Z"/><path d="M76.86,33.22c1.48-.11,2.26,1.13,2.32,2.46,0,1.17-1,2-2.41,2a2.4,2.4,0,0,1-2.28-2.51C74.44,34,75.44,33.22,76.86,33.22Zm0,1.54c-.54,0-.73.14-.73.5a.87.87,0,0,0,.71.89c.44,0,.85-.25.84-.53A.78.78,0,0,0,76.81,34.76Z"/><path d="M22.66,20a1.75,1.75,0,0,1-.54,1.47,10.19,10.19,0,0,1-1.57,1.15c-1.13.63-2.31,1.16-3.45,1.77a14.19,14.19,0,0,0-1.29.9.49.49,0,0,1-.29.11,2.18,2.18,0,0,1,.16-.45,5.45,5.45,0,0,1,1.51-1.66,16.43,16.43,0,0,1,3.9-2.08,2.26,2.26,0,0,0,1.36-1.12,1.3,1.3,0,0,0,.08-.17Z"/><path d="M10.3,40.44a12.24,12.24,0,0,1-.39-3.95,8.72,8.72,0,0,1,1.94-4.61l.11,0-1.52,8.53Z"/><path d="M67.92,19.11c.92,1.15,2.28,1.57,3.37,2.4a2.2,2.2,0,0,1,.27.26l-.06.1c-.25-.06-.51-.1-.77-.17a4.22,4.22,0,0,1-2.47-1.37A1.56,1.56,0,0,1,67.92,19.11Z"/><path d="M77,52.18a2.11,2.11,0,0,1,1.46-.77A1.7,1.7,0,0,1,77,52.18Z"/><path d="M12.28,85.79A2,2,0,0,1,13.51,85,1.37,1.37,0,0,1,12.28,85.79Z"/><path d="M12.7,86.53a1.09,1.09,0,0,1,1.16-.61l-1.08.72Z"/><path d="M14.22,86.68a1.94,1.94,0,0,1-1,.72C13.24,87,13.62,86.73,14.22,86.68Z"/><path d="M78.36,52.29a1.25,1.25,0,0,1-1,.7C77.58,52.5,78,52.45,78.36,52.29Z"/><path d="M47.74,51.12v.66c0,1.1,0,2.19,0,3.29,0,.31.08.43.42.45a3.51,3.51,0,0,1,3.29,2.23,3.82,3.82,0,0,1,.23,2.07,4.66,4.66,0,0,1-3.09,3.55c-.48.21-.71.45-.63,1a1.11,1.11,0,0,1,0,.44.79.79,0,0,1-.8.57.83.83,0,0,1-.7-.64,1,1,0,0,1,0-.34c0-.28-.08-.36-.38-.33a3.75,3.75,0,0,1-2.07-.2,1.94,1.94,0,0,1-.42-.25.74.74,0,0,1-.15-1,.72.72,0,0,1,1-.29,2.94,2.94,0,0,0,1.85.13c.08,0,.2-.18.2-.28,0-1.61,0-3.22,0-4.83,0-.28-.15-.32-.38-.36a4.7,4.7,0,0,1-2-.8,3,3,0,0,1-1.11-3.29,5.13,5.13,0,0,1,1.06-2.06,4.59,4.59,0,0,1,1.94-1.24.4.4,0,0,0,.32-.39,3.25,3.25,0,0,1,.17-.81.75.75,0,0,1,1.44.3c0,.25-.08.56,0,.74s.45.16.67.26c.68.29,1.36.57,2,.89a.74.74,0,0,1,.46.75.76.76,0,0,1-1.14.64c-.53-.27-1.07-.5-1.6-.74A3,3,0,0,0,47.74,51.12ZM48,62l.77-.39a2.6,2.6,0,0,0,1-3.66A1.85,1.85,0,0,0,48,57.12ZM46.12,55.4V51.16c-.27.17-.5.28-.69.42a2.65,2.65,0,0,0-1.12,2.35C44.34,54.81,45.07,55.19,46.12,55.4Z"/><path d="M65.2,69.9a3.52,3.52,0,0,1,1.51-1.75C66.76,68.65,66,69.6,65.2,69.9Z"/><path d="M66.1,70.68a2.33,2.33,0,0,1,1.38-1.63A3.73,3.73,0,0,1,66.1,70.68Z"/><path d="M22.83,9.4c.7-.45,3.43-.46,3.83,0A5.49,5.49,0,0,1,22.83,9.4Z"/><path d="M23.46,6.59l1-.65A.85.85,0,0,1,23.46,6.59Z"/><path d="M23.58,6l-.64.51-.12-.14.62-.53Z"/><path d="M70.48,9.41c.48.88-.19,3.4-1.08,3.63A16.58,16.58,0,0,1,70.48,9.41Z"/><path d="M34,82.81c.22.09.44.19.66.26a1,1,0,0,1,.68,1.61.52.52,0,0,0,0,.42c.16.34,0,.54-.27.68a.44.44,0,0,1-.66-.23.56.56,0,0,0-.6-.39.43.43,0,0,1-.45-.46,1.35,1.35,0,0,1,.44-.59c.06-.06.21,0,.27,0a7.14,7.14,0,0,1-.87-.5A.85.85,0,0,1,33,82.42a.66.66,0,0,0,0-.7c-.21-.37-.14-.69.15-.85a.53.53,0,0,1,.76.34.86.86,0,0,0,.62.48c.34.1.54.3.49.65s-.35.42-.78.35a.45.45,0,0,0-.16,0Z"/><path d="M29.19,85.73l-.57.08A1.05,1.05,0,0,1,27.31,85a.61.61,0,0,0-.3-.29c-.34-.17-.52-.44-.42-.69a.6.6,0,0,1,.81-.29.5.5,0,0,0,.36,0,.5.5,0,0,1,.7.11.48.48,0,0,1,0,.68.65.65,0,0,0,0,.13h1a.92.92,0,0,1,.92.69,1.72,1.72,0,0,0,.27.52.47.47,0,0,1,0,.65.49.49,0,0,1-.67.15C29.27,86.34,29.27,86.34,29.19,85.73Z"/><path class="cls-1" d="M75.59,29.83l-.89.64a24.4,24.4,0,0,0-8.4-6.39A1.28,1.28,0,0,1,68,23.37,13.51,13.51,0,0,1,72.42,26,14.4,14.4,0,0,1,75.59,29.83Z"/><path class="cls-1" d="M76.81,34.76a.78.78,0,0,1,.82.86c0,.28-.4.54-.84.53a.87.87,0,0,1-.71-.89C76.08,34.9,76.27,34.77,76.81,34.76Z"/><path class="cls-1" d="M48,62V57.12a1.85,1.85,0,0,1,1.81.78,2.6,2.6,0,0,1-1,3.66Z"/><path class="cls-1" d="M46.12,55.4c-1-.21-1.78-.59-1.81-1.47a2.65,2.65,0,0,1,1.12-2.35c.19-.14.42-.25.69-.42Z"/></g></g></g></svg>