<svg xmlns="http://www.w3.org/2000/svg" viewBox="0 0 602.05 438.73"><defs><style>.cls-1{fill:#fff;}</style></defs><g id="Layer_2" data-name="Layer 2"><g id="Layer_1-2" data-name="Layer 1"><g id="Layer_2-2" data-name="Layer 2"><g id="Layer_1-2-2" data-name="Layer 1-2"><path class="cls-1" d="M537.79,97.15a13.35,13.35,0,0,1,3.67-4.72,4.94,4.94,0,0,1,5.13-.78c.79.33,1.63.54,2.39.92,3.45,1.69,4.19,3.38,3.09,7.14a30.42,30.42,0,0,1-1.23,3.47c-3.47,8-5,16.67-7.2,25.06-1.33,5-2.34,10-3.54,15-1.75,7.29-2.43,14.75-3.51,22.14q-2,13.83-3.67,27.7c-1.51,12.53-3.33,25-4.62,37.58-.34,3.29-.85,6.56-1.25,9.85a22.35,22.35,0,0,0-.18,6.83,4.36,4.36,0,0,0,3.38.16c7.41-1.41,14.35.29,21.15,3.07a14.61,14.61,0,0,1,8.41,9.2,53.64,53.64,0,0,1,3,16.59c.22,8.32,4.67,13.33,11.92,16.42,1.81.77,3.65,1.46,5.45,2.23a14.68,14.68,0,0,1,5.76,3.87c4.12,5,8.55,9.8,10.75,16.11,1.25,3.58,2.79,7.05,3.93,10.69a34.63,34.63,0,0,1,1,15.28,62.55,62.55,0,0,1-11.82,29,45.22,45.22,0,0,1-9.06,8.58c-1.33,1-3,1.71-3.49,3.6-.24.89-1.24,1.13-2,1.52-5,2.63-10.1,5.23-15.14,7.87-6.2,3.25-13.06,4.06-19.75,5.54-14.55-.49-28-3.59-37.62-15.8-5.54-7.06-8-15.32-9-24.14-.74-6.55.08-13,.94-19.42a46.15,46.15,0,0,0,.73-6.94,8.36,8.36,0,0,1,1.1-3.47,42.14,42.14,0,0,0,1.8-4c1.33-4,1.13-7.75-2.23-10.8q-4.21-3.84-8.47-7.63c-6.28-5.61-8.19-12.57-6.3-20.65.52-2.24,1.2-4.45,1.79-6.6-1.25-.81-1.8.19-2.44.56-4.14,2.39-7.84,5.51-12.26,7.42-1.7.73-1.79,2.07-1.89,3.6-.36,5.76-.19,11.52-.16,17.29q0,6.08-.08,12.14c0,2.08-.69,3.89-2.92,4.63s-6.36-.24-7.54-1.81a5.67,5.67,0,0,1-.76-3.17,178.22,178.22,0,0,1-.4-21.68,8.77,8.77,0,0,0-.18-3.88c-1,0-1.11.69-1,1.27,1.37,9.36-.81,18.57-1.24,27.85-.51,10.9-1.08,21.79-1.31,32.7-.18,8.33-.84,16.64-1.24,25-.54,11-1.14,22-.37,33.08a12.28,12.28,0,0,1-3.36,9,6.8,6.8,0,0,1-7.28,2.29c-3-.73-4.3-3-5.09-5.71a6.26,6.26,0,0,1-.13-1.83c.23-12.26-.15-24.52,1.09-36.76a118,118,0,0,0,.45-16.17,118.22,118.22,0,0,1,.83-15.05c1.2-13.55,2.59-27.09,3.9-40.64a83.92,83.92,0,0,0,.07-11.76,2.9,2.9,0,0,0-2.16-2.95,185.88,185.88,0,0,1-29.78-14.35,50.43,50.43,0,0,0-6.37-2.84c-5.77-2.45-10.85-6.22-16.63-8.61-1-.41-1.81-1.33-3.1-.95-.79.78-.5,1.82-.51,2.74-.12,18.52,0,37-.37,55.55-.17,9.68-.94,19.35-1.62,29-.23,3.3-.45,6.6-.5,9.91a5.15,5.15,0,0,1-3,5c-5.92,3.25-6.7,3.17-11.35-1.57a5.72,5.72,0,0,1-1.65-4.64c.33-8.21.48-16.43.95-24.63,1.25-21.78,3.29-43.53,3-65.39,0-2.44.25-4.89.38-7.34s.51-4.65-1.06-6.73a3.52,3.52,0,0,1-.47-1.76c-.37-4.39-.61-8.8-1.09-13.18-.38-3.54,1.23-5.85,4-7.62a122.71,122.71,0,0,1,15.67-8.87c13.22-5.89,26.27-12.1,39.1-18.78,6.65-3.47,13.56-6.28,20.42-9.26a3.17,3.17,0,0,0,2.23-2.93c.33-3.29.89-6.57,1.12-9.86.91-13.21,1.74-26.43,2.58-39.64a13.36,13.36,0,0,0-.14-2c-.64-.81-1.43-.75-2.13-.91-1.94-.45-2.81-1.88-3.23-3.63-.78-3.19.86-4.72,4-3.8.58.17,1.12.46,1.8.74,1.78-2,1.64-4.37,1-6.54-1.2-4.36-1.3-8.45,1.55-12.25a6.38,6.38,0,0,0,.81-3.16c1.24-8.75,2.45-17.49,3.7-26.23a36.58,36.58,0,0,1,2-8.57c1-2.59,2.69-4.22,5.7-4.43a5.58,5.58,0,0,1,6.07,3.8c.94,2.54,2.63,3,5,3.36,7.28,1,14.67,1.14,21.9,2.55,10.71,2.09,21.4,4.3,31.71,8A48.22,48.22,0,0,1,537.79,97.15ZM521,388.91l1.7.56c0-.32.15-.46.41-.31a.31.31,0,0,1,.16.39.31.31,0,0,1-.16.16c-.26.14-.42,0-.41-.33-.23-1.36-.74-1.58-1.61-.39l-.14.1ZM483.15,179.63c0-2.86,0-2.86-1.67-4.49a20.07,20.07,0,0,0,1.73,4.43c.47,1.42.63,3,2,4C484.66,182.18,485.12,180.31,483.15,179.63Zm35.6,208.09a10.78,10.78,0,0,0-4,.21c1.87,1.81,3,1,4-.3a1.7,1.7,0,0,0,.66-.17c.19-.16,0-.38-.24-.28s-.31.35-.42.54ZM480.94,170.85c-.17.32-.8.59-.09,1l.06-1c-.87-1.25-.7-3.16-2.39-3.89C479.19,168.36,478.66,170.52,480.94,170.85Zm9.81,132.8c.61.91,1.12,2,2.54,1.57,2.47-.79,4.93-1.64,7.43-2.47a3,3,0,0,0-2.6-1.93c-1.15-1.46-2.33-3.08-4.5-2.08-1.83.83-3.52,2-5.24,2.95A3.26,3.26,0,0,0,490.75,303.65ZM509.28,373c-.43-.8-.18-2-1.42-2.31-2.92,1.31-3.63,1.87-5,4,2.26-.52,4.12-2.27,6.56-1.81-1.73,2-4.63,2.05-6.49,3.92,1.65,4,3.55-1.14,5.21.22-.32,1.4-2.59,1.45-2.34,3.55a9,9,0,0,0,6-3.42,10.15,10.15,0,0,0-2.52-4.15Zm-8.18-3-.07-.08c-.11.34-.25.67-.33,1-.37,1.65.16,2.36,1.4,1.71a54.13,54.13,0,0,0,4.91-3.18,1.37,1.37,0,0,0,.53-1.62c-.53-1.88-1.14-3.74-1.61-5.63-.33-1.35-1.47-1-2.32-1.3,2-1.48,1.53-3.22.73-5-2.3-.07-3.91,2.65-6.5,1.3,1-1.07,2.22-1.07,3.22-1.49,3.7-1.57,3.84-1.82,2.55-6.2l-6.17,3.16a1.52,1.52,0,0,0-.81,1.52c.13,2.88-.22,5.83,1.1,8.77a15.4,15.4,0,0,1,5.95-2.09c-1.33,2.08-3.78,2.54-5.83,3.91.6,2.08.07,4.68,3.25,5.23Zm-2.24-34.24.07-.08a2.57,2.57,0,0,0-1.59,2.6c-.15,2.68-.51,5.35-.64,8a14,14,0,0,0,.21,5c7.34-2.48,8.59-4.41,7.13-10.82-1.41-.35-2.08,1.67-3.73,1.08.55-1.33,1.81-1.53,2.85-2,.65-.31,1.44-.45,1.6-1.33a45,45,0,0,0,.94-5.41c.11-1.74,1.55-3.28.88-5.17-2.29.39-3.92,2.65-6.93,1.67,2.36-1,4.25-1.74,6.09-2.6,2.9-1.34,3-1.66,2.66-5.43a16.18,16.18,0,0,1-4.16,1.1c1.67-1.7,4.88-1.74,5.49-5.33a21.57,21.57,0,0,0-7.55,3.28,1.61,1.61,0,0,0-.32,2.25l0,0c.92.54,1.56-.81,2.45-.28,0,.7-.62.94-1,1.37-1.9,2.06-4.44,3.67-5,6.68-.4,1.85-1.36,3.79.53,5.4ZM448.23,200.52a9.38,9.38,0,0,0-4.7,1.07,20.91,20.91,0,0,1-5.72,2.47,37.1,37.1,0,0,0-9.5,3.88c-4,2.16-8,4.17-12.09,6.21-8.85,4.48-17.87,8.63-26.83,12.89-2.87,1.38-5.5,3.25-8.54,4.27-4.36,1.47-8.09,4.09-11.88,6.57-2.45,1.6-2.47,3.33-.27,5.4a16.44,16.44,0,0,0,6.42,3.46,54.11,54.11,0,0,1,8.27,3c13.06,6.78,26.51,12.78,39.36,20,5,2.8,10.35,5.07,15.49,7.67a11.57,11.57,0,0,0,10,.27,25,25,0,0,0,3.31-1.57c12.6-7.12,25.16-14.29,37.87-21.21,4.29-2.34,8.27-5.27,12.43-7.86a2.81,2.81,0,0,0,1.31-3.72q-2.93-9.48-5.68-19a5.23,5.23,0,0,0-2.57-3.41c-2.6-1.39-5.11-2.95-7.8-4.1-10.58-4.55-20.73-10.06-31.67-13.75C452.86,202.2,450.53,200.71,448.23,200.52Zm62.32,57.68c-8.37,4.08-15.44,13.89-16.73,22.85a17.71,17.71,0,0,0,6,16.56,88.88,88.88,0,0,0,7.56,5.83,13.57,13.57,0,0,1,5.54,9.18,19.76,19.76,0,0,1-1.18,10.83c-1.1,2.72-2.52,5.4-3.08,8.24-2.47,12.44-3,24.94,2,36.9,4.7,11.26,12.19,19.54,25.09,21.86,9,1.61,17.27-.08,25.53-3.11a2.66,2.66,0,0,0,1.87-1.87c-4.44-6.53-5.72-15.14-11.62-21.38-1-1-2-2.31-.17-3.7.92-.68.29-1.63-.13-2.31-2.23-3.62-4.6-7.14-6.4-10.72a5.27,5.27,0,0,0-2.83,1c-3.69,1.88-4.45,1.6-6-2.23-.14-.34-.24-.7-.39-1-.65-1.44-.07-2.28,1.24-2.94s3-1,4.24-2.06c.27-1.48-.5-2.65-1-3.88-1.23-3.2-2.6-6.35-3.76-9.57a7.16,7.16,0,0,0-3.69-4.32,11.44,11.44,0,0,1-6-7.15c-1.14-3.89-1.73-7.92-.65-11.95a5.44,5.44,0,0,0-.13-3.93c-2.59-5.56-4.14-11.52-6.49-17.17a152.94,152.94,0,0,1-6.77-18.71A14.25,14.25,0,0,0,510.55,258.2Zm66,120a46,46,0,0,0,15-15.51,61.41,61.41,0,0,0,7.82-22.75,33.76,33.76,0,0,0-2.71-17.9c-.66-1.58-1.44-3.13-2-4.76a34.23,34.23,0,0,0-8.63-13.9,40.89,40.89,0,0,0-12.46-8.27c-5-2.27-9.44-5.16-11.87-10.42a20.25,20.25,0,0,1-1.37-7.17c-.31-4.4-.54-8.82-2-13-1.55-4.61-3.76-9-8.13-11.39a31.86,31.86,0,0,0-11.8-3.63,18.16,18.16,0,0,0-10.73,2,7.43,7.43,0,0,0,.09,1.15q6.9,19,15.57,37.25a5.55,5.55,0,0,0,2.51,2.51c7.84,4.41,11.3,11.58,9.89,20.3a5.1,5.1,0,0,0,.11,3.23c2,4.09,3.86,8.2,5.82,12.28a1.75,1.75,0,0,0,1.47,1.11,5.1,5.1,0,0,0,.9-.39c4.94-3.25,6.41-4.38,8.16,3.84-2,1.91-4.91,2.55-7.15,4.53,1,3.43,1.91,6.83,2.8,10.25a5.09,5.09,0,0,0,2,3.33,5.6,5.6,0,0,1,2.12,4.49c.12,1.58.26,3.17.52,4.73a115.44,115.44,0,0,0,4,18.19ZM466,107.61c1,.57,2,.21,2.94.1a36.23,36.23,0,0,1,11,.39,256.12,256.12,0,0,1,51.91,15.07,17.52,17.52,0,0,0,1.49-4.89c.92-4.93,1.83-9.86,2.79-14.78.58-3,.61-3-2.17-4.55-6.4-3.61-13.73-4.38-20.55-6.7a37.59,37.59,0,0,0-6.8-1.53c-4.6-.67-9.21-1.32-13.76-2.33a188.81,188.81,0,0,0-19.2-3.18c-4.06-.46-4.66,0-5.54,4a148.67,148.67,0,0,0-2.34,17.47A3,3,0,0,0,466,107.61ZM367,245.79c-.1,3.12,1.09,5.67,1.18,8.32.11,2.88,1.75,4.4,4.14,5.42a36.55,36.55,0,0,0,3.77,1.44c11.61,3.39,21.69,10.06,32.5,15.15a18.84,18.84,0,0,1,2.2,1.32,55.87,55.87,0,0,0,9.86,4.89c4,1.53,8.14,2.67,12,4.63,2.18,1.12,4.41,2.1,6.53,3.35a11.15,11.15,0,0,0,10.51.81C462.11,286,474,280,484.46,271.5a5.53,5.53,0,0,0,1.76-1.81c3-6.29,7.93-10.79,13.75-14.43,1.82-1.14,3-2.72,3.22-5.8l-4.93,3.26c-7.39,4.82-15.13,9-22.91,13.18-7,3.75-13.88,7.77-20.82,11.65a41.55,41.55,0,0,1-7.38,3.27,12.48,12.48,0,0,1-8.29-.17,36.25,36.25,0,0,1-5.71-2.51c-8.1-4.61-16.69-8.23-24.84-12.75-3.73-2.07-7.41-4.28-11.34-6-9.88-4.4-19.64-8.94-30-13.6Zm94.21-77.46a14.41,14.41,0,0,0-.38,1.73c-.63,9.77-.84,19.56-1.91,29.3-.2,1.9.8,2.47,2.29,3.13,10.38,4.63,20.72,9.37,31.08,14,.71.32,1.37,1.11,2.26.53a2.27,2.27,0,0,0-.17-1.82q-7.59-20.07-15.17-40.14a6.21,6.21,0,0,0-4.08-3.89,69.77,69.77,0,0,0-14-2.84ZM441,414.18c-.57.06-.78-.07-.79-.38-.11-39.6,3.24-79.06,5.06-118.52a2.82,2.82,0,0,0-2.91-.4,4.26,4.26,0,0,0-.12,2.5,60.62,60.62,0,0,1-.14,14.31c-1,8.53-2,17-2.9,25.57a339.11,339.11,0,0,0-2.05,36.33c0,7.48-1.25,14.9-1.1,22.4a161.35,161.35,0,0,1-.32,18,14.44,14.44,0,0,0,0,2.94,5.57,5.57,0,0,0,3.55,4.38c1.81.86,3.3-.27,4.65-1.39a7.33,7.33,0,0,0,2.69-5.47c.08-1.71,0-3.43,0-5.14-.1-8.34-.18-16.68.27-25q.88-16,1.63-32c.58-13,.47-26,1.9-38.93a120,120,0,0,0,.65-16.52c0-.92.26-2-.61-2.7-3,.57-3,.57-3.07,3.25-.12,4.17-.17,8.34-.42,12.5-1,17.25-2.56,34.49-3.1,51.76-.49,15.69-2.16,31.32-1.94,47a12.45,12.45,0,0,1-.14,2.2C441.66,412.08,441.76,413.33,441,414.18Zm-71.29-152.1a8,8,0,0,0-.49,3.75c-.54,19.35-.49,38.73-2.28,58-.59,6.35-.76,12.72-1.29,19.07s-.52,12.73-.69,19.1c0,2.1,3.21,6,5.27,6.35a2.21,2.21,0,0,0,1.38-.27c3-1.72,6.11-3.39,5.59-7.69a12.07,12.07,0,0,1,.08-1.47c-.17-10.42,1-20.8,1-31.23,0-2.82,0-5.64.15-8.45,1.08-17,.49-34.07.74-51.1,0-.62,0-1.23-.08-1.84a2,2,0,0,0-1.34-2c-2.68-.85-5.24-2-8-2.22ZM524.5,242.31c1.24-1.06.91-2.24,1-3.28.79-7.93,1.34-15.88,2.34-23.77,2-15.55,4.41-31,6.26-46.61A279.91,279.91,0,0,1,538.59,140c2.57-11.35,5.19-22.68,8.76-33.77.83-2.56,2-5,2.85-7.56s.28-3.69-1.93-4.83c-3.21-1.67-6-.82-7.69,2.43A25.71,25.71,0,0,0,539.49,99c-2.21,5.64-2.66,11.68-3.91,17.53-2.28,10.66-3.62,21.54-6.33,32.07-3,11.82-4.48,23.84-6.12,35.83-1.83,13.35-2.64,26.82-4.74,40.14-.46,2.89.71,5.1,1.94,7.51.83-.59.6-1.24.66-1.8,1-9.87,1.69-19.78,3-29.61,1.67-12.63,3.86-25.2,5.67-37.79a312.25,312.25,0,0,1,7.09-36.77A60,60,0,0,0,538,119.6c.84-5.7,1.74-11.4,3.83-16.8.75-2,1.64-3.79-.28-5.55,1.49-1,2.62.11,3.83-.09,1-.17,2.43-1.64,3.57,1-3.69-.27-4.3,2.37-5.14,4.84a74.1,74.1,0,0,0-2.56,10c-1,5-2,10.09-3.18,15.1-2.5,11-4.8,22-6.53,33.16C529.9,172,528.51,182.8,527,193.6c-2,14.44-4.08,28.87-4,43.5.05,1.75-.33,3.67,1.46,5.21Zm-48.6-78.08c3.09-.55,5.79-2.27,8.59-3.7,4.61-2.35,5.19-4.19,3.25-8.85-4.65-11.15-9.94-22.06-13-33.81-.45-1.71-1.27-3.58-2.93-4-4.53-1.13-9.22-1.84-13.5.89-3.1,2-4.75,5.8-3.63,8.43,1.72,4,3.49,8.1,5.57,12,4.53,8.38,9.65,16.46,13.23,25.33.5,1.32.94,2.76,2.42,3.71Zm52.81-23.66a15,15,0,0,0,.67-1.8c.57-3,1.14-6,1.66-9s.39-3.3-2.39-4.39c-1-.4-2.1-.65-3.15-1-5.47-1.75-11-3.26-16.4-5.29-8.15-3.07-16.58-5.12-25-7.25a24.49,24.49,0,0,0-10.87-.44c3.52,2.73,3.65,6.72,5.28,9.69,1.88.06,2.11-1.12,2.61-2.08a3,3,0,0,1,2.95-1.8c1.57.13,1.72,1.52,2,2.7a10.78,10.78,0,0,1-.77,6.53c14.53,4.74,29.59,6.91,43.41,14.13Zm-38.4-9.88c-.6,2.45.18,4.26-1,5.77-1.71,2.21-3.18-.44-4.8-.38.51,5.94,2.09,8.17,6.25,8.89,1.13-.68,1.38-3.08,3.63-1.95,1.6.79,1.6,2.65,2.37,3.43,10.3,2,19.48,6.05,29.13,9.45.83-4.21,1.6-8.13,2.41-12.27-11.93-6.72-25.35-8.3-38-12.94Zm25.88,90.12c1.18-3.35,4.48-32.77,4.44-35.79-8.13-4.79-19.12-8.74-22.93-8,6.34,14.55,12.43,29.18,18.49,43.79ZM525.3,159a199,199,0,0,0-28-9.84c-1,1.14-1.06,2.8-2.84,3.24s-2.32-1.67-3.94-1.32c.33,2.34.64,4.46.93,6.49,11.18,2.63,21.22,7.92,32.37,11A50.4,50.4,0,0,0,525.3,159Zm-34.41,1.39c1.49,3.67,2.95,7.14,4.3,10.65a4.67,4.67,0,0,0,3.36,3c6.21,1.86,12.49,3.55,18.45,6.19,1.39.61,2.74,1.61,4.46,1.4,1.3-2.31.83-4.89,1.52-7.21.52-1.77-.25-2.63-1.93-3.29-8.2-3.25-16.33-6.67-24.54-9.89a9.32,9.32,0,0,0-5.62-.85Zm67.19,203.78c3.39,6.71,5.38,13.79,9.41,20a19.17,19.17,0,0,0,2-.77c3.12-1.55,3.39-2,2.6-5.47-1.26-5.49-2.58-11-3.89-16.45-.16-.7-.17-1.49-1-1.93-.63-.22-1.14.18-1.66.46a57.24,57.24,0,0,0-7.46,4.16Zm-99-73.87c-1.72,0-1.84.84-1.78,1.76a46.42,46.42,0,0,1-.18,6.24,134.22,134.22,0,0,0,.42,19.44,3.1,3.1,0,0,0,3.19,3h.17c1.92,0,2.79-.58,2.84-2.53.22-9.42.44-18.85-.5-28.26-.06-.58-.16-1.23-1.46-1.19-1.06,5.8.26,11.91-1.32,17.75-1.91-5.23-.91-10.72-1.42-16.21Zm0-135.8c-2.8.57-3.53,2.18-3.65,4.54-.62,12.23-1.37,24.45-2.06,36.68,0,.86,0,1.71,0,2.57s.5,1.67,1.56,1.65,1.11-.79,1.18-1.54c.05-.49,0-1,.07-1.47.49-6.1.86-12.21,1.52-18.3C458.52,170.7,458.33,162.74,459.09,154.45Zm6.8-73.61a11.39,11.39,0,0,0-2.39,5.59q-1.41,10.92-2.72,21.85c-.1.77-.44,1.71.69,2.35.91-.13,1.33-.66,1.32-1.7-.08-5.67,1.21-11.17,2.14-16.71.59-3.49,1.25-7,3.66-9.85.75-.87.38-1.6,0-2.32a3.84,3.84,0,0,0-6.66,0,9.34,9.34,0,0,0-1.26,3.43c-1.6,8.66-2.76,17.4-3.9,26.13-.1.75-.45,1.69.57,2.19,1.19-.3,1-1.28,1.13-2.08.3-2.55.4-5.14.85-7.66,1.14-6.5,1.65-13.1,3.42-19.49.43-1.71,1.25-1.66,3.15-1.69Zm-14,71.15a11.08,11.08,0,0,0-.86,4.69c-.2,3.91-.23,7.83-.48,11.74-.6,9.16-.77,18.36-2.22,27.46-.34,2.07-.2,2.11,2.54,2.22.13-1.31.28-2.63.38-4,.92-12.33,1.76-24.67,2.83-37a5.17,5.17,0,0,0-2.2-5.07ZM453,125.67c-.61,2.51.46,4.6,1.29,6.74,1.69,4.38,4.65,8.06,6.79,12.18q4.9,9.47,9.76,19c.82,1.6,1.57,3.26,3.73,3.42-6.31-14.36-14.57-27.47-21.58-41.3Zm101.7,190.57c-2.78,2.4-2.77,2.4-1.75,4.75.93,2.14,1.75,4.31,2.75,6.41.71,1.52.93,3.31,2.32,4.47,3.12-1.23,3.21-1.26,2.16-3.68C558.47,324.27,556.66,320.45,554.66,316.24ZM551,320.06c-2.77,1.61-2.83,1.63-1.91,3.82,1.27,3,2.62,6,3.95,9,.36.83.84,1.53,1.92,1.11s1.56-1.12,1.08-2.28c-1.59-3.88-2.9-7.93-5-11.65ZM534.76,274c-1.74,1.08-1.3,1.95-1,2.71q2.54,6.67,5.13,13.33c.74,1.87,1.94,1.81,3.56.69-2.87-5.45-4.65-11.29-7.65-16.73Zm19.51,84.88a2,2,0,0,0,.46-2.26,48.32,48.32,0,0,0-4.92-9.83C548.58,345,548.5,345,546,347c2.2,4.28,4.48,8.5,8.27,11.94Zm-18.52-66.57c1.8.09,2.72-.41,2.07-2.1-1.68-4.31-3.41-8.6-5.14-12.89a6,6,0,0,0-.56-.94,1.09,1.09,0,0,0-1.47-.51l-.08,0a1.08,1.08,0,0,0-.57,1.42s0,.07,0,.1ZM537,324.89c1.77,4.43,3.49,8.72,5.21,13,.35.87.84,1.5,1.92,1.12,1.34-.47,1.06-1.37.66-2.35q-2.13-5.21-4.2-10.52c-.58-1.48-1.39-2.26-3.55-1.25Zm23.38,14.8c-1.62.36-2.66.7-2.11,2.44,1.09,3.48,2.11,7,3.22,10.46.24.75.48,1.81,1.65,1.55s1.25-1.23,1.08-2.3c-.56-4.23-2.36-8.07-3.8-12.15ZM521,280.06c-.08,3.51,4.67,16.27,6.93,19.05a1.74,1.74,0,0,0,.84-2.16c-1-4.5-5.72-15.2-7.73-16.89Zm44.88,72.31c2.16-.41,2-1.35,1.64-2.56-.9-2.78-1.64-5.61-2.56-8.38-.41-1.24-.44-2.68-1.74-3.65-1,.34-2.16.7-1.66,2.18,1.43,4.13,2.9,8.23,4.36,12.41Zm-19.39-29.5c-.86.14-1.32.65-1,1.53,1.12,3.49,2.07,7.06,3.87,10.3.41.74.86,1.62,2,1.2,1.32-.51,1-1.56.59-2.47-1.33-3.16-2.7-6.3-4.07-9.45-.27-.53-.57-1.11-1.35-1.11Zm9.93,18.8c-2,.34-2.92,1-2,3,1.54,3.29,3,6.62,4.55,9.92.29.63.59,1.4,1.57,1,.17-2.53-1.92-9.59-4.08-13.92Zm-29.31-64.22c-.13.42-.41.82-.32,1.09q2.6,7.23,5.28,14.43a1,1,0,0,0,1.42.68c.73-.32.73-1.12.45-1.86-1.66-4.34-3.28-8.69-5-13A1.63,1.63,0,0,0,527.06,277.45Zm-2.51,1.29c-.49,3,4.07,15,6,17a1,1,0,0,0,.76-1.19,1,1,0,0,0-.11-.29c-2.17-5.17-3.21-10.81-6.65-15.51Zm25.38,65.89c1.59,3,3,5.69,4.44,8.39.63,1.2,1.21,2.41,1.81,3.62a1,1,0,0,0,1.24.68,1.23,1.23,0,0,0,.26-.12,1,1,0,0,0,.55-1.3.94.94,0,0,0-.12-.22c-1.74-3.65-3.44-7.32-5.17-11-.85-1.76-1.84-1-3,0Zm-8.51-20c1.69,4.05,3.32,8,5,11.91.24.57.61,1.12,1.38.86a1,1,0,0,0,.7-1.23,1.12,1.12,0,0,0-.11-.25c-1.63-3.57-2.78-7.31-4.12-11-.42-1.09-1.34-1.39-2.85-.31Zm28,29.28c-2.49.12-14.45,7.12-15.54,8.95,5.36-2.74,11.42-4.17,15.57-9Zm-82.35-53.46c2.46-1.26,4.83-1.93,6.85-3.55-.42-1.11-.6-2.18-1.91-2.86a35.48,35.48,0,0,0-6.2,3.52,1.58,1.58,0,0,0,.2,1.67C486.34,299.65,486.7,300.06,487.07,300.45Zm68.87,65.4c2.8,5.94,4.61,12.36,8.56,17.75-2.78-6-3.84-12.71-8.56-17.74ZM451.66,147c4.88-1.47,5.59-5.27,2.11-9C450.94,140.45,453,143.82,451.66,147Zm39,139.18c-2,.71-3.67,1.33-5.38,1.91-2.36.8-2.36.78-1.13,3.55,5.3-.91,6.93-2.16,6.51-5.46Zm78.57,71.65c1.57,7.18,2.61,13.65,5,19.79-.24-6.76-2.76-17.33-5-19.79ZM497.66,189.64c-1.13-2.46-2.28-5-3.49-7.52a1.16,1.16,0,0,0-.93-.36.92.92,0,0,0-.87,1v0a43.92,43.92,0,0,0,3,7.83c.3.63,1,.58,1.6.27A1.11,1.11,0,0,0,497.66,189.64Zm4.23,9.72a40.8,40.8,0,0,0-3.16-7.16c-.24-.4-.86-.36-1.34-.12s-.93.62-.78,1.1a27.13,27.13,0,0,0,3.77,7.41c.13.18.69.18,1,.09s.62-.38.52-1.32Zm-10-18.49c.59-.64,1.05-.92,1-1.13-.45-3-1.82-5.72-3.08-8.45-.23-.49-.83-.47-1.27-.2a1,1,0,0,0-.42,1.25c1.1,2.81,1.84,5.74,3.83,8.53ZM500,189.5c.14-3.39-1.69-6-2.86-8.85a.82.82,0,0,0-1.09-.39l-.16.1a1.16,1.16,0,0,0-.47.91c1,3.06,2,6.1,4.64,8.23Zm-38.59-29.89c1.58-.39,3.11.52,4.61-.36-1.16-4.61-1.19-4.64-4.16-4.55a9.87,9.87,0,0,0-.39,4.91Zm48.8,225.28c2.83,2.84,5.35.25,8.32.68-3.27-4.28-3.27-4.28-8.26-.68Zm-19-94.44c-2,.92-4.06,1.87-6.13,2.84a1,1,0,0,0-.7,1.23.85.85,0,0,0,.11.26c.21.48.6.94,1.1.77,2.31-.78,4.64-1.58,6.19-3.62C492.06,291.45,491.77,291,491.18,290.45Zm.58-120.74c-.51,2.7,1.56,7.74,3.71,9,0-3-1.81-7.42-3.71-9.05ZM495,193.45l-1.19.56a33.62,33.62,0,0,0,3.15,7.53.84.84,0,0,0,1.17.26l.11-.08a1,1,0,0,0,.39-1.27C497.45,198.09,496.23,195.78,495,193.45Zm-5.57-11.94c.12-3.39-1.79-7.84-4.16-9.48C486.17,175.8,487.11,178.91,489.46,181.51Zm-5.72,105c4-.82,5.84-1.85,7-3.86-4-.15-6.33,1.05-7,3.87ZM504,199.71c.57-3.13-1.33-7.31-3.86-8.81a20.07,20.07,0,0,0,3.86,8.82Zm3.5,183c3.1.76,4.66-1.12,6.63-2-1.45-2-1.49-2.12-2.69-1.36a12.76,12.76,0,0,0-3.94,3.37Zm-10.06-73.83a14.47,14.47,0,0,0,7.38-3.27c-1.89-1.58-1.86-1.54-3.07-.82-1.73,1-2.51,3-4.31,4Zm7.71-108c-.38.25-.72.36-.74.52-.37,2.41,1,4.32,2,6.34.17.35.61.33,1,.2a.87.87,0,0,0,.65-1,.19.19,0,0,0,0-.08c-1-2.09-1.13-4.46-2.89-6Zm-17.73-31.29c1.06-.07,1.56-.54,1.33-1.19-.76-2.17-.94-4.65-2.93-6.52-.68,2.29-.41,3.5,1.6,7.62Zm6.27,22.58a15.64,15.64,0,0,0-3.24-8.83A14.25,14.25,0,0,0,493.66,192.17ZM499,202.79c-.8,2.37.13,5.1,2.25,7.36,1.07-2,.51-4-2.27-7.36Zm65,129.35c2,.11,3.52-1.2,5.22-1.87a.91.91,0,0,0,.67-1.11.82.82,0,0,0-.15-.33,1.11,1.11,0,0,0-1.51-.44l0,0c-1.64.87-3.42,1.58-4.17,3.72ZM485,282c2.3-.9,4.86-.54,6.6-3a9,9,0,0,0-6,.51c-.74.28-.8,1.14-.59,2.49Zm7.66-7c-5.79-.34-6-.25-6.22,2.59,2.05-.72,4.8.82,6.22-2.63Zm9.23,43.18a12.69,12.69,0,0,0,7.37-5c-7.21,2.49-7.21,2.49-7.36,5Zm5.17-100.17a16.3,16.3,0,0,0,2,5.11c.35.64,1,.61,1.58.33a.88.88,0,0,0,.49-1.16v0a15.2,15.2,0,0,0-2.24-4.46c-.46-.57-1.1-.51-1.81.17Zm-19.67-35.19c0-2.5-2-7.43-3.73-9,.49,3.64,2,7.17,3.74,9Zm22.74,32.42c.51-2.27-.23-4.32-2.26-6.29-1,2.21-.11,4.62,2.27,6.25Zm-9.06-13.21c.83,2.85,1.17,5.25,3.35,7.1.49-3.38-.67-6.09-3.34-7.14Zm-18-38.56a7.22,7.22,0,0,0,2.33,6.91c0-2.6-.34-5-2.37-7Zm10.44,40.72c-.63-4.07-1.81-6.4-3.61-7.58a12.76,12.76,0,0,0,3.57,7.54Zm13.92,11.91c.37-2.23-.75-4-1.61-5.74-.3-.64-1.18-.41-1.45.21-.63,1.28,1.16,4.56,3,5.49Zm-.15,8.28a8.73,8.73,0,0,0-1.48-5.34.86.86,0,0,0-1.16-.37l-.08,0c-.26.17-.6.64-.53.86.53,1.83,1.06,3.77,3.21,4.76ZM524.55,276a8.29,8.29,0,0,0-1.08-2.93,1.07,1.07,0,0,0-1.46-.35l-.13.1c-1.18.76-.46,1.75-.16,2.6s.42,2,1.76,2a1.25,1.25,0,0,0,1-1.41Zm-30.66-70.56a11.38,11.38,0,0,0,2.78,7.7,9.07,9.07,0,0,0-2.82-7.74Zm-5.77-20.74c-.1,2.36,1.39,6.09,3.36,8.42-.25-3.35-1.72-7-3.4-8.46Zm17.34,124.5a12.43,12.43,0,0,0-5.56,1.51.87.87,0,0,0-.43,1.15l0,.08a.89.89,0,0,0,1.16.45l.06,0c1.64-.89,3.48-1.55,4.69-3.2ZM504,217.3a5.76,5.76,0,0,0-2.1-6.08c-.62,2.37.29,4.33,2.06,6Zm-22.74-88c.81,1.42.69,3,2.37,3.86a3.25,3.25,0,0,0,1.17-3.19,3.66,3.66,0,0,0-3.58-.68Zm48.19,145.15a2.77,2.77,0,0,0,.7-.18c1.19-.78.56-1.74.14-2.57s-.47-2.05-1.88-1.81a.58.58,0,0,0-.32.16c-.66.64-.36,1.35-.08,2C528.34,273,528.26,274.11,529.42,274.45ZM488.2,161.15c0,3,1.05,5.55,2.86,6.73C490.66,164.26,490,162.73,488.2,161.15Zm28.85,79.07c-.64,3-.4,3.68,1.6,5.39.87-2.26.72-2.83-1.6-5.39Zm-9-14.45c-1,1.58-.62,4.47.68,4.87a1,1,0,0,0,1.29-.59,1,1,0,0,0,0-.59,5.78,5.78,0,0,0-2-3.69Zm-22-39.22c.7,2.79,1.3,5.6,3.2,7.89-.06-3-1.48-5.53-3.21-7.89Zm22.17,123.9c-3.26.51-5,1.5-6.23,3.48C504,312.7,506.8,312.83,508.22,310.45ZM495.47,202.32a13.07,13.07,0,0,0-3.1-7.21C492.38,197.93,493.77,200.19,495.47,202.32Zm31.75,74a5.8,5.8,0,0,0-1-4.82.71.71,0,0,0-1-.22h0c-.26.19-.62.61-.56.81.44,1.35.4,2.91,2.56,4.21Zm-16.56-59.41a7,7,0,0,0,2.75,5.5C512.93,220.36,513.14,218,510.66,216.91Zm-8.33,43.82c-4.53-.78-4.53-.78-6.62.65C498,261.78,499.91,262.71,502.33,260.73Zm12.33-18.88c-1,.23-1.5.62-1.37,1.05a19.16,19.16,0,0,0,1.37,3.35.79.79,0,0,0,1.05.34.83.83,0,0,0,.21-.16c1.1-1.25-.2-2.24-.5-3.33A5.16,5.16,0,0,0,514.66,241.85Zm-4.14-10.24c-1.27,1.63-.92,4.17.47,4.53a.9.9,0,0,0,1.15-.52.87.87,0,0,0,0-.48A5.84,5.84,0,0,0,510.52,231.61ZM487.34,273a5.86,5.86,0,0,0,5.85-.7C491.16,271.85,489.14,271.38,487.34,273Zm25.88-43.79a5.23,5.23,0,0,0-.56-2.72,4.07,4.07,0,0,0-.5-1,1,1,0,0,0-1.25-.38,1,1,0,0,0-.53.45C509.88,226.76,511.4,228.77,513.22,229.17Zm-8.83-2.94c.1-3.63-.6-5.06-2.83-6.3A13.29,13.29,0,0,0,504.39,226.23Zm-3-8.11c.65-2.32-.41-4-2.44-6.1.12,2.81.71,4.61,2.4,6.1ZM483,171.45a11.64,11.64,0,0,0-2.33-6.74A9,9,0,0,0,483,171.45Zm22.42,86.62c-1.9-.54-3.84-1.42-6.07.46,2.31.65,4.21.85,6.07-.49Zm15.22-.53c-2.42.43-1.43,1.86-1,3,.27.77.89,1.24,1.71.72,1.2-.77.42-1.73.09-2.58a6.62,6.62,0,0,0-.78-1.17Zm-2.44-5.44c-1.21,1.54-1.14,3.53,0,4.24a1.24,1.24,0,0,0,1,0,1,1,0,0,0,.61-1.14,6.58,6.58,0,0,0-1.61-3.13Zm4.2,3.23a4.7,4.7,0,0,0-1-4.63c-1.95,1.51-1.82,2.27,1,4.6Zm-.65-10.94c.17-2-.35-3.76-2.54-5.6.52,2.55.68,4.39,2.54,5.57Zm-33.66,26c2.65.46,4.75.48,7.42-1.22-2.85,0-5.16-1.21-7.42,1.15Zm8.61-3.75c-3-1-3.58-.93-5.64.36,2.89.89,3.71.84,5.6-.43ZM469.58,166.38c-.69-2.56-.73-2.54-2.36-4.23-.16,1.31-.31,2.48-.44,3.56A3,3,0,0,0,469.58,166.38Zm29.68,98.14c-2.17-1.85-2.87-1.89-5.73-.6C495.29,264.71,496.91,264.68,499.26,264.52Zm-2.93-60.18c.58,3.59.83,4.22,2.85,7C498.93,208.36,498.35,206.28,496.33,204.34Zm36.38,68.28c1.66-1.27.34-2.48-.15-3.64a.83.83,0,0,0-1.1-.42l-.12.07a.91.91,0,0,0-.43,1.21h0C531.3,270.84,531.49,272,532.71,272.62Zm-23.93-35.45c.13-1.58.49-3.34-2-4.18A3.65,3.65,0,0,0,508.78,237.17Zm-9.6-17.41a7.31,7.31,0,0,0-2.35-6.5C496.66,215.89,497.51,217.56,499.18,219.76Zm7.64,12.31c-.17-3.8-.28-4-2.7-5.06.54,1.92.64,3.6,2.7,5.06Zm6.21-1.23a2.91,2.91,0,0,0,1.15,3.68,1,1,0,0,0,.89-.33c.53-1.43-.12-2.49-1.23-3.35-.07-.05-.18,0-.81,0Zm10.75,33.43c-.38-.49-.26-1.78-1.64-1.67a1.07,1.07,0,0,0-1.1,1,1,1,0,0,0,0,.17c.17.92.35,2,1.66,2,.6-.06,1.13-.46,1.07-1.52Zm-11-26.88c-.67,0-1.16.22-1.22.74a2.47,2.47,0,0,0,1.21,2.76,1,1,0,0,0,1.26-.65.93.93,0,0,0,0-.23c0-1.06-.16-2.19-1.31-2.62Zm12.59,17.27c.56-2.61-.22-3.85-1.63-5.38-.78,2.17-.08,3.46,1.61,5.38Zm-9.16-15c.93-1.5.9-3.22,0-3.73a1.57,1.57,0,0,0-1,.13.76.76,0,0,0-.45.9,3.35,3.35,0,0,0,1.43,2.65Zm-14.65-13c.22-3,.06-3.44-2.07-5.4a12,12,0,0,0,2.05,5.33Zm20.69,43.79c-.21-.86-.31-1.92-1.47-2.16a.9.9,0,0,0-1.14.57,1,1,0,0,0,0,.43c.12.9.13,2,1.36,2.25A1.17,1.17,0,0,0,522.25,270.45Zm7.39-8.45c-.42-.71-.22-2.06-1.69-1.84a.84.84,0,0,0-.76.91.51.51,0,0,0,0,.17c.23.9.25,2.1,1.69,1.91.54-.09.75-.56.75-1.17Zm12.53,80.32c-1.73-.21-3.37-.13-4.64,1.86,2.13.27,3.41-.73,4.64-1.88ZM499,305.15a7.24,7.24,0,0,0-5.17,1.74C496.11,307.69,497.11,306.45,499,305.15Zm23.82-49.33c-.62,2.28-.3,3.45,1.52,4.25C525.08,258.31,524.36,257.29,522.77,255.82Zm5.34,3.2c-.59-1.89-.48-3.49-2.93-4C525.57,256.84,525.21,258.52,528.11,259Zm31.08,75.55c2.92.06,3.18-.11,3.2-2.19C560.27,333.07,560.27,333.07,559.19,334.57Zm-30.19-69c.26.76.45,1.7,1.51,1.68a.94.94,0,0,0,1-.92.86.86,0,0,0-.05-.32c-.18-.82-.43-1.73-1.47-1.72a1,1,0,0,0-1,1,1.09,1.09,0,0,0,0,.26Zm-17.56-21.93c-.48,1.59,0,2.89,1.65,4.63a5,5,0,0,0-1.65-4.64Zm11.47,24.6c.2.79.47,1.65,1.51,1.62a1,1,0,0,0,.91-1.08.57.57,0,0,0,0-.18c-.16-.81-.37-1.72-1.46-1.64-.66,0-1,.49-.93,1.27Zm-14.08-23.89c-.25,3.05-.25,3.05,1.84,4.37A5.69,5.69,0,0,0,508.83,244.35Zm6.63-16.12a3.26,3.26,0,0,0-1.63-4.11C513.12,226,514.08,227.16,515.46,228.23Zm-1.13,31.46c-1,1.93-.36,3,1.07,4.1C516.11,262.05,515.59,261,514.33,259.69Zm2.52-.95c-.6,1.83-.4,3,1.44,3.94a3.24,3.24,0,0,0-1.44-3.94Zm-3.25.46c.68-2.3.29-3.44-1.24-4.43-.58,1.68,0,2.68,1.24,4.43Zm1.21-5.35c-.29,1.37-.37,2.74,1.63,3.5a3.22,3.22,0,0,0-1.63-3.5Zm-4.6-11.74c.94-2,.94-2-1.1-3.34a3.53,3.53,0,0,0,1.1,3.34Zm2.91,6.19c-.45,2-.26,3.11,1.19,4,.83-1.62.25-2.56-1.19-4Zm7.69.1c-.2-.7-.38-1.48-1.23-1.54-.68-.06-1.06.44-1,1.15s.27,1.48,1.16,1.51a1,1,0,0,0,1.07-.93v-.19ZM518.74,274a4.21,4.21,0,0,0,2.37,4.27c-.45-1.86-.45-3.25-2.37-4.27Zm39.72,61.12c-1.87-.43-2.79-.22-3.37,1.31,1.35.68,2.14.13,3.37-1.31Zm-38.18-69.42c-.21-.72-.31-1.68-1.41-1.66-.76,0-.94.67-.8,1.3.19.8.41,1.71,1.55,1.52.55-.09.68-.58.66-1.16Zm-2.74-32.82c-.06-1.19,0-2.45-1.61-3.13,0,1.55.39,2.56,1.61,3.13ZM503.88,232a3.91,3.91,0,0,0-1.67-4,5,5,0,0,0,1.67,4Zm12.36,15.86c-.91.57-.66,1.28-.44,2s.64,1.08,1.34.83.65-.92.45-1.51-.33-1.21-1.35-1.32Zm-8-4c.46-2.17-.23-3.12-1.41-4.41-.39,1.83.07,2.87,1.46,4.41Zm18.45,21.91c-.93.45-.7,1.16-.4,1.84s.7,1.07,1.39.74.59-1,.29-1.56-.46-1.13-1.23-1Zm-10.91-.89c-.25,1.67-.32,2.76,1.34,3.47a3.14,3.14,0,0,0-1.29-3.47Zm-3.64-11.27c.07-2,0-3.12-1.85-3.71,0,1.52.18,2.61,1.9,3.71Zm13.63,138.81a2.15,2.15,0,0,0,2.5-.27c.32-.28.24-.62-.17-1C527.16,390.83,526.36,391.06,525.77,392.45Zm-8.42-123c-.34,1.66-.18,2.69,1.4,3.48A3,3,0,0,0,517.35,269.45Zm7.44-8.12c-.45,1.53-.38,2.56,1.45,3.15.31-1.58,0-2.53-1.45-3.2Zm-18.53-22.76c-.4-2.76-.4-2.76-1.62-3.87A5.57,5.57,0,0,0,506.26,238.57ZM518,234.3c-.25,2-.37,3.16,1.26,3.91.63-1.42,0-2.33-1.26-3.91Zm4.11,10.93c-.73,1.67-.29,2.49,1,3.16.71-1.31.3-2.13-1-3.16Zm32.31,91.51c-1.58-.12-2.44.09-2.83,1.39,1.22.63,2,.18,2.83-1.39ZM457.1,146.12c1.29-1,1.61-1.79.25-2.66a1.87,1.87,0,0,0-.27,2.63l0,0Zm87,195.51c1.15,0,2.07.06,2.57-1.33-1.14-.05-2,0-2.53,1.33Zm5.93-2.41c-.06-.44-.34-.71-.7-.58a2.31,2.31,0,0,0-1.11.73c-.17.24.1.69.5.68.62,0,1.19-.16,1.35-.83Zm-17.86,53.91c-.18-.13-.36-.38-.54-.38s-.4.22-.59.35c.18.14.36.38.55.39s.43-.23.62-.36ZM481,125.13c-.06-.08-.11-.2-.19-.22a.24.24,0,0,0-.23.13c-.08.27,0,.4.3.32.1-.06.12-.19.16-.27Zm-22.33,26.5.17-.29h-.26Z"/><path class="cls-1" d="M16.4,105.62a26,26,0,0,0,7.42-5.24C32.66,92,43.31,86.45,54.11,81.11c6.63-3.27,13.72-4.43,21-4.83l3.27-.15A5.65,5.65,0,0,1,82.82,71c3.33-1,6.69-1.72,10.07-.27,2.14.92,3,2.84,3.28,5,1.28,9.72,3.88,19.2,5.07,29,2.58,21.18,4.85,42.37,6.14,63.67.43,7.09,1.55,14.14,1.38,21.27-.06,2.55-.23,5.1-.35,7.76a10.55,10.55,0,0,0,4.49,1c1.25-1.56,1.55-3.52,1.94-5.41,1.49-7.23,6.12-10.21,13.4-10.67a39.55,39.55,0,0,1,19.37,3.3,22.53,22.53,0,0,0,5.93,1.94,21,21,0,0,1,8.89,4.08c5.09,3.61,7.24,8.5,6.09,14.61-.35,1.89-1.24,3.74-.61,5.67.32.16.54.38.75.37,5.66-.3,10.85,1.63,16.1,3.33.81.26,1.63.52,2.44.82,10.45,3.93,12,11.32,7.86,21.78a10.58,10.58,0,0,0-1.08,4.52c.86,23.15,1.56,46.32,2.55,69.47.47,10.89,1,21.8,2.49,32.63a13.89,13.89,0,0,1-.69,7.25c-1.32,3.22-2.7,4.31-5.71,4.21s-5.79-1.07-7.17-4.19a11.91,11.91,0,0,1-.79-4c-1.17-16-2.15-32-1.93-48.13a164.69,164.69,0,0,0-1.48-22.74c-.58-4.64-.27-9.31-.4-14,0-1.42.36-3-.9-4.38-4.51,4.35-8.74,8.88-12.82,13.58-4.58,5.27-9.44,10.29-13.94,15.63a119.49,119.49,0,0,1-14.48,14.59c-1.22,1-1.3,2.22-1.29,3.6,0,5.52-.08,11,0,16.56.16,7.49-.68,14.94-.72,22.42-.13,23-1,46.09-.64,69.14.08,4.54.18,9.08.55,13.6.41,4.93-2.48,7.69-6.08,10.09a4.17,4.17,0,0,1-2.06.68c-4.54.18-9-3.93-9.43-8.56a117.07,117.07,0,0,1-.21-16.54c.29-5.14.32-10.3.25-15.45-.14-9.67-.26-19.35-.17-29,.17-18.16.47-36.3,1.72-54.42.08-1.22.12-2.45.15-3.67.1-4.52.09-4.52-5.16-5.18-.62,1.72-.3,3.55-.26,5.32a10.92,10.92,0,0,1-3.61,8.85,5.11,5.11,0,0,1-4.63,1.48,17.19,17.19,0,0,1-7.79-3.94c-1.38-1.1-1.44-2.75-1.46-4.38,0-4.29,0-8.58.4-12.86.16-1.84-.08-3.5-2.7-3.75C94.3,298.19,93.09,300,91,301c-4.1,2-8.08,1-10.53-2.85a8.89,8.89,0,0,0-1.23-1.81c-3-2.89-3-3.54-1-7.24a2.23,2.23,0,0,0,.14-.67c-2.52-1.85-28.74-13.32-31.74-13.87-.88.74-.59,1.79-.59,2.71,0,18-2.6,35.69-4.56,53.47a116.71,116.71,0,0,0-1.14,15.4,36.16,36.16,0,0,1-.78,6.56c-1.11,6.56-.8,13.21-1.39,19.81a189.12,189.12,0,0,0-1,23.92,13.87,13.87,0,0,1-3,8.54c-1.73,2.39-4.41,3-7.2,2.92a13.65,13.65,0,0,1-3.94-.83c-3.39-1.16-4-2-4-5.65a149,149,0,0,1,1.48-21.63c.88-6,.7-12,1.46-17.94,1.77-14.16,3.64-28.27,4.75-42.41.9-11,2.92-21.88,3.4-32.91.23-5.27.34-10.54.48-15.81a9,9,0,0,0-1.2-5.26c-1.65-2.68-1.91-5.86-2-8.89-.26-7.78-2.26-15.27-3.52-22.87-3.46-20.79-7.45-41.49-10.58-62.34a229.94,229.94,0,0,0-6.57-31.28C4.39,132,3,123.63.72,115.47c-1.83-6.66-.23-10.26,5.43-14.2,3.78-2.64,6.92-1.94,9.15,2.07C15.66,104,15.92,104.62,16.4,105.62ZM88.15,276.06c-.51.51-.33,1.18-.41,1.79-2.59,1.11-3.07,2.66-1.64,5.81,1.16-1.86.63-4.09,1.66-5.84.14-.62.28-1.24.41-1.88Zm30.51-52.12c.67-2,2.12-3.49,3.19-5.23.57-.93,1.28-1.89-.55-3-1.28,2.62-4.6,4.37-2.53,8.11-.3,0-.24-.22-.1-.13C119.07,224,118.66,223.45,118.66,223.94ZM99.53,294.67c-1.88-.64-1.45-2.8-2.47-4.15-1.56,3.58-1.14,4.19,2.59,4.07.16.31.25.79.51.9,5.9,2.7,11.71,5.64,17.76,8,5.79,2.21,11.74,2.63,17.18-1.32a57.22,57.22,0,0,0,6-4.87c7.82-7.44,14.71-15.74,22-23.65,10.24-11,20.54-22,28.79-34.75,2.08-3.21,2.19-6.39,1.49-10-2.09,4.37-6,7.18-8.74,10.87a129.32,129.32,0,0,1-11.7,13.68c-3.54,3.54-7.11,7.09-10.53,10.75a214.51,214.51,0,0,1-27.47,24.87,22.33,22.33,0,0,1-17.28,4.53,49.42,49.42,0,0,1-14.27-4.54c-1.28,3.85-1.29,3.86-3.87,5.61Zm51-66.15c-1.31-.07-1.88-1-2.78-1.4-2.69-1.12-4.36-.15-4.48,2.71-.08,1.83,0,3.67,0,5.51,0,1.49.14,3.08-2.2,2.9-1-.07-1.42.84-1.81,1.61a11.48,11.48,0,0,0-1.1,5.71,25.87,25.87,0,0,1-1.28,8.69,15.83,15.83,0,0,1-13.44,10.42,43.75,43.75,0,0,1-14.16-1.76c-1.76-.48-3.52-.76-4.7-2.84-3.76,4.89-6.52,9.68-6.29,15.65.13,3.31,1,3.88,4.26,3.3.75-.13,1.46-.26,2,.4a2.65,2.65,0,0,1,.14,2.43c-.42,1.44-2,2-2.77,3.39a39.71,39.71,0,0,0,12.67,5.3c7.54,1.75,14.31.52,20.24-4.73,3.75-3.33,7.59-6.57,11.56-9.65,6.61-5.13,12.19-11.35,18.25-17.06a200.31,200.31,0,0,0,13.8-14.75c3.19-3.71,5.91-7.81,9.37-11.32a15.89,15.89,0,0,0,2.64-3.52c3.76-6.81,3.27-7.33-3.41-10.34-5.14-2.31-10.79-3.14-16.33-4.16a4.6,4.6,0,0,0-3.56.32c-1,5.11-4.78,7.63-9.73,8.95a13.09,13.09,0,0,0-6.93,4.24ZM39.47,256.45a103.18,103.18,0,0,0,12.94,5.43,66.66,66.66,0,0,1,12.5,5.28,146.23,146.23,0,0,0,16.72,7.6c1.14.46,2.4,1.5,3.66.27.61-1.22-.77-1.7-.82-2.72a3.52,3.52,0,0,1,2.23-3.79c2-.68,1.37,1.58,2.69,2.22,2.14-6.16,5.7-11.57,8.36-17.13a2.86,2.86,0,0,0-1.3-1.67c-6.13-4.76-7.72-16-.35-22.35,2.23-1.92,4.43-3.86,6.8-5.61,1.5-1.11,2.68-2.37,2.25-4.61-.62-3.27-.5-3.29,3.07-2.8,2.77.38,4-.28,5.56-3.17a4.34,4.34,0,0,1-2.79-3.5,10.8,10.8,0,0,0-1.2-2.66c-1.45-2.64-1.47-2.69.76-4.94.37-.37.63-.7.46-1.24-2.35-.84-2.35-.79-4.2-.55-6.45.84-12.2,3.62-17.78,6.69C77,213.82,66,222,55.19,230.53c-3.55,2.81-7.3,5.38-10.54,8.58-1,1-1.82,2-1.54,3.5a15,15,0,0,1-3.24,12.71A5.62,5.62,0,0,0,39.47,256.45Zm3-18.69a20.06,20.06,0,0,0,4.4-3.54A57.29,57.29,0,0,1,54.09,228c6-4.41,12-8.86,18.17-13.11,5.74-4,11.49-8,17.82-11,2.89-1.34,3.57-3,3.61-5.89.16-10.08-1-20.06-2.16-30-.11-.93.13-2-.92-2.91a126,126,0,0,0-17.67,7.72c-7,3.75-13.89,7.77-21.08,11.2-5.2,2.49-10,5.78-14.88,8.77a2.38,2.38,0,0,0-1.39,2.7c.76,5.08.61,10.31,1.88,15.3,1.77,6.91,2.58,14,3.56,21a23.82,23.82,0,0,0,1.42,6ZM24.15,134.45a4.16,4.16,0,0,0,2.72-.9c8-3.65,15.3-8.77,23.6-11.9,6.53-2.46,12.59-6,19.21-8.29,5.54-1.92,10.93-4.26,16.42-6.34,1.52-.57,2.56-1.27,2.45-3.12A80.4,80.4,0,0,0,84.75,83a3.35,3.35,0,0,0-2.47-2.39,27,27,0,0,0-16.62-.06,128.68,128.68,0,0,0-21.79,9.63,120.35,120.35,0,0,0-24.39,17.53,3.45,3.45,0,0,0-1.08,4.21,80.33,80.33,0,0,1,2.08,8.53C21.6,125.22,22.94,129.91,24.15,134.45ZM41.2,244.75c-.19-1.2-.36-2.41-.57-3.62-2.14-12.43-4.37-24.84-6.39-37.29-1.18-7.24-1.71-14.6-3.1-21.8-3.13-16.22-6.61-32.38-10-48.56-1.92-9.23-4.51-18.29-7.33-27.28-1.09-3.5-3.37-4.47-6.42-2.53-3.42,2.18-5.34,4.84-4.17,9.18,2.33,8.63,4.09,17.41,6.44,26a320.46,320.46,0,0,1,7.46,34.82c.94,5.92,1.08,12,2.34,17.84,2.35,11,4.25,22.12,6.4,33.17,1.55,7.92,3.06,15.87,4.12,23.88.36,2.75,2.08,3.72,4.27,4.36,2,.59,3.43-.09,4.85-2.37,1.13-1.7,2.22-3.52,2.1-5.77Zm82.53,63.08a5.81,5.81,0,0,0-.69,3.24c-.43,9.67-.79,19.33-1.27,29-.74,14.93-.43,29.87-.67,44.81-.19,11.75.19,23.5.37,35.25,0,2.93.2,5.86.45,8.78a5.84,5.84,0,0,0,5.7,5.24c3.11.24,4.81-1,5.75-4.32a23.68,23.68,0,0,0,.66-6.55q-.19-34.36.49-68.72c.09-4.77-.27-9.58.18-14.31,1-10.65.43-21.31.74-32,0-.89.35-1.94-.77-2.86-3.51,1.58-7.13,3.06-10.94,2.47ZM33.27,269.12c-.81,1.46-.53,2.71-.56,3.91-.12,5.27.23,10.6-.4,15.8-2.13,17.89-3.55,35.86-5.78,53.74-2,16.17-3.39,32.41-4.48,48.68-.2,2.93-.16,5.88-.15,8.82a3,3,0,0,0,2.65,3.31h.11c5,.85,9.1-2.19,9.51-7.2.29-3.54.36-7.1.7-10.64,1.22-12.94,1.88-25.91,3-38.86,1.18-14.18,2.9-28.28,4.49-42.41,1.08-9.64.91-19.35,1.68-29a2,2,0,0,0-1.38-2.35C39.52,271.67,36.38,270.39,33.27,269.12ZM30.92,165.74a12.41,12.41,0,0,0,1.49-.5c14.62-7.17,29.21-14.41,44.47-20.17a57.39,57.39,0,0,0,12-6.34c1-.7,2.14-1.32,2.08-2.78-.1-2.57-.08-5.16-.41-7.7s-1.59-3.58-4.31-3.34a25.24,25.24,0,0,0-7.18,1.54c-6.81,2.72-13.66,5.38-20.33,8.44-8.15,3.75-15.42,9.06-23.47,13a35.81,35.81,0,0,0-5.79,3.18,2.34,2.34,0,0,0-1.23,2.42C28.94,157.59,29.36,161.73,30.92,165.74Zm77.24,88.39c2.84,1.37,5.69,1.59,8.36,2.39,7.34,2.19,12.68-.43,15.81-7.41,1.69-3.78,2-7.79,2.31-11.82.19-2.71.32-5.43,2.48-7.47.89-.84.5-1.82.42-2.76a8.39,8.39,0,0,1,3.07-7.13c3-2.77,6.18-3.86,9.84-1.69,2.5-2.12,5.53-2.59,8.07-4.05a13.43,13.43,0,0,0,6.3-6.72c-5.91,2.15-9.08-1.36-12.11-4.77-3.45-3.87-3.86-8.22-1-12.86a7.18,7.18,0,0,0-4.32-1.31c-.8,1.62-1.58,3.27-2.44,4.88-1.88,3.52-4.17,7-5.7,10.52a83.25,83.25,0,0,1-13,21.18c-1,1.19-2.08,2.43-1.44,4.27.3.86-.2,1.61-.64,2.39a26.46,26.46,0,0,1-4,4.71C115.24,241.7,111.91,248,108.16,254.13Zm-5-56.57c1.83.51,2.63.19,2.71-1.1.09-1.47.14-2.94.11-4.41-.45-19.62-1.65-39.19-3.87-58.7-.74-6.57-1.09-13.19-1.93-19.75-1.27-10-2.78-19.9-4.76-29.76-.54-2.64-1.19-5.25-1.79-7.88-.51-2.25-2-3.16-4.21-3.36A16,16,0,0,0,83,73.83c-.84.28-1.64.65-1.58,1.73,0,.9.8,1.15,1.49,1.41,1.38.52,2.59,1,3.16,2.72a105.67,105.67,0,0,1,4.89,26c.13,1.65,0,3.21-1.67,4.13-1.08.58-1,1.53-.82,2.56.26,1.44.46,2.9.66,4.36.41,2.94,0,6.1,2.75,8.34a3.3,3.3,0,0,1,.8,2.42c-.14,4.44,1.74,9-.8,13.31a2.71,2.71,0,0,0-.06,1.44c.24,2.79.55,5.46,2.06,8,2.07,3.55,3.29,7.73,1.4,11.6a12.31,12.31,0,0,0-1,7c.83,9.52,1.76,19,2.07,28.61,0,.94-.2,2,.51,2.79,4.51-.82,4.55-.84,4.57-4.88a108.33,108.33,0,0,0-.46-15.07c-.57-4.37-1.16-8.75-1.57-13.14-1-10.25-1.67-20.53-2.73-30.77S94,115.67,93,105.34C92,95.67,90.41,86.17,87.15,77c-.6-.54-1.37-.47-2.08-.63s-1.16-.55-1.09-1.25.69-.9,1.34-1c1.66-.12,3.31-.27,4.54-.37,1.42,10.51,4.53,20.47,5.43,30.76s2.83,20.42,3.58,30.68,2.25,20.73,2.55,31.15,2.24,20.7,1.78,31.17Zm88.37,46.76c-.28,0-.62,0-.72.12-2.63,3.38-5.22,6.8-7.86,10.18a3.61,3.61,0,0,0-.61,2.76c1,10,1,20.05,1.91,30.07.94,10.86.67,21.79.91,32.7.2,9.18.6,18.36,1.55,27.51.28,2.77,1.39,3.78,4.51,4.42a4.68,4.68,0,0,0,5-2.35c.87-1.48.6-3.08.46-4.66-1.81-19.9-2.61-39.85-3.27-59.81q-.63-19.11-1.32-38.21c0-.92.23-1.94-.52-2.73ZM85.84,111.51a5.15,5.15,0,0,0-2.82.38A210.24,210.24,0,0,0,53.47,124c-3.4,1.68-6.86,3.26-10.3,4.85-5.44,2.52-11.06,4.71-15.84,8.47-1,.76-2.14,1.33-1.79,2.88.59,2.58.9,5.25,2.19,8.13,19.17-10.46,37.84-21.55,59.18-27A49.87,49.87,0,0,0,85.84,111.51ZM35,189.7a8.29,8.29,0,0,0,3.5-1.5c3.5-2,6.93-4.16,10.47-6.1,4.5-2.47,9.26-4.51,13.58-7.26a79,79,0,0,1,12.74-6.39c5.2-2.11,10.31-4.48,15.5-6.63a4.14,4.14,0,0,0,2.79-4.61,16.31,16.31,0,0,0-.46-3.26c-.89-3.08-2.05-3.63-5.1-2.48-6.22,2.32-12,5.57-17.76,8.77-9.52,5.28-18.57,11.38-28.53,15.88a56.7,56.7,0,0,0-6.56,4c-.85.53-1.72,1.12-1.43,2.3C34.33,184.79,34.15,187.28,35,189.7Zm47.38,88.39c-17.25-8-34.46-15.78-52.11-22.68-1.09,5.73.42,9,5.18,11.21.66.31,1.35.56,2,.83,5.32,2.18,10.69,4.24,15.94,6.56,9.28,4.1,18.63,8,27.68,12.63A3.77,3.77,0,0,0,83,284.86a.81.81,0,0,0-.27-1c-.94-.15-1.26,1.22-2.26.92C78.6,281.62,78.86,280.63,82.41,278.09Zm6.32-135.57a2.85,2.85,0,0,0-1,.18,100.57,100.57,0,0,1-13.3,6.23c-14.16,5.89-27.5,13.45-41.32,20-.91.43-1.86.86-1.67,2.09A23.25,23.25,0,0,0,33,177.75a5.8,5.8,0,0,0,2.82-1.15c11.19-6.86,23-12.51,34.42-19a117.5,117.5,0,0,1,18.12-8.9A2.09,2.09,0,0,0,90,146.26a1.61,1.61,0,0,0-.1-.36C89.6,144.79,89.86,143.45,88.73,142.52Zm30.76,66.21c-.25-.92-1.12-1-1.63-1.49a1.84,1.84,0,0,1-.5-2.55l0-.06a2,2,0,0,1,2.63-.53,2.68,2.68,0,0,1,1.9,2.82c-.08,1.07-.27,2.13-.42,3.2l.61.41c2.89-3.87,6.48-7.13,9-11.28.13-.2.32-.47.28-.66-.54-2.76,1.49-3.87,3.24-5.21,1.56-1.18,3.07-2.43,4.54-3.72.89-.78,2.08-1.38,2.07-3.15a32.31,32.31,0,0,0-16.1-.8c-4.48,1-7.2,3.39-8.24,7.8-.9,3.78-1.9,7.53-4.62,10.72a8.41,8.41,0,0,1,3.82,3.64c.7,1.48.26,3.3,1.31,4.86A5.62,5.62,0,0,0,119.49,208.73Zm-11.83,10.32c.1,3.32-1.54,5.18-3.66,6.8a41.86,41.86,0,0,0-8.22,7.79c-3.91,5.17-2.26,13.47,3.45,16.88q7-11.33,14.08-22.66c.61-1,1.07-2.28.57-3.13-1.35-2.3,0-3.95.91-5.77a10.86,10.86,0,0,0,1.75-4.31C114.06,217.74,111.45,219.3,107.66,219.05Zm.59,94.95a2.35,2.35,0,0,1-1.72-2.08,38,38,0,0,1-.72-7.67c0-3.93-.06-3.93-4.8-4.66-.38,3.6-1,7.2-1.09,10.81-.17,6.59-.31,5.05,4.82,8.22,3.62,2.25,7,.54,8.08-3.66.58-2.31.34-4.64.34-7,0-4.35-.36-4.73-5-5.63-1,3.79,1.23,7.63.11,11.67Zm1.81-53.07c4.68,1.08,9.44,2,14.37,1a14.11,14.11,0,0,0,8.55-5.31,9,9,0,0,0,2-7.5c-5.58,12.09-14.69,11.63-24.55,8.47a5.4,5.4,0,0,0-.35,3.34ZM87.92,286.8c-3.09,2.51-2.82,5.79-1.38,9.8-2.43-1.25-2.3-2.89-2.34-4.54s.91-3.37.55-5.36c-2.83,2.74-3.63,6.3-2.25,9.09,1.24,2.52,3.34,3.8,5.47,3.35,3.32-.69,4.24-1.51,4.42-3.9a.86.86,0,0,0-1-.3c-3,.75-3.68.19-4.29-2.77-.39-2,1.21-3.39.84-5.37Zm63.57-63.11a39.6,39.6,0,0,1,7.57-2.53c3.92-1.06,5.9-4.18,5.34-8.31a29.48,29.48,0,0,1-10.16,5.66c-2.07.71-2.84,2.42-2.73,5.18Zm-2.92.56c.8-1.66.83-2.76-.22-3.79-.61-.59-1.11-1.37-2.11-1.22a7.28,7.28,0,0,0-4.8,3.11,4.71,4.71,0,0,0-.41,5.18,7.23,7.23,0,0,1,7.56-3.28Zm-22.81-15.59c1.26.84,2,.62,2.57.18,2.62-2.24,4.27-5.24,6.15-8.05a.89.89,0,0,0-.35-1.22l0,0a1,1,0,0,0-1.3.24l-7,8.88Zm-2.89,17.85a25.19,25.19,0,0,0,6.67-7.92c-.9-1-1.78-1.16-2.23-.52-1.82,2.59-4,5-4.42,8.44Zm-29.7,51.22c-1.87,3.19-2,4.83-.43,8.7,2-1.8,2-1.93.45-8.7Zm44.2-40.49c1.19-.76,2.14-1.26,3-1.91s.69-1.73.45-2.66a1.18,1.18,0,0,0-1.4-.85,2.1,2.1,0,0,0-1.76,1.63,6.08,6.08,0,0,0-.27,3.79ZM125.71,217.1c-3.27,2.17-5.14,5-5.53,7.85,2-1.2,3.75-3.5,5.55-7.85ZM136.3,201c-2,1.74-5.06,6.72-5.35,8.73,2.05-1.29,4.87-6,5.37-8.73ZM91.43,275.89c-2.21,2.34-3.08,6.89-1.81,9.22,1.3-1.41.49-3.07.7-4.53s1.28-2.87,1.13-4.69Zm41.93-64.64a11.35,11.35,0,0,0,3.83-7.76A27.53,27.53,0,0,0,133.36,211.25ZM89.72,288c-1.18,2.51-1.18,2.51-.3,5.38a3,3,0,0,1,2.42-2.72A2.59,2.59,0,0,0,89.72,288Zm10.11-.06a3.25,3.25,0,0,0-3.19-2c.33,2.08,1.29,2.52,3.19,2Zm7.71-28.48c.77-1.1.87-1.95-.1-2.65a.61.61,0,0,0-.85.16l0,.09C106,258.08,106.29,258.82,107.54,259.45Zm-7.8,23.47c-.17-.54-.41-1.08-1.16-1a.68.68,0,0,0-.66.7h0a1.16,1.16,0,0,0,1.23,1c.4,0,.65-.17.59-.69Zm13.83-72.16c.24-1.26.39-2.15-1-2.25a1.58,1.58,0,0,0,.67,2.13,1.33,1.33,0,0,0,.33.13Zm16.09,1.17c-1.43-.25-1.78.4-1.77,1.35,0,.13.34.39.47.37C129.12,213.45,129.48,212.9,129.66,211.93Zm-4.07.92c-.14-.16-.27-.45-.42-.46a.66.66,0,0,0-.77.5s0,.06,0,.09c0,.37.09.74.57.64a.82.82,0,0,0,.6-.77Zm4.88,1.55c0,.09-.12.23-.09.27.16.22.29.15.3-.17,0-.05-.17-.05-.24-.05Zm-37.27,78a.3.3,0,0,0-.16-.24c-.07,0-.17.07-.26.11l.28.4Z"/><path class="cls-1" d="M445.32,283.93c2.1,2,2.29,3.52.72,5.93C444.25,287.5,444.12,286.45,445.32,283.93Z"/><path class="cls-1" d="M371,366.55c-1.14-1.24-.77-2.77-.7-4.16.51-11.5,1.15-23,1.63-34.5.3-7.1.51-14.2.54-21.31.06-12.74.65-25.47,1.31-38.19.06-1.12-.24-2.41.94-3.4,1,3-1.17,87.55-2.47,99C372.1,365,372.16,366,371,366.55Z"/><path class="cls-1" d="M471.66,123.83c.08-1,.47-1.48,1.14-1.43,1.06.07,1.38.91,1.29,1.81a1,1,0,0,1-1,1l-.23,0A1.35,1.35,0,0,1,471.66,123.83Z"/><path class="cls-1" d="M469.24,142c0,.86-.21,1.44-.91,1.56-1,.16-1.24-.6-1.31-1.33,0-.58.07-1.3.83-1.38C468.77,140.74,469,141.55,469.24,142Z"/><path class="cls-1" d="M462.15,129.53c-.12.65-.33,1.19-1.08,1.18a1.28,1.28,0,0,1-1.42-1.12,1.4,1.4,0,0,1,0-.5,1.18,1.18,0,0,1,1.16-1.2,1,1,0,0,1,.3,0C462,128.08,462.13,128.82,462.15,129.53Z"/><path class="cls-1" d="M484.44,149.37c-.12.52-.34,1-.9,1a1.11,1.11,0,0,1-1.16-1.06v-.1c0-.66.34-1.24,1.08-1.15S484.4,148.73,484.44,149.37Z"/><path class="cls-1" d="M477.55,136.14a1.25,1.25,0,0,1,1.4,1.31c0,.84-.35,1.16-1,1.08a1.25,1.25,0,0,1-1.18-1.13,1,1,0,0,1,.69-1.24Z"/><path class="cls-1" d="M475,153.85c0,.73-.3,1.16-1,1.2a1.06,1.06,0,0,1-1.19-.91.28.28,0,0,1,0-.09,1,1,0,0,1,.77-1.19l.23,0C474.52,152.76,474.78,153.32,475,153.85Z"/><path class="cls-1" d="M498.15,348.58c1.22-1.62,2.63-2,4.16-3.3C501,347.65,501,347.65,498.15,348.58Z"/><path class="cls-1" d="M502.46,336.25a3.75,3.75,0,0,1-3.14,2.22A5,5,0,0,1,502.46,336.25Z"/><path class="cls-1" d="M500.71,333.79c.28.19.43.11.43-.23,0-.06-.14-.14-.22-.18-.45-.2.28,0-.13.28Z"/><path class="cls-1" d="M498.86,335.76c.07-.06.19-.15.18-.18-.09-.25-.14-.22-.11.09Z"/><path class="cls-1" d="M500.79,333.66v.21c.15-.14.12-.17-.11-.09Z"/><path class="cls-1" d="M501.94,368.45H500c1.42-1.84,3-2.24,5.08-3.11-1,1.79-2.46,2.14-3.26,3.19Z"/><path class="cls-1" d="M501.84,368.53c.46,0,1,.12.88.68-.23.78-1,.82-1.69.71l.07.08c0-.69.58-1,.84-1.55Z"/><path class="cls-1" d="M498.23,300.74a9.76,9.76,0,0,1-7.53,3C492.66,301.38,495.35,300.83,498.23,300.74Z"/><path class="cls-1" d="M514.58,384.17c-.53.84-1,1.48-2,1.09C512.66,383.86,513.57,384.07,514.58,384.17Z"/><path class="cls-1" d="M4.66,109.74,9.34,107c-.55,3,.46,5.5,1.16,8,1.31,4.72,2.66,9.43,4,14.14a231.85,231.85,0,0,1,5.65,26.2c1,5.94,2.71,11.7,3.57,17.64,1.8,12.37,4.74,24.54,6.7,36.86s4.72,24.54,6,37c.11,1,.54,2.15-.48,3.23-1.82-.3-1.76-1.86-1.94-3.05q-.84-5.44-1.42-10.93a88.31,88.31,0,0,0-2.22-12.28,56.08,56.08,0,0,1-1.93-11.21c-.15-3.56-1.23-7-1.87-10.47-2-11.08-3.81-22.21-5.9-33.28s-4.45-21.83-6.6-32.75c-1-4.83-2.89-9.37-4-14.15-.56-2.51-1.37-5-1.79-7.5-.31-1.86-.83-3.26-2.88-3.67C5.14,110.71,5,110.21,4.66,109.74Z"/><path class="cls-1" d="M129.43,310.83c.19,4.75,1,8.87.48,13-1.53,13.08-1.32,26.18-.68,39.29.24,4.79-.09,9.56-.25,14.34-.21,6.48.06,13,.11,19.49q.12,15.63.19,31.27c0,1.16.34,2.44-.57,3.36-1.24.19-1.39-.6-1.48-1.31a45.46,45.46,0,0,1-.32-7c.39-15.21-.07-30.42.21-45.62.25-13.5-.72-27-.51-40.45,0-2.71.29-5.38.53-8.07.42-4.63,1.11-9.25.83-13.93A4.91,4.91,0,0,1,129.43,310.83Z"/><path class="cls-1" d="M27.52,401.24c-1.46-1.22-1-2.66-1-3.91-.13-7.25.88-14.42,1.3-21.63.65-11.25,1.87-22.45,2.37-33.72.31-7,1.76-13.84,2.38-20.79,1.28-14.14,3.66-28.2,3.42-42.47,0-1.37-.53-3,1-4.08,1.55,1.05,1,2.65,1,4,.13,9-.76,17.85-1.61,26.76-1.57,16.58-4.17,33-4.91,49.72C31,366,29.73,376.85,28.9,387.72c-.25,3.29-.22,6.61-.38,9.91C28.5,398.8,29,400.12,27.52,401.24Z"/><path class="cls-1" d="M132.82,224.93c1.51-3.75,1.51-7.49,3.24-10.76a11.79,11.79,0,0,1,3.3-4.3,5.1,5.1,0,0,1,3-1.08c1.43,0,2.4.59,2.43,2.12s-1.05,2.09-2.43,2a6.55,6.55,0,0,1-1.66-.58c-1.34,1.35-3.06,2.35-2.31,4.64a1.11,1.11,0,0,1-.34,1c-2.35,1.67-2.44,4.37-3.17,6.79a11.2,11.2,0,0,1-1.83,3.57,2.46,2.46,0,0,1-3.2,1,1.94,1.94,0,0,1-1.16-2.41,2.38,2.38,0,0,1,2.54-2.14A13.16,13.16,0,0,1,132.82,224.93Z"/><path class="cls-1" d="M193.52,345.18c-1.71-.44-1.57-1.32-1.67-2-4-27.84-3.22-55.93-4.27-83.93a3.21,3.21,0,0,1,1.15-3.17c.92,15.16,2.05,29.8,2.11,44.51S193.2,330.12,193.52,345.18Z"/><path class="cls-1" d="M414.35,148.26c-3.83-4-8-7.61-13.19-9.81L393.07,135c-.17-.07-.52-.16-.52-.16s-30.25-6.05-34.39-6.18a54.25,54.25,0,0,0-8.17-1.18c.12-1.84.24-3.69.43-5.51.15-1.66.48-3.22.67-4.94a46.82,46.82,0,0,0,.43-5.16q.32-4.45.61-9V72.52c0-2.12.13-4.27,0-6.39-.15-2.65-.56-5.29-.72-7.94a28.34,28.34,0,0,0-1.46-7.9c-.33-1-.5-2-.87-2.89a31.51,31.51,0,0,0-6.94-10.31,37.75,37.75,0,0,0-4.8-3.84,22.79,22.79,0,0,0-6.55-3.61,1.53,1.53,0,0,1-1.11-1.48c0-.33,0-.66,0-1-.1-.53.11-.73.63-.73,1.32-.08,2.66-.15,4-.28a2.8,2.8,0,0,0,2.63-1.44,21.87,21.87,0,0,0,2-7,51.9,51.9,0,0,0,0-6.11A2.57,2.57,0,0,0,336.89,9c-2.2-.25-4.4-.49-6.6-.69C329,8.15,328.8,7.89,329,6.66c0-.12.13-.21.13-.32a3.93,3.93,0,0,0,0-.84c0-.41-.2-.82-.2-1.23a11.36,11.36,0,0,0-.24-1.16A2.58,2.58,0,0,0,326,1.55c-1.64-.11-3.05-.09-4.92-.24s-3.72-.6-5.59-.6C309.58.47,303.71.15,297.82.15c-10.21,0-20.48-.52-30.71.37-1.75.15-3.62.3-5.48.3-4.32.24-8.69,0-13,.49-1.86.24-3.61,0-5.59.11s-4,.2-5.93.45c-1.3.15-2,.82-2,1.86a9.09,9.09,0,0,0,.3,1.25c.23,1.19.47,2.38.64,3.58a.75.75,0,0,1-.43.46c-1.38.28-2.78.43-4.14.73a4.11,4.11,0,0,0-3.19,1.86c-.61,1-.13,2,0,3,.3,1.59.64,3.15.92,4.81.26,1.21.55,2.46.78,3.73a12.71,12.71,0,0,1,.37,2.89c-.15,1.32.37,2,1.72,2h2.46c.18,0,.54.15.54.3a2.48,2.48,0,0,1-1.22,3.07c-2.46,1.48-4.95,2.93-7.45,4.42A30.74,30.74,0,0,0,220.05,41a19.57,19.57,0,0,0-2.72,3,34.72,34.72,0,0,0-4.05,10.24c-.3,1.26-.44,2.44-.65,3.72a26,26,0,0,0-.58,3.88c-.15,3.35-.31,6.56-.31,9.77v32.72c0,1.87,0,3.54.09,5.28l.17,6.19c.09,4,.15,7.92.28,11.87,0,.19,0,.36,0,.55-8.2,1.92-16.65,4.49-24.73,6.84-2.91.84-21.6,7-22.81,7.57a52.88,52.88,0,0,0-11.65,7.64,17.64,17.64,0,0,0-6.52,15.62,29.64,29.64,0,0,1,.37,5.49c-.61,6.2,2.81,10.15,7.27,13.54a22.59,22.59,0,0,0,4.13,2.38c15.36,7.19,31.13,13.2,47.71,16.95,5.06,1.16,10.22,1.28,15.31,2,12.26,1.75,24.53,3.34,36.92,3.87,4.64.2,9.22.71,14.22,1.11,0,2.61,0,4.8,0,7q.16,21.88.38,43.77c0,1.71.16,3.43.27,5.14,1,15.81.47,31.63.47,47.45v1.1a4.42,4.42,0,0,1-3,4.21c-2.08.74-4.15,1.52-6.26,2.15a149.49,149.49,0,0,0-14.53,5.2c-10.67,4.44-19.58,11.08-26.19,20.65-4,5.82-5.53,12-3.27,18.82a31.75,31.75,0,0,0,5.41,9.56c5.84,7.45,14.11,10.86,22.84,13.16a145,145,0,0,0,34.2,4.31,95.08,95.08,0,0,0,26.9-3.37c12.87-3.48,22.79-10.3,29.07-22.76,5.08-10.07,1.42-24.61-7.32-31.19a57.68,57.68,0,0,0-16.79-9c-7.22-2.37-14.47-4.63-21.71-6.94-3.62-1.16-4.1-1.77-4-5.52.17-5.15.28-10.3,0-15.45-.58-10.54-.4-21.08-.29-31.62.18-18.05,1.7-36.05.76-54.05a2.14,2.14,0,0,1,1-2.22c4.7-.14,9.7-.35,14.7-.44a190.23,190.23,0,0,0,48.61-7,327.29,327.29,0,0,0,41.13-14.82c7.52-3.28,13.83-8.37,19.83-13.79a4.35,4.35,0,0,0,1.75-3.11c.12-4.43,1.37-8.69,1.68-13.12A13.72,13.72,0,0,0,414.35,148.26ZM327.64,16.12c.25-1.47.54-2.92.82-4.39.12-.53.36-.64,1-.64,2,.28,4.09.47,6.12.73a.65.65,0,0,1,.43.48,21.42,21.42,0,0,1-1.49,10.44c-.1.22-.4.52-.6.52-2.44.13-4.87.28-7.31.28C327,21,327.29,18.64,327.64,16.12ZM240.12,4.34c3.08,0,6.15.08,9.21-.22,4.17-.39,8.33-.28,12.5-.39,2.37,0,4.46-.22,7-.37s5-.39,7.46-.39h18.45c1.32,0,2.65.14,4,.14l-.24,1.14.18.11a5.5,5.5,0,0,1,.75-.85,4.06,4.06,0,0,1,.91-.45l.11.19L300,4.44l.23.13c.26-.34.46-.69.74-1a1,1,0,0,1,.6-.31c2.12.07,4.27.27,6.39.27h4.21c2.87.17,5.65.43,8.47.62,1.51.11,3,.2,4.51.2.63,0,.85.3.85.86V7.07c0,.35-.13.57-.61.57H300.06c-8.95,0-17.87-.18-26.82-.18-5.59,0-11.35.28-17.13.43q-6,.17-12.07.41c-1.46,0-2.89.24-4.33.41-.71.09-1-.08-1-.84a34.38,34.38,0,0,0-.6-3.49Zm12.79,24.31a17,17,0,0,0-1.53,1.41,1.15,1.15,0,0,1-1,.45l-6-.24h0a1.08,1.08,0,0,1-1.13-1c-.08-.41-.23-.8-.36-1.28a5.89,5.89,0,0,1,.84,0H254.6c4.79,0,9.36.05,14.5,0s10.27-.26,15.4-.26c2.66-.06,5.31-.17,8-.17,4.17-.11,8.36,0,12.5-.47,5.39-.52,10.77-.24,16.16-.35.35,0,.86-.34.88.48s-.26,1.31-.9,1.31c-1.71.06-3.43.06-5.12.19-2.48.16-5,.41-7.46.61h-.63c-6.77.06-13.51.06-20.26.21-2.93,0-5.83.44-8.76.59h-6.39l-11,.21c-1.92.05-3.9.26-5.76.16a18.5,18.5,0,0,1-3.49,0l.81-1.65Zm68.64-5.07c-3.08,0-6.15-.09-9.21,0-2.53.09-5,.43-7.56.58-1.68.09-3.38.09-5.07.09-2.56.07-5.11.24-7.66.24-5.45.1-10.87.19-16.31.19-4.42.07-8.72.24-13.05.24H247.63c-1.95,0-3.82.09-5.68.09-.58,0-.86-.09-1-.74-.48-2.29-1.08-4.59-1.57-6.9a22.09,22.09,0,0,1-.2-2.44c-.08-.82-.13-1.86-.22-2.46s.11-.89.72-.89a88.85,88.85,0,0,1,9.79-.43c4.23-.08,8.48-.26,12.73-.39,2.18-.15,4.36-.15,6.54-.15L286,10.48h7.16l31.69.28h.8l-2.13,12.82Zm-88,1.55a.75.75,0,0,1-.46-.54c-.28-1.4-.52-2.8-.8-4.2-.36-1.81-.73-3.54-1.08-5.4a8.33,8.33,0,0,1-.27-1.53.77.77,0,0,1,0-.15.52.52,0,0,1,.53-.52l2.68-.52,1.18-.23c.52-.11.85,0,.85.64.23,2.38.47,4.79.84,7.15.26,1.74.77,3.45,1.18,5.31C236.58,25.14,235.05,25.16,233.52,25.13ZM214.74,62.2A57.16,57.16,0,0,1,216,54.74a30.74,30.74,0,0,1,3.72-9.32,10.1,10.1,0,0,1,1.74-2,64.34,64.34,0,0,1,5.59-4.7c2.42-1.64,5-2.94,7.45-4.41a18.77,18.77,0,0,0,2.22-1.5,3.1,3.1,0,0,0,1.19-2.59V29.1c0-1.09.49-1.44,1.53-1.09a.82.82,0,0,1,.39.43,14.28,14.28,0,0,1,.68,2v0A2.87,2.87,0,0,0,243.66,33q8.73.26,17.45.26c5.33,0,10.68-.2,16-.41,3.17-.11,6.24-.39,9.32-.61h14.37c2.66,0,5.34-.06,8-.21,2.07-.11,4.14-.43,6.21-.58h3.44c1.5-.11,3-.22,4.48-.44a2.23,2.23,0,0,0,1.73-1.87c.15-.61.17-1.25.3-1.86,0-.23,0-.56.43-.56s.93-.34,1.15.28a2.75,2.75,0,0,1,.17.95,4.39,4.39,0,0,0,3.3,4.36,26.41,26.41,0,0,1,6,3.35,21,21,0,0,1,5,4.09,34.83,34.83,0,0,1,5,7.45,37.94,37.94,0,0,1,2.24,7.46c.22,1.1.28,2.21.41,3.33l.61,5.59a4.21,4.21,0,0,1,0,.71v38.43c0,2.93-.24,5.86-.43,8.78-.09,1.68-.2,3.3-.41,5s-.5,3.47-.72,5.2c-.15,1.18-.24,2.35-.36,3.51-1-.9-1.66-1.64-2.89-2.76s-2.49-2.2-3.72-3.32c-.77-.69-1.49-1.42-2.2-2.16a1.06,1.06,0,0,1-.23-.71c.15-2.27.19-4.58.54-6.84a68.63,68.63,0,0,0,.84-8.59c.1-2.41.3-4.81.41-7.21.13-2.86.34-5.73.34-8.58,0-1.71-.13-3.43-.13-5.12,0-.6-.21-1.16-.21-1.74a1.44,1.44,0,0,1,.43-.93c.52-.56,1.25-1,1.87-1.58a7.08,7.08,0,0,0,1.1-1.34,1.68,1.68,0,0,0,0-1.87,19.4,19.4,0,0,0-3.73-4.3,2.18,2.18,0,0,0-2.8-.15c-1.41,1.06-2.83,2.14-4.21,3.28a2.82,2.82,0,0,1-2,.74c-3.13-.18-6.23-.18-9.32-.18h-.95c.46-1.23.86-2.35,1.23-3.39,1-2.26,1.88-4.5,2.83-6.73.21-.51.45-1,.65-1.47a1.76,1.76,0,0,0,.19-.87,1.73,1.73,0,0,0-1.81-1.65,40.84,40.84,0,0,0-5.14.39h-1.6c-1.87,0-3.73,0-5.6-.2a33.63,33.63,0,0,1-3.72-.77c.26-.6.46-1,.63-1.42a2,2,0,0,0,.3-1,2,2,0,0,0-2-2.09A52.1,52.1,0,0,1,296.72,50c-2.21-.9-4.08-2-6.43-3.14s-4.67-2.36-7.06-3.46a3.7,3.7,0,0,0-3.63-.21,6.29,6.29,0,0,0-1.29,1.18c-1.51,1.69-3,3.41-4.47,5.12a.89.89,0,0,1-1.1.34A10.15,10.15,0,0,0,271,49.6c-3.16-.32-6.33-.58-9.5-.92a18.11,18.11,0,0,1-2.82-.5,4.13,4.13,0,0,0-2.81.21A2.29,2.29,0,0,0,254.55,50c-.75,2.34-1.4,4.75-2.18,7.08a60.59,60.59,0,0,1-2.26,5.74c-1.3,2.78-2.72,5.59-4.12,8.37a1,1,0,0,1-.69.43h-6.56a1.29,1.29,0,0,1-.76-.38c-1.33-1.19-2.82-2.57-3.92-3.63s-1.84-1-3,0a13.92,13.92,0,0,0-3.43,5.25,2.46,2.46,0,0,0,.77,2.74c.74.75,1.58,1.42,2.31,2.17a1.56,1.56,0,0,1,.44,1v8.67a11,11,0,0,1-.2,1.28c-1.59-.39-3.08-.8-4.57-1.13a6.46,6.46,0,0,0-1.86-.13c-.77.07-1.1.72-1.29,1.41-.5,2-1.06,3.92-1.49,5.89-.3,1.33-.37,2.43-.61,4s-.56,3.07-.79,4.83-.33,3.5-.54,5.23c-.11,1.05-.33,2.09-.48,3.12a23.17,23.17,0,0,0-.3,2.49c0,1.07.75,1.81,2,2.11l6.38,1.58c-.69.82-1.06,1.44-2.09,2.5s-1.88,2.13-2.89,3.13c-1.3,1.36-2.72,2.65-4,4.07a4.33,4.33,0,0,0-1,2,1.63,1.63,0,0,0,1.34,1.86c1.51.49,3.09,1.08,4.49,1.55s2.8.93,4.16,1.49c.71.28,1.34.73,2,1.06a3.91,3.91,0,0,0,1,.37c1.18.25,2.41.34,3.54.69,1.68.54,3.23,1.25,5.09,2a2.4,2.4,0,0,1-.69.28,3.18,3.18,0,0,0-2.49,1.62,18.05,18.05,0,0,0-2.07,3.13,11.44,11.44,0,0,0-1,4.64,8,8,0,0,0,1.37,5.32,11.23,11.23,0,0,0,5.11,3.72c1,.38,2.09.64,3.15.95a.88.88,0,0,1,.36.21,14.54,14.54,0,0,0,5.59,3.48c-.82,0-1.53.06-2.28,0s-1.47-.28-2.21-.28c-1.53,0-2.93-.05-4.57,0s-3.28.17-4.9.36a9.08,9.08,0,0,1-5.89-1.44,9.76,9.76,0,0,0-2.26-1,3,3,0,0,0,.23.38,38.21,38.21,0,0,0,3.72,3.26,7.51,7.51,0,0,0,4.36,1.27c2.43.18,4.87.27,7.29.42.75,0,1.49.19,2.22.19,4.42.09,8.82.15,13.23.28,2.46.07,5.11.41,7.46.41s4.86-.07,7,0,4.16.28,6.45.43,4.59.35,6.88.35H300c4.5-.09,9-.31,13.48-.52,2.53-.11,5.2-.2,7.58-.45s4.76-.67,7.14-1c.9-.13,1.85-.28,2.76-.47a12.67,12.67,0,0,0,4.62-1.86,7.1,7.1,0,0,0,2.09-2.53l-.19-.15a8.64,8.64,0,0,1-1.34,1,19,19,0,0,1-2.55,1.06,23,23,0,0,1-5.8.46c-2.89.12-5.64.34-8.48.49l-7.45.35c-3.43.17-6.95.51-10.25.51h-9.94q-5.58,0-11.18-.19c-2.22-.06-4.44-.39-6.67-.39-3.15-.13-6.32-.15-9.47-.26-2.22-.1-4.44-.28-6.73-.43.51-.54,1-1,1.38-1.51a3.13,3.13,0,0,0,.6-1c.17-.67.52-.67,1-.67a9.86,9.86,0,0,0,6.73-2,11.13,11.13,0,0,0,2-2.3,1.21,1.21,0,0,1,1.4-.59,12.89,12.89,0,0,0,1.86.31c1.44.15,2.87.23,4.31.4a10.93,10.93,0,0,1,1.86.52,2.75,2.75,0,0,1-.26.22,2.81,2.81,0,0,0-1.86,3.11c.07.68.05,1.36.18,2,0,0,0,.07,0,.11a2.31,2.31,0,0,0,2.61,2h4.92c2.83-.12,5.61-.25,8.43-.43a6.53,6.53,0,0,0,2.85-.58,10.47,10.47,0,0,1,4.56-1.08,12.35,12.35,0,0,1,2.87-.23,1.27,1.27,0,0,1,.86.32,5.3,5.3,0,0,0,3.73,1.57,12.12,12.12,0,0,0,7.12-1.75c1.81-1.07,3.6-2.2,5.33-3.38a4.35,4.35,0,0,0,1.56-1.68,3.61,3.61,0,0,1,2.71-1.86,8,8,0,0,0,5.44-4,10.08,10.08,0,0,0,.65-2.48,9.52,9.52,0,0,1,.17-1.41,10.31,10.31,0,0,0,.8.95,2.19,2.19,0,0,0,.42.38,1.86,1.86,0,0,0,2.58-.51c1.64-1.72,3.32-3.58,4.87-5.45,2.55-3.13,5-6.33,7.56-9.54-.17,1.92-.33,3.88-.48,5.84-.08.83-.21,1.67-.21,2.51l-.61,7.62c-.1,1.2-.24,2.39-.24,3.58a53.58,53.58,0,0,1-.49,5.8c-.41,2.2-1.17,4.32-1.73,6.5a5.6,5.6,0,0,1-3.84,3.73,32.35,32.35,0,0,1-3.86.93c-3.6.92-7.23.47-10.85.71-9.54.65-19.08.28-28.62.45-5.13.09-10.27.26-15.4.56-8.31.48-16.62.18-25,.18-4.42,0-8.86-.24-13.29-.24h-7a30.42,30.42,0,0,1-4.16-.2,15.87,15.87,0,0,1-2.46-.92,16.8,16.8,0,0,1-7.7-5.33,19.29,19.29,0,0,1-4.28-8.91,123.44,123.44,0,0,1-1.23-13.58c-.15-1.53-.15-3.1-.15-4.64-.13-3.21-.34-6.4-.43-9.6-.13-4.68-.26-9.34-.26-14-.17-5.91-.17-11.81-.17-17.72V69.52A71.41,71.41,0,0,1,214.74,62.2Zm105.09,80.38a3.25,3.25,0,0,0-.45-.06,2.52,2.52,0,0,0-2.6,2.43c0,.2-.51.43-.78.43a15.51,15.51,0,0,0-4.74,1.24,13.86,13.86,0,0,1,4.38-3.37,15.1,15.1,0,0,1,6.36-1.56,6.38,6.38,0,0,1,2.81.63,2.56,2.56,0,0,1,.48.33,2.05,2.05,0,0,1,.12,2.89,6.09,6.09,0,0,1-2.61,1.87.67.67,0,0,1-.56-.26,2.31,2.31,0,0,0-1.6-1.42c-.51-.09-.92-.67-1.46-1.1a5.37,5.37,0,0,0,.8-.15,1,1,0,0,0-.15-1.9Zm-13.94,14.35a1.9,1.9,0,0,1-.95-.33.71.71,0,0,1-.14-.1.83.83,0,0,1-.16-1.17c.66-.78,1.23-1.53,1.87-2.26a.68.68,0,0,1,.65,0c.9,1.05,2.07.73,3.21.73h.35c.49,1.29.69,1.36,2.09.95a3.47,3.47,0,0,1,.91,0v.19a14.29,14.29,0,0,1-1.86.87A16.06,16.06,0,0,1,305.89,156.93Zm5.89,2v.21l-1.95.43v-.13Zm-18.06-11.91a.88.88,0,0,1-.16-.63c0-.17.22-.47.35-.47H297c.15,0,.29.34.5.62-.19.22-.32.45-.54.48C295.87,147.63,294.8,147.05,293.72,147.05Zm2.35,8-.2.34h0a2.62,2.62,0,0,1-.65-.43c-.06,0,.16-.3.16-.45Zm-15.36-3.09a2.26,2.26,0,0,0-.72.15,7.17,7.17,0,0,0-.8.35h-.08c0-.65.09-1.36.08-1.75s.13-.56.52-.56h.56c1,0,1.08.09,1.08,1.06C281.37,151.66,281.27,151.92,280.71,151.92Zm-.31,8.14c-.49.1-.88.15-.86-.61s.54-.43,1.08-.58.49,0,.54.65S280.81,160.06,280.4,160.06Zm-4.53-12c-1.38-.17-2.76-.41-4.16-.56a1.13,1.13,0,0,1-1.06-1,6.6,6.6,0,0,1-.21-1.23l8.88-1.23h.05c-.11.95-.24,1.8-.37,2.68,0,.39,0,.39-.56.56s-1.14.46-1.71.67A2,2,0,0,1,275.87,148.06Zm.43,3.69c0,.19-.41.34-.64.5l-.09-.18-3.75-.41a.8.8,0,0,1-.5-.21,1.36,1.36,0,0,1-.24-.78c0-.13.33-.32.48-.32,1.46.17,2.91.37,4.36.64C276.09,151,276.32,151.56,276.3,151.75Zm4.82-13.83-10.23,3.15a1.5,1.5,0,0,1-.86.15c.08-.88.1-1.64.23-2.39a.82.82,0,0,1,.63-.46c1.06-.34,2.13-.67,3.23-1,3-.79,6.11-1.51,9.17-2.28.52-.13,1-.31,1.52-.46a1.86,1.86,0,0,0,1.25-1.23c.08-.19.28-.43.43-.43h4.36a6.4,6.4,0,0,1-.11,1.45,1.2,1.2,0,0,1-.71.75C287.09,136.06,284.11,137,281.12,137.92Zm-37.94,7.75a12.38,12.38,0,0,0,.61,1.87,2.38,2.38,0,0,1,.19.61l-.24.17a8.07,8.07,0,0,1-.75-.8c-.33-.54-.71-.8-1.28-.54l-.07,0a1,1,0,0,0-.51,1.25.72.72,0,0,1-.13.57.91.91,0,0,0,0,1.23.89.89,0,0,0,1.25.15l.44-.18c-.31.57-.54,1-.8,1.43a.57.57,0,0,1-.48,0,5,5,0,0,1-2.85-4c.05-1.31.11-2.61.28-3.9a2.49,2.49,0,0,1,2.12-2.35,11.3,11.3,0,0,1,8.48,1.87,3.13,3.13,0,0,1,1.1,3.73,1,1,0,0,1-.65.39c-1.2.18-2.39.33-3.6.46-.19,0-.58,0-.58-.17a10.09,10.09,0,0,1-.63-1.69.56.56,0,0,1,.15-.54c.13-.08.41,0,.56.11a3,3,0,0,1,.54.63s0,0,0,.05a.91.91,0,0,0,1.26.29.56.56,0,0,0,.17-.09A.83.83,0,0,0,248,145a1.54,1.54,0,0,1,0-1.55c.14-.26-.13-.82-.39-1.08l-.11-.09a.72.72,0,0,0-1,.22,1.61,1.61,0,0,1-1.46.6l-.28,0A2.09,2.09,0,0,0,243.18,145.67Zm-1.62,9.51a7.76,7.76,0,0,1-3.73-1.86A4.56,4.56,0,0,1,236,149.1a8.52,8.52,0,0,0,5.05,5.18C241.39,154.45,241.69,154.58,241.56,155.18Zm-15.83-24-4.84-1.87c.72-.69,1.32-1.4,1.92-2,1.26-1.15,2.79-2.42,3.72-3.48s1.87-2.26,2.8-3.4c.43-.5.88-1,1.3-1.45l.28.11v3.1a2.17,2.17,0,0,1-1,2c-1.42,1.21-2.74,2.46-4.07,3.72C225,128.77,225,129.29,225.73,131.16Zm5.15-22c0,.76-.11.82-.9.63a8.13,8.13,0,0,0-1.3-.18c-.54,0-.65-.3-.65-.84.29-1.86.54-3.78.83-5.59s.66-3.56,1-5.43c.05-.22.41-.37.63-.57a2,2,0,0,1,.32.74v5.59Zm-.77-14a1.56,1.56,0,0,0-1.75,1.08,15.37,15.37,0,0,0-1.1,4.68c-.35,2.14-.63,4.3-1,6.44a17.64,17.64,0,0,0-.3,2.15c-.11,1.23.13,1.71,1.76,2,.82.15,1.79.22,2.68.41a.78.78,0,0,1,.43.58v2.81c0,.39-.13.49-.54.49l-5.59-1.25c-.62-.15-1.14-.28-1.87-.52s-.89-.54-.72-1.29.28-1.3.41-2.27.26-1.88.37-2.84c.13-1.39.39-3.18.56-4.45s.45-2.5.67-3.73c.32-1.79.6-3.5,1-5.36a31,31,0,0,1,.89-3.17.81.81,0,0,1,.67-.32c1.23.26,2.48.58,3.73.88l.13,0a.8.8,0,0,1,.56,1,12.69,12.69,0,0,0-.19,2.72Zm-1.39,34.05a25.94,25.94,0,0,1,5.47-4.49l2.65,3.69c-1.79,1.47-3.43,2.85-5.12,4.21a1.15,1.15,0,0,1-.29.2,1.17,1.17,0,0,1-1.58-.5,22.62,22.62,0,0,1-1.36-2.46C228.42,129.72,228.57,129.38,228.72,129.22ZM231.44,72l1.27-1.85c1.4,1.28,2.61,2.56,3.85,3.64a.85.85,0,0,1,.17.67c-.5,1-1.06,2-1.66,3.06-1.14-1-2-1.62-3.26-2.82S230.52,73.47,231.44,72ZM237,132.11c.13-.17.45,0,.66,0l6.07,2.38c1,.37,2.07.69,3.11,1l.25.11a1.86,1.86,0,0,0,2.4-1.08c.3-.51.58-1,.89-1.51.12-.17.32-.36.47-.36,1.12,0,2.24.15,3.54.15a51.29,51.29,0,0,1-3.73,7.12l-15.91-5.8C235.54,133.39,236.23,132.72,237,132.11Zm4.4-.58v-.17a8.48,8.48,0,0,1,1.23.09c2,.3,3.86.64,5.72,1-.33,1.33-.5,1.4-1.62,1Zm11.72,11.14c-.46-.46-.33-.84-.07-1.34,1.14-2,2.27-3.91,3.37-5.91a17.09,17.09,0,0,0,.77-1.86c.11-.22.37-.54.58-.54H268l-.93,7.92a11.5,11.5,0,0,0-7.19-.89A13.82,13.82,0,0,0,253.07,142.67Zm1.85,2.22-1.27,1.53h-.13l1.25-1.64Zm-10.51,9.56c.24.19.45.24.45.36a15.47,15.47,0,0,0,5.25,4.73,10.45,10.45,0,0,0,3.19.93,7,7,0,0,0,1.45,0l-.05,0a3.78,3.78,0,0,1-2.69,0,18,18,0,0,1-6-2.89,3.73,3.73,0,0,1-1.58-2.46A4.21,4.21,0,0,1,244.41,154.45Zm9.63,3.36v-.08a7.31,7.31,0,0,1-4.32-1.73,8,8,0,0,1-3-3.73,1.32,1.32,0,0,1-.21-.67,1.38,1.38,0,0,1,1.33-1.43,7.41,7.41,0,0,1,5.9,1.36,8.36,8.36,0,0,1,3.15,3.39,4.07,4.07,0,0,1,.26,1.86c0,.17-.29.52-.52.52C255.8,157.51,254.92,157.64,254,157.81Zm2.33-8.2a1.89,1.89,0,0,1,.1-1.76,9.06,9.06,0,0,1,4.51-3.31,10.34,10.34,0,0,1,5.12-.32,1.1,1.1,0,0,1,.65.39,6,6,0,0,1,1.23,4h.08a6.75,6.75,0,0,1-7.49,7.73.65.65,0,0,1-.47-.5,6.19,6.19,0,0,0-1.86-4.15A15.27,15.27,0,0,1,256.37,149.61Zm-1.9-19.68a47.36,47.36,0,0,1-4.77-.19c-1.32-.15-2.61-.52-3.93-.73-1.53-.22-3.06-.39-4.59-.5-1.21-.11-1.39-.22-1.86-1.4a7.73,7.73,0,0,0-.89-1.49c-.64-.8-1.31-1.79-2-2.67a3.29,3.29,0,0,0-2.7-1.45l0-2.94V95.28a22.49,22.49,0,0,0,.11-2.72c-.24-2,.38-3.82.32-5.76s.11-4,.11-5.84v-.24a2.26,2.26,0,0,1,.52,0c1.22.23,1.63.08,2.24-1,.86-1.49,1.7-3,2.48-4.55a1,1,0,0,1,1-.63h26.1c3.72,0,7.45-.41,11.18-.41h27.58c2.41,0,5,0,7.18.09s4.38.43,6.58.58h9.69c-.24.35-.39.61-.58.87a1.86,1.86,0,0,0,.23,2.48c.89.9,1.82,1.75,2.79,2.57a2.49,2.49,0,0,0,3.37.26l2.35-1.49a5.58,5.58,0,0,1,.19,1.07V91c-.06,2.76-.24,5.57-.41,8.35-.11,1.86-.26,4-.43,5.59s-.52,3.23-.67,4.85c-.24,2.49-.37,5-.58,7.45-.12,1.69-.27,3.39-.45,5.09,0,.47-.22.78-.82.67a2.2,2.2,0,0,0-2.34,1.19c-1.16,1.68-2.26,3.38-3.32,5.11a1,1,0,0,1-1,.43H313.74q-15.5.18-31,.19Zm59.12-61.27c.41-.8.86-1.77,1.23-2.66a1.68,1.68,0,0,0,.09-.32,1.26,1.26,0,0,0-1.08-1.43,34.61,34.61,0,0,0-6.8-.88,35.89,35.89,0,0,1-3.58-.52l-.13,0c.36-.52.77-1,1.16-1.49s.85-.93,1.23-1.45h0a.7.7,0,0,1,1-.26,24,24,0,0,0,8.4,1.4c2.26,0,4.51-.28,6.9-.45-.52,1.42-1,2.76-1.53,4.1-.82,2-1.68,4.1-2.52,6.15-.18.47-.37.6-1,.6-1.45-.19-2.92-.25-4.56-.38Zm-3.35,1.79a1.08,1.08,0,0,1-.75.51H297a1,1,0,0,1-.32-.12l2.42-2.75c.82-1,1.75-2.07,2.69-3.06a1.15,1.15,0,0,1,.89-.28c2.5.24,5,.5,7.46.8.76.09,1.51.3,2.36.49l.08.09C311.76,67.68,311.07,69.13,310.24,70.45Zm-6.58-12.69c-1.49,2-3,4.12-4.55,6-1.86,2.22-3.93,4.31-5.8,6.49a2,2,0,0,1-1.75.78c-1,0-2.07-.07-3.09-.18L291,68c1.49-1.69,3-3.44,4.49-5.12,1-1.06,2.05-2,3.08-3.06a2.66,2.66,0,0,0,.7-.93c.25-.67-.05-1.12-.87-1.53-1.18-.58-2.37-1.14-3.52-1.73-2-1-4-2.05-5.82-3.1a1.21,1.21,0,0,1-.45-.52,2,2,0,0,0-2-1.1,7.42,7.42,0,0,1-3.88-1c-1.47-.7-2-1-3.33.6a1.28,1.28,0,0,1-.92.28,8.81,8.81,0,0,1-1.43-.28,1.65,1.65,0,0,1,.2-.37c1.06-1.31,2.11-2.52,3.19-3.73.67-.75,1-.76,2-.26l6.71,3.35c2.12,1.07,4.24,2.18,6.43,3.12a43.48,43.48,0,0,0,4.88,1.6c1.51.43,3.06.76,4.73,1.17A22.17,22.17,0,0,1,303.66,57.76ZM286.27,70.55a1.66,1.66,0,0,1-1,.46h-2.37c.36-.74.64-1.41,1-2a29.71,29.71,0,0,0,2.8-7.75c.37-1.48,1-2.86,1.53-4.29.28-.78.52-1.59.8-2.5l3.8,2.14,4.06,2c-.54.54-1.1,1-1.6,1.6l-5,5.78C288.91,67.53,287.63,69.05,286.27,70.55ZM278,53.64a5.89,5.89,0,0,0,.84,0l6.67.24H286a18.31,18.31,0,0,1-.71,2.43,49.22,49.22,0,0,0-2.44,7.58,19.54,19.54,0,0,1-3.62,6.92c-.28.33-1,.31-1.47.44L277.6,71c.23-.69.43-1.4.71-2.07a37.13,37.13,0,0,0,2.09-7.08c.16-1.08.48-2.13.71-3.23s0-1.67-1.44-1.86-2.93-.32-4.38-.54c-2.29-.33-4.55-.76-6.84-1.12-1.3-.2-2.65-.35-3.95-.54-1-.15-1.9-.3-2.83-.54a1.87,1.87,0,0,0-2.37,1.14c-1.06,2.12-2.18,4.23-3.22,6.37-.62,1.29-1.1,2.72-1.7,3.93s-1.38,2.33-2,3.53a16.06,16.06,0,0,0-.92,1.86,1,1,0,0,1-1.17.75,7.49,7.49,0,0,0-1.16,0c.79-1.59,1.53-3,2.22-4.38,1.21-2.58,2.43-5.13,3.49-7.76a38.36,38.36,0,0,0,1.08-4.12c.39-1.34.86-2.68,1.36-4a1,1,0,0,1,.82-.4,35.31,35.31,0,0,0,6,.82c2.74.19,5.46.49,8.17.84C274.13,52.9,276.13,53.32,278,53.64ZM271.88,69.2a1,1,0,0,1-.71-.8,2.79,2.79,0,0,0-2.48-2.18,2.69,2.69,0,0,0-2.38,1.31,7.86,7.86,0,0,1-2,2.85,4.06,4.06,0,0,1-.89.43,3.29,3.29,0,0,1-.41-1,4.53,4.53,0,0,1,.17-1.51c.18-.63.07-1.16-.41-1.4l-.09,0a1,1,0,0,0-1.25.56,1.12,1.12,0,0,1-1.23.84c-.25,0-.51.21-.68.78s0,.94.77,1.09,1,.63,1,1.49h.07a10.28,10.28,0,0,1-1.84,0,1.14,1.14,0,0,1-.64-.78,7.62,7.62,0,0,1,3.6-7,8.52,8.52,0,0,1,6.08-1.11A6.56,6.56,0,0,1,273.76,66a5.83,5.83,0,0,1,0,4.27c-.37,1.15-1.38,1-2.35.93.19-.11.23.19.51-.11s.67-.63.67-1A1.25,1.25,0,0,0,271.88,69.2Zm-2.55,1.94a.53.53,0,0,1-.41.28,15.36,15.36,0,0,1-2.67.15l-.05,0c.63-1,1.23-2,1.93-3.06.12-.18.36-.43.6-.35s.6.35.6.58A18.58,18.58,0,0,1,269.33,71.14Zm3.76-8.63a17.33,17.33,0,0,0-3.58-1.58,10,10,0,0,0-6.5.48,10.31,10.31,0,0,0-5.59,5.46,6.81,6.81,0,0,0-.41,4.7l-3.79,0a16,16,0,0,1,1-2.09,32.33,32.33,0,0,0,3.08-6c.82-1.86,1.92-3.73,2.89-5.59.25-.5.48-1,.68-1.53.14-.35.32-.35.69-.35,1.61.26,3.23.48,4.85.76,1.3.21,2.54.49,3.93.71s3,.39,4.23.54,2.63.3,3.54.45,1,.5.75,1.26-.35,1.55-.56,2.32c-.5,1.8-1,3.5-1.56,5.36-.13.45-.34.86-.51,1.35-.17-1-.28-2-.46-2.89A5,5,0,0,0,273.09,62.51Zm58.58,13.85a40.24,40.24,0,0,1,6.63-5.59v-.08c.66.79,1.31,1.55,1.91,2.43.31.39.11.71-.25.95l-4.34,3c-.61.43-1.25.84-1.86,1.23l-.09.07a.74.74,0,0,1-1-.2,10.65,10.65,0,0,0-1-.93C331.35,76.92,331.37,76.7,331.67,76.36Zm.89,55.13c-.42-.47-.8-1-1.32-1.64l2.5-3.61a26.81,26.81,0,0,1,2.07,1.86c.82.82,1.56,1.73,2.38,2.57.34.37.39.67,0,1-.84.79-1.66,1.59-2.51,2.33-.13.12-.64,0-.8-.2C334.07,133.09,333.31,132.29,332.56,131.49Zm1.18,5.33V137a2,2,0,0,1-.71-.22c-.71-.54-1.21-.93-2-1.69s-1.64-1.57-2.52-2.41h0a1.51,1.51,0,0,1,1.64.49C331.32,134.44,332.55,135.61,333.74,136.82Zm-50.4-3.8-12.82,3.28a26.22,26.22,0,0,1,.45-3c.13-.56.63-.33,1.06-.17s.84.38,1.27.56a3.38,3.38,0,0,0,2.81-.31,3.6,3.6,0,0,1,1.32-.32Zm.49,18.9c-.92-.13-.51-.62-.6-1.34s.56-.45.91-.45c.73-.06.41.5.41.71C284.57,151.49,284.74,152.05,283.83,151.92Zm-1.14-4.72-.13.15a1.83,1.83,0,0,1-.56-.63c-.11-.6.41-.58.76-.6s.62,0,.62.49S283.19,147.2,282.69,147.2Zm1.9-7.08V140c1.27-.41,2.48-.84,3.73-1.2.2-.05.52.19.78.3v.38Zm-2.89,14.76a14.17,14.17,0,0,1,1.6.06c.17,0,.34.24.49.37-.15.13-.28.37-.45.37a3.62,3.62,0,0,1-1,0C281.8,155.68,281.59,155.42,281.7,154.88Zm2.29,3.54a4.74,4.74,0,0,0,1.25,0c.3,0,.75,0,.73.41s.28,1-.45,1.14a10,10,0,0,1-1.1.13c-.52-.15-1.23.3-1.26-.76C283.12,158.7,283.29,158.42,284,158.42Zm1.46-11.72c0-.19.15-.52.3-.52a7.67,7.67,0,0,1,1.34-.23c0,.43,0,1-.13,1.1a2.5,2.5,0,0,1-1.27.13C285.6,147.17,285.43,146.89,285.45,146.7Zm.39,8.42c0-.18.39-.29.71-.54l.59.6a3,3,0,0,1-.7.33C286.16,155.57,285.82,155.31,285.84,155.12Zm1.1-3.33c-.09,0-.28-.17-.28-.17a4.56,4.56,0,0,1,0-1.38c0-.22.5-.22.78-.22h.13c1.46,0,1.61.16,1.46,1.86Zm2.16,6.5h.49c.89-.07,1.08.13.89,1,0,.15-.19.39-.32.39a16,16,0,0,1-2.12.21L288,160a4.52,4.52,0,0,1,0-.52C288,158.18,287.8,158.29,289.1,158.29Zm.47-2.92c-.1,0-.41-.08-.32-.19l.26-.32c1.1-.09,2.2-.2,3.3-.2.09,0,.45.15.32.28s-.26.37-.39.37h-1.68Zm-.43-9c0-.43.15-.56.59-.56s.88,0,1.35,0,.7.08.69.64-.45.55-.67.55h-.64l-.07.06c-.25,0-.17-.09-.64-.06S289.14,146.83,289.14,146.4Zm3.32,12.12a.59.59,0,0,1,.41-.34,2.32,2.32,0,0,1,.91,0c.17,0,.43.15.41.45s-.13.72-.34.84a6.71,6.71,0,0,1-1.41.24A6.74,6.74,0,0,1,292.46,158.52Zm1.49-7-2.22.2c-.45,0-.77-.15-.69-.57s-.37-1.16.6-1.16h1.06l-.1,0c.43,0,.81.06,1.42.06s.77.33.75.91S294.34,151.51,294,151.51Zm2.49-15.34-.21,0a1.86,1.86,0,0,0-1.44,2.21c.07,1.36.22,2.7.37,4,0,.54-.24.54-.58.54h-9.75c1.89-.22,3.75-.43,5.59-.67a3.58,3.58,0,0,0,1.46-.47,2,2,0,0,0,.41-2.7c-.21-.43-.45-.86-.71-1.34.82-.37,1.57-.77,1.73-1.66a16,16,0,0,0,.34-2.29c.07-.93,0-.93,1-.93,4.41-.08,8.81-.3,13.21-.3h7.45c1.12.65,2.56.58,3.53,1.56l4.66,4.68a21.35,21.35,0,0,0-8.06,1.42c-.18-1.38-.31-2.56-.5-3.73a4.59,4.59,0,0,0-.37-1.21,1.45,1.45,0,0,0-1.32-1c-1.87.11-3.73,0-5.6.11-1.66.09-3.31.27-5,.52Q299.58,135.5,296.44,136.17Zm9.36,10.49c-.43-1.43.37-1.6,1-1.62s1.33-.2,2-.2h0C308.17,146.62,308,146.7,305.8,146.66Zm1.44,2-2.46,2C304.61,148.88,304.44,148.69,307.24,148.69Zm-1.35-9.58h-.09c-.52,0-1.12.26-1-.64,0-.5.1-.76.64-.76.85-.06,1.71-.28,2.57-.28.3,0,.69-.11.71.33s.11,1-.54,1Zm2.37,2.82c0-1.1,0-1.12,1.19-1.31a12.77,12.77,0,0,1,2-.29c.31,0,.91,0,.91.14a2.48,2.48,0,0,1-.13,1.4,2.24,2.24,0,0,1-1.21.71,18.78,18.78,0,0,1-1.87.26C308.35,143,308.26,142.86,308.26,141.93Zm2.39-4.07c0-.55.27-.72.85-.72.19.24.56.46.6.71,0,.5-.52.43-.89.5S310.66,138.42,310.65,137.86Zm-11.15,5.93a2,2,0,0,0-1-.46c-.46-.08-.46-.3-.46-.62a1.09,1.09,0,0,1,.56-.56c.75-.14,1.51-.2,2.37-.3,0,.41.12.83.09,1.12s.13.67-.26.82S300,144.2,299.5,143.79Zm-.43,11.26h0c.06-.36-.65-1,.21-1.23.3-.09.76-.28.89.3C300.32,155.05,299.56,154.84,299.07,155.05ZM301,138.44a.78.78,0,0,1,.51-.37,11.7,11.7,0,0,1,1.17-.15l.08.47c.15,1-.34,1.47-1.27,1.13C301.18,139.43,301.07,138.83,301,138.44Zm-2.88.28c.85-.15.85-.17,1.11,1.44-.56-.38-1.26.82-1.58-.36C297.49,139.39,297.21,138.87,298.07,138.72Zm.35,11.15c.13.52.3,1.1.39,1.54,0,.14-.09.43-.19.43a.83.83,0,0,1-.61-.13,1.62,1.62,0,0,1-.35-.69C297.38,150.24,297.51,150,298.42,149.87Zm3.06,6.91.33.95-3.73.49-.07.07C298.68,156.76,300,156.78,301.48,156.78Zm-.58-5.1c-.13-.6-.28-1.16-.37-1.72,0-.11.11-.35.22-.35.47-.13.95-.21,1.43-.3a.61.61,0,0,1,.27,0,10.28,10.28,0,0,1,.18,1.66.54.54,0,0,1-.41.48C301.79,151.55,301.34,151.62,300.9,151.68Zm1.23-5.76.19-.3c.42,0,1.06-.17,1.26,0s.06.94,0,1.23-.85.3-.85.3A6,6,0,0,1,302.13,145.92Zm.93-2.41V142.1a.62.62,0,0,1,0-.13.59.59,0,0,1,.59-.6L306,141c.35,0,.46.13.46.51a8.88,8.88,0,0,1-.15,1.25.71.71,0,0,1-.5.42A18.24,18.24,0,0,1,303.06,143.51ZM313.68,152a2.44,2.44,0,0,0-2.87-.38c-.46.17-.95.28-1.43.43a7.42,7.42,0,0,1,.61-1.23,1.07,1.07,0,0,1,.32-.35,13.35,13.35,0,0,1,7.46-2.2.9.9,0,0,1,.28,0,1,1,0,0,1,.68,1.24,10,10,0,0,1-3.72,4.63A24.15,24.15,0,0,0,313.68,152Zm10-1.74c.67-.39,1.44-.67,2.09-1.1a16.18,16.18,0,0,0,1.73-1.47h.15a8.22,8.22,0,0,1-.48,1.19A5.07,5.07,0,0,1,324,151c-.15,0-.44,0-.46-.22S323.52,150.22,323.67,150.22Zm-2.36-17.55h3.48a1.17,1.17,0,0,1,.64.24c1.34,1.17,2.64,2.38,4,3.52,1,.84,2.09,1.64,3.17,2.42a1.61,1.61,0,0,0,1.87,0,12.75,12.75,0,0,0,3.46-2.83,36,36,0,0,0,2.91-3.22,23.83,23.83,0,0,0,1.86-3.3,1.45,1.45,0,0,0-.46-1.72c-.79-.76-1.61-1.49-2.41-2.25a15.43,15.43,0,0,0-1.36-1.44,2.24,2.24,0,0,1-.59-2.63,1.62,1.62,0,0,0,.1-.68c.41.26.82.52,1.2.81l6,5.89c.3.36.24.66,0,1.1a80.59,80.59,0,0,1-7.45,10.33c-1.05,1.38-2.28,2.51-3.41,3.73-.47.48-.92,1-1.44,1.58ZM291.1,335.73c.79,1,1.55,2.27,3.38,1.69.49-1.5-.73-2.21-1.4-3.11-2.48-3.33-4.05-6.93-3.84-11a1.89,1.89,0,0,1,2.24-.4c11.8,3.35,23.57,6.82,34.28,13a24.63,24.63,0,0,1,12.85,20.24,13.2,13.2,0,0,1-1.35,7.51c-3.1,5.7-6.28,11.33-11.47,15.58A30.14,30.14,0,0,1,315,385.3c-15.87,4.51-31.93,6.41-48.33,3.28-3.37-.64-6.79-1-10.17-1.58-10.62-1.79-20.24-5.8-28.31-13.07a17.76,17.76,0,0,1-6.1-15.82,17.13,17.13,0,0,1,3.35-8.44A61.21,61.21,0,0,1,248.19,331c6.73-3.34,14.06-5,21-7.73a6.93,6.93,0,0,1,3.86-.61A29.82,29.82,0,0,1,269.29,334c-.6,1-1.94,1.85-.72,3.15.82.87,2.32.1,3.23-2,2-4.62,3.93-9.36,4-14.45.26-18.88.6-37.76-.3-56.63-.47-9.79-.21-19.61.12-29.41a180.69,180.69,0,0,0-.37-19.47,5.32,5.32,0,0,1,.41-3.51l10.07,0a14.32,14.32,0,0,1,.93,5.83c.14,4.29.27,8.58.14,12.87-.64,20.42-.81,40.95-.37,61.42.22,10.42-.1,20.84.31,31.25A20.91,20.91,0,0,0,291.1,335.73ZM414.66,165.36c.07,5.71-1.76,10.09-6.87,12.59-7.73,7.72-17.83,11-27.65,14.8A248.51,248.51,0,0,1,340,204.45a108.93,108.93,0,0,1-13.81,1.91c-19.08,1.33-38.17,2.58-57.31,1.58-13.83-.75-27.58-2.37-41.34-3.94-9.51-1.09-18.93-2.56-28.32-4.34-5.86-1.13-11.21-3.12-16.86-5.13s-11.22-4.27-16.79-6.5a57,57,0,0,1-11.6-6.32c-2.77-2-5-4.38-4.45-8.2.3-.08.62-.18.73-.08,4.93,4.67,11,7.23,17.31,9.33,11,3.71,22.09,7.3,33.42,10.08,10.73,2.61,21.73,3.36,32.68,4.86,11.91,1.63,23.91,1.79,35.91,2.7,2.68.21,5.39.11,8.09.11q17.46-.22,34.92-.56c7.27-.18,14.34-1.66,21.45-3,11.92-2.24,23.78-3.93,35.64-7.24s23.29-7.6,33.7-14.31a39.85,39.85,0,0,0,8.81-7.73c.69-.81,1.13-1.91,2.53-2.34Zm-1.26-4.69a44.15,44.15,0,0,1-12.18,12.63C394.37,178,386.75,181,379.08,184c-12.21,4.72-24.91,7.33-37.78,9.24-6.53,1-12.91,2.93-19.53,3.5-3.41.29-6.82.85-10.24.92-11.77.25-23.54.11-35.32.45-5.86.18-11.74-.6-17.61-1-12-.82-24-1.82-35.9-3.14a213.68,213.68,0,0,1-42.59-9.69c-6.87-2.24-13.82-4.24-20.37-7.4a26.7,26.7,0,0,1-7.14-5.06c-5.58-5.43-4.19-12.31-1.19-16.43a25.63,25.63,0,0,1,12.76-9.5c1.14-.44,22.54-8.21,24.83-8.72,7.67-2.1,15.67-4.58,23.41-6.43.09,1.84.19,3.66.28,5.51.15,3.56.39,7.12.39,10.66a52.44,52.44,0,0,0,.95,8.92,20.85,20.85,0,0,0,5.29,10.29,19.46,19.46,0,0,0,9,5.82,13.74,13.74,0,0,0,2.72.82c1.75.17,3.51.17,5.26.17,6.43.11,12.86.27,19.27.27h12.54l-.15,0,15-.37h2.88c2.59-.12,5.19-.36,7.79-.36h12.17c5,0,10,.21,14.92-.33a52.62,52.62,0,0,1,5.47-.19,37.78,37.78,0,0,0,9.32-.65,34.27,34.27,0,0,0,5.2-1.36,7.89,7.89,0,0,0,4.77-4.55c.28-.78.58-1.55.79-2.33.5-1.94,1-3.88,1.38-5.85.28-1.62.28-3.3.43-5l.83-9.93c.15-1.76.32-3.49.43-5.24.14-2.14.27-4.43.39-6.51,2.27.32,4.54.65,6.8,1L398.26,140c6,2.17,10.85,6.15,15,10.91C415.87,153.86,415.88,156.82,413.4,160.67Z"/><path class="cls-1" d="M339.05,54.55c.82-.55,1.83-1.17,2.68-1.86a1.85,1.85,0,0,0,.86-2.09,5.7,5.7,0,0,0-.93-1.86,59.4,59.4,0,0,0-4.25-5.48A33.41,33.41,0,0,0,331,38.17a18.19,18.19,0,0,0-7.46-2.76,5.5,5.5,0,0,0-1.64.69c-1.15.94-2.22,2-3.3,3l0,0a1.53,1.53,0,0,0,.1,2.16,4.14,4.14,0,0,0,1.86,1.06,39.85,39.85,0,0,1,12.15,8.17c1.23,1.21,2.33,2.51,3.54,3.73A2,2,0,0,0,339.05,54.55ZM322.13,40a.25.25,0,0,0,0-.07,2.41,2.41,0,0,1,3.16-1.26,25.5,25.5,0,0,1,8.22,5,27.33,27.33,0,0,1,5.91,7.08L337.78,52A45.73,45.73,0,0,0,322.13,40Z"/><path class="cls-1" d="M341.77,57.11c-2.65,0-4.53,1.51-4.42,3.65h0a4.46,4.46,0,0,0,4.25,4.65c2.61,0,4.48-1.55,4.48-3.73C346,59.21,344.53,56.9,341.77,57.11Zm1.53,4.47c0,.52-.76,1-1.57,1a1.58,1.58,0,0,1-1.32-1.66c0-.67.35-.91,1.36-.91h-.09a1.41,1.41,0,0,1,1.62,1.58Z"/><path class="cls-1" d="M240.36,32.58a4.24,4.24,0,0,1-2.53,2.09,30.66,30.66,0,0,0-7.27,3.84,10.24,10.24,0,0,0-2.81,3.09,4.21,4.21,0,0,0-.3.84,1,1,0,0,0,.54-.2,24.61,24.61,0,0,1,2.4-1.68c2.13-1.14,4.33-2.13,6.43-3.28a17.64,17.64,0,0,0,2.87-2.13,3.15,3.15,0,0,0,1.06-2.74l-.24-.15C240.46,32.38,240.36,32.49,240.36,32.58Z"/><path class="cls-1" d="M217,63.22a22.26,22.26,0,0,0,.73,7.36l.24,0,2.85-16h-.2A16.13,16.13,0,0,0,217,63.22Z"/><path class="cls-1" d="M330.44,35.64c.48.13,1,.22,1.43.31v-.16a3.82,3.82,0,0,0-.48-.51c-2-1.52-4.57-2.33-6.28-4.45a2.74,2.74,0,0,0,.73,2.25A7.84,7.84,0,0,0,330.44,35.64Z"/><path class="cls-1" d="M342,92.45A3.18,3.18,0,0,0,344.68,91,3.84,3.84,0,0,0,342,92.45Z"/><path class="cls-1" d="M223.7,153.63a3.85,3.85,0,0,0-2.29,1.46A2.6,2.6,0,0,0,223.7,153.63Z"/><path class="cls-1" d="M222.19,156.56l.15.22,2-1.36A2,2,0,0,0,222.19,156.56Z"/><path class="cls-1" d="M223.16,158.11a3.56,3.56,0,0,0,1.86-1.37C223.91,156.86,223.18,157.34,223.16,158.11Z"/><path class="cls-1" d="M342.7,94a2.41,2.41,0,0,0,1.87-1.3C343.9,93,343.11,93.06,342.7,94Z"/><path class="cls-1" d="M284.31,114.62c.56-.05.71.08.71.62a1.54,1.54,0,0,0,1.3,1.83,1.54,1.54,0,0,0,1.5-1.07,2.36,2.36,0,0,0,.09-.84c-.15-1,.28-1.47,1.17-1.86a8.66,8.66,0,0,0,5.76-6.62,7,7,0,0,0-.43-3.84,6.51,6.51,0,0,0-6.13-4.17c-.63,0-.78-.26-.78-.84V90.47a5,5,0,0,1,.76.2c1,.43,2,.88,3,1.36a1.44,1.44,0,0,0,1.27-2.59c-1.19-.59-2.46-1.11-3.73-1.65-.43-.19-1.1-.17-1.25-.49a4.53,4.53,0,0,1,0-1.38,1.27,1.27,0,0,0-1-1.36l-.07,0a1.31,1.31,0,0,0-1.64.85,5.83,5.83,0,0,0-.32,1.49c0,.43-.2.58-.59.73a8.43,8.43,0,0,0-3.43,2.46,9.28,9.28,0,0,0-2,3.73,5.6,5.6,0,0,0,2.07,6.13,8.49,8.49,0,0,0,3.73,1.49c.41.07.71.17.71.67v9c0,.19-.23.52-.39.52a5.25,5.25,0,0,1-3.43-.24,1.41,1.41,0,0,0-1.87.54,1.38,1.38,0,0,0,.3,1.87,3.81,3.81,0,0,0,.78.46A7,7,0,0,0,284.31,114.62Zm6.92-11.5.14.25a4.85,4.85,0,0,1-2,6.56c-.41.24-.86.43-1.43.72l-.08-9A3.45,3.45,0,0,1,291.23,103.12Zm-6.81-4.67c-1.86-.4-3.26-1.08-3.39-2.74a5,5,0,0,1,2.09-4.38c.37-.26.8-.47,1.3-.77Z"/><path class="cls-1" d="M322.84,122.21a6.61,6.61,0,0,0-2.8,3.26C321.44,124.87,323,123.14,322.84,122.21Z"/><path class="cls-1" d="M324.25,123.89a4.4,4.4,0,0,0-2.55,3A6.84,6.84,0,0,0,324.25,123.89Z"/><path class="cls-1" d="M241.07,12.71a10.09,10.09,0,0,0,7.14,0C247.46,11.86,242.36,11.87,241.07,12.71Z"/><path class="cls-1" d="M244.11,6.25l-1.86,1.21A1.59,1.59,0,0,0,244.11,6.25Z"/><polygon class="cls-1" points="242.47 6.38 242.21 6.08 241.05 7.07 241.28 7.33 242.47 6.38"/><path class="cls-1" d="M327.87,19.5c1.66-.41,2.9-5.13,2-6.75A30,30,0,0,0,327.87,19.5Z"/><path class="cls-1" d="M259.84,148.9a1.57,1.57,0,0,0,.48,2.1,12.5,12.5,0,0,0,1.36.81.36.36,0,0,0-.26.15c-.31.33-.8.7-.8,1.09v.14a.78.78,0,0,0,.84.72,1,1,0,0,1,1.1.75.56.56,0,0,0,.09.17.84.84,0,0,0,1.16.24c.5-.26.8-.64.5-1.27a1,1,0,0,1,0-.76,1.9,1.9,0,0,0,.4-1,1.85,1.85,0,0,0-1.65-2c-.42-.13-.82-.32-1.24-.49l0-.15h.3c.8.13,1.36,0,1.45-.65s-.29-1-.91-1.21a1.59,1.59,0,0,1-1.17-.9,1,1,0,0,0-.09-.22,1,1,0,0,0-1.31-.39c-.56.28-.69.88-.28,1.58A1.24,1.24,0,0,1,259.84,148.9Zm2,3,.08.05S261.9,151.94,261.87,151.91Z"/><path class="cls-1" d="M255.12,154.25a1.64,1.64,0,0,0-1.69-1.27h-1.87a1,1,0,0,1,0-.24.9.9,0,0,0,0-1.27,1,1,0,0,0-1.32-.22.82.82,0,0,1-.65,0l0,0a1.13,1.13,0,0,0-1.48.56c-.19.46.15,1,.78,1.28a1.13,1.13,0,0,1,.56.54,1.86,1.86,0,0,0,2.44,1.51l1.07-.15c.13,1.14.13,1.14,1.47,1.76a1,1,0,0,0,1.25-.3.9.9,0,0,0,0-1.21A3.06,3.06,0,0,1,255.12,154.25Z"/></g></g></g></g></svg>