<svg xmlns="http://www.w3.org/2000/svg" viewBox="0 0 133 38.27"><defs><style>.cls-1{isolation:isolate;}.cls-2{fill:#cfcfcf;mix-blend-mode:multiply;}.cls-3{fill:#fff;}</style></defs><g class="cls-1"><g id="Layer_2" data-name="Layer 2"><g id="Layer_1-2" data-name="Layer 1"><path class="cls-2" d="M133,36.14V9.22a1.51,1.51,0,0,1-.81-1.43,13.21,13.21,0,0,0-2.07.64c.35,0-2.4.42-2,.74-.13,0-2,.32-2,.67-.56-.95-2.61-2.06-2.15-.28-.29-.56-1.86.33-2,.11.12.56-2,.31-2.1-.07.29,1-2-.25-2,.86,0-.61-2.22-1.78-2.22-1.45,0,.87-1.91,3.08-1.91,1.91,0-.13-2.18-1.71-2.18-1,0,.21-1.69-1.35-1.69,1.1,0,.89-1.78.45-1.78-.4,0-.25-1.57-2-1.57-.9,0,.23-2.34.86-2.34-.64,0-1.18-2.36-.89-2.36-1,0-.38-2.22-.53-2.22-.77,0,.32-2.16,1.47-2.16.78,0,.06-2,.06-2,1.05,0,.45-2.11-.73-2.11.15,0,.25-2.08.24-2.08.77,0-.75-2.1-1.09-2.1-1.36,0,.86-2.17,2.76-2.17,1.31,0-.67-1.91-2.07-1.91-2,0,1.2-2.11-1.26-2.11.24,0,.41-2-.37-2-.39,0,1-1.89-.62-1.89-1.12,0-1.45-2.21.69-2.21.44s-2.07,1.23-2.07-.34c0-.75-1.74-3-1.74-1.6,0-.93-2-.22-2-.36,0,.48-2.37-.3-2.37.81,0-.43-1.82-.77-1.82-1.24,0,.7-2.18-.78-2.18.13,0-.4-2.08-.08-2.08-.25,0,.11-1.9-.2-1.9-1,0,.5-2-.3-2-.42s-1.89-.52-1.89-1c0,.74-2-.88-2-.37s-2,.54-2-.27c0,.12-2.12.06-2.12.57,0-.43-2,0-2-.27,0-.53-2-.32-2-.94,0-.18-2-.27-2-.36,0-1.08-2.07,1.74-2.07.87,0,.38-2-.67-2-.91,0-.4-2,2.28-2,1,0-.74-2,.19-2,.42,0,.94-2.52-.86-2.52-1.13,0-.63-2.15,2.59-2.15,1.71,0-1.3-2.23.31-2.23.54S27.4,4,27.4,4.12c0-.63-2.13.52-2.13.55S23,5.86,23,4a19,19,0,0,1-2,1.86c0-.32-2.15-1.45-2.15-1.11,0-.14-2.11-.26-2.11-.34,0-.25-2.29,0-2.29.08s-1.87-3.14-1.87-1.67c0,.7-2.08-1.77-2.08-1.31A9.66,9.66,0,0,1,7.9,2.76c-.24.32-1.75-.08-2,.27-.42-.73-2.18.38-2.35.69-.22-2.08-1.81.07-2.11,1A1.3,1.3,0,0,0,0,3.8V36.14Z"/><path class="cls-3" d="M133,38.27V11.35a1.53,1.53,0,0,1-.81-1.44,14.37,14.37,0,0,0-2.07.64c.35,0-2.4.42-2,.75-.13,0-2,.31-2,.67-.56-1-2.61-2.07-2.15-.29-.29-.56-1.86.34-2,.12.12.56-2,.31-2.1-.07.29,1-2-.26-2,.86,0-.62-2.22-1.78-2.22-1.45,0,.86-1.91,3.08-1.91,1.9,0-.13-2.18-1.71-2.18-1,0,.2-1.69-1.35-1.69,1.1,0,.89-1.78.44-1.78-.41,0-.24-1.57-2-1.57-.89,0,.23-2.34.86-2.34-.65,0-1.18-2.36-.89-2.36-1,0-.39-2.22-.53-2.22-.77,0,.31-2.16,1.47-2.16.78,0,.06-2,0-2,1,0,.45-2.11-.73-2.11.15,0,.25-2.08.24-2.08.77,0-.76-2.1-1.09-2.1-1.37,0,.87-2.17,2.76-2.17,1.32,0-.67-1.91-2.07-1.91-2,0,1.21-2.11-1.25-2.11.25,0,.41-2-.38-2-.4,0,1-1.89-.61-1.89-1.11,0-1.45-2.21.69-2.21.43s-2.07,1.23-2.07-.34c0-.74-1.74-3-1.74-1.59,0-.94-2-.22-2-.37,0,.49-2.37-.29-2.37.82,0-.44-1.82-.77-1.82-1.25,0,.7-2.18-.77-2.18.14,0-.4-2.08-.08-2.08-.26,0,.12-1.9-.2-1.9-1,0,.51-2-.29-2-.41s-1.89-.52-1.89-1c0,.73-2-.89-2-.38s-2,.55-2-.27c0,.13-2.12.07-2.12.58,0-.43-2,0-2-.28,0-.53-2-.31-2-.93,0-.18-2-.28-2-.37,0-1.07-2.07,1.75-2.07.87,0,.39-2-.66-2-.91,0-.4-2,2.28-2,1,0-.74-2,.18-2,.42,0,.94-2.52-.86-2.52-1.13,0-.63-2.15,2.59-2.15,1.7,0-1.29-2.23.32-2.23.55S27.4,6.1,27.4,6.25c0-.63-2.13.51-2.13.54S23,8,23,6.09a20.16,20.16,0,0,1-2,1.86c0-.32-2.15-1.46-2.15-1.11,0-.15-2.11-.27-2.11-.35,0-.24-2.29,0-2.29.08s-1.87-3.13-1.87-1.66c0,.7-2.08-1.77-2.08-1.32A9.69,9.69,0,0,1,7.9,4.89c-.24.32-1.75-.08-2,.26-.42-.73-2.18.39-2.35.69-.22-2.08-1.81.07-2.11,1A1.3,1.3,0,0,0,0,5.93V38.27Z"/></g></g></g></svg>