<svg xmlns="http://www.w3.org/2000/svg" viewBox="0 0 131.47 35.58"><defs><style>.cls-1{fill:#fff;}</style></defs><g id="Layer_2" data-name="Layer 2"><g id="Layer_1-2" data-name="Layer 1"><polygon class="cls-1" points="131.47 35.58 0 35.58 0 1.61 0.68 1.16 2.49 1.5 3.93 2.87 5.76 3.2 7.42 3.7 9.19 2.64 10.8 3.06 12.48 3.83 14.07 2.67 15.75 3.23 17.38 3.35 19.02 3.28 20.43 4.09 22.06 3.99 23.49 4.87 25.19 3.72 26.7 4.24 28.5 4.25 30.09 3.45 31.36 2.19 33.01 1.65 34.72 1.16 36.5 1.1 38.29 1.37 40.11 1.68 41.91 0.99 43.56 1.84 45.43 1.47 47.06 2.23 48.68 2.95 50.33 3.52 52 4.11 53.7 4.55 55.64 3.89 57.26 4.63 58.81 5.2 60.43 5.23 61.97 5.82 63.62 5.68 65.21 5.9 66.84 5.31 68.4 5.51 70 5.76 71.67 5.02 73.56 4.62 75.18 3.55 77.11 4.11 78.79 2.53 80.61 2.76 82.28 3.14 83.86 2.67 85.52 3.25 87.13 3.37 88.73 3.12 90.35 2.48 92 1.96 93.56 3.21 95.23 2.53 96.89 2.41 98.42 3.27 99.93 4.13 101.71 3.25 103.36 3.25 104.47 5.3 106.18 5.02 107.81 4.21 109.27 4.48 111.05 5.1 112.3 3.64 113.74 2.79 115.6 2.94 116.96 1.84 118.87 2.25 120.17 0.86 121.81 0.52 123.54 0.76 125.14 0.2 126.86 0.59 128.63 0.19 130.36 0 131.47 0.14 131.47 32.98 131.47 33 131.47 33.01 131.47 35.58"/></g></g></svg>