<svg xmlns="http://www.w3.org/2000/svg" viewBox="0 0 75.33 92.99"><g data-name="Layer 2"><g data-name="Layer 1" fill="currentColor"><path d="M30.27 92.91h-6.73c-3.44 0-6.89-.09-10.34-.15-.94 0-1.88 0-2.82-.09a7 7 0 0 1-1.46-.44 10.45 10.45 0 0 1-4.85-3.12 11.18 11.18 0 0 1-2.84-5.52 28.52 28.52 0 0 1-.51-4.79c0-1.9-.13-3.81-.21-5.72-.07-1.52-.17-3-.22-4.56-.07-2.12-.1-4.25-.15-6.37l-.09-3.32C0 57.9 0 57 0 56V38.44c0-1.72.09-3.44.17-5.24 0-.69.2-1.39.31-2.08s.19-1.32.35-2A18.53 18.53 0 0 1 3 23.63 10.64 10.64 0 0 1 4.46 22a16.54 16.54 0 0 1 3.37-2.76c1.34-.8 2.68-1.58 4-2.37a1.33 1.33 0 0 0 .65-1.65c0-.08-.19-.15-.29-.16h-1.32c-.72 0-1-.37-.92-1.08a6.86 6.86 0 0 0-.2-1.55c-.12-.68-.28-1.35-.42-2-.15-.89-.33-1.73-.49-2.58-.07-.53-.33-1.07 0-1.62a2.21 2.21 0 0 1 1.71-1c.73-.16 1.48-.24 2.22-.39a.38.38 0 0 0 .23-.25c-.09-.64-.22-1.28-.34-1.92A4.3 4.3 0 0 1 12.5 2c0-.56.39-.92 1.09-1 1.06-.13 2.12-.19 3.18-.24s2 .07 3-.06c2.34-.29 4.68-.13 7-.26 1 0 2-.08 2.94-.16 5.49-.48 11-.2 16.48-.2 3.16 0 6.31.17 9.47.3 1 0 2 .24 3 .32s1.76.07 2.64.13c.61 0 1.21.16 1.46.84a4.56 4.56 0 0 1 .13.62c0 .22.09.44.11.66a2.26 2.26 0 0 1 0 .45c0 .06-.06.11-.07.17-.12.66 0 .8.68.87 1.18.11 2.36.24 3.54.37a1.38 1.38 0 0 1 1.1 1.4 27.61 27.61 0 0 1 0 3.28 11.77 11.77 0 0 1-1.08 3.78 1.51 1.51 0 0 1-1.41.77c-.71.07-1.43.11-2.14.15-.28 0-.39.11-.34.39a4.64 4.64 0 0 1 0 .53.82.82 0 0 0 .6.79 12.29 12.29 0 0 1 3.51 1.94 19.92 19.92 0 0 1 2.58 2.06 16.9 16.9 0 0 1 3.72 5.53c.2.5.29 1 .47 1.55a15.2 15.2 0 0 1 .78 4.24c.09 1.42.31 2.84.39 4.26.07 1.14 0 2.29 0 3.43v16.24Q75.17 57.61 75 60c0 .93-.13 1.85-.23 2.77s-.28 1.76-.36 2.65c-.13 1.28-.21 2.58-.29 3.87s-.16 2.81-.25 4.21c-.06.94-.15 1.87-.23 2.81l-.45 5.33c-.08.89-.08 1.79-.23 2.66-.18 1.06-.47 2.1-.74 3.14-.11.42-.27.83-.42 1.25a4.23 4.23 0 0 1-2.56 2.44 18.18 18.18 0 0 1-2.79.73 20.32 20.32 0 0 1-5 .35 28.78 28.78 0 0 0-2.94.1c-2.65.29-5.31.15-8 .18h-6.53c-1.4 0-2.79.13-4.18.19h-1.55l-8.06.2Zm28.07-54.34h.51c1.66 0 3.32 0 5 .1a1.51 1.51 0 0 0 1.08-.4c.74-.61 1.5-1.19 2.26-1.76a1.17 1.17 0 0 1 1.5.08 10.39 10.39 0 0 1 2 2.31.89.89 0 0 1 0 1 3.44 3.44 0 0 1-.59.72c-.33.31-.72.55-1 .85a.75.75 0 0 0-.23.5c0 .31.1.61.11.93 0 .91.09 1.83.07 2.75 0 1.53-.11 3.07-.18 4.6-.06 1.29-.17 2.58-.22 3.87a37.47 37.47 0 0 1-.45 4.61c-.19 1.21-.21 2.45-.29 3.67a.54.54 0 0 0 .12.38c.38.4.77.79 1.18 1.16.66.6 1.34 1.18 2 1.78s1 1 1.55 1.48c.06-.62.11-1.25.19-1.88.12-.93.28-1.86.39-2.79s.17-1.8.22-2.7c.1-1.57.23-3.14.23-4.71V34.5a2.43 2.43 0 0 0 0-.38l-.33-3c-.07-.6-.1-1.2-.22-1.79a20.6 20.6 0 0 0-1.2-4 18.74 18.74 0 0 0-2.7-4 11.23 11.23 0 0 0-2.66-2.19 14.23 14.23 0 0 0-3.21-1.8A2.35 2.35 0 0 1 61.7 15a1.48 1.48 0 0 0-.09-.51c-.12-.33-.41-.15-.62-.15s-.2.18-.23.3c-.07.33-.08.67-.16 1a1.19 1.19 0 0 1-.93 1c-.79.12-1.6.18-2.4.24h-1.85c-1.11.08-2.22.25-3.33.31-1.43.08-2.87.1-4.3.11h-7.71c-1.65.12-3.3.27-5 .33-2.86.11-5.73.2-8.59.22q-4.68 0-9.36-.14a1.54 1.54 0 0 1-1.71-1.38 7.91 7.91 0 0 0-.36-1.07.43.43 0 0 0-.21-.23c-.56-.19-.82 0-.82.58v.6a1.68 1.68 0 0 1-.64 1.39 10.75 10.75 0 0 1-1.19.8c-1.32.79-2.7 1.49-4 2.37a34.06 34.06 0 0 0-3 2.52 5.31 5.31 0 0 0-.93 1.08 16.34 16.34 0 0 0-2 5 31.16 31.16 0 0 0-.66 4c-.13 1.3-.11 2.62-.11 3.93v13.75c0 3.17 0 6.34.09 9.51 0 2.5.07 5 .14 7.51.05 1.72.16 3.43.23 5.15 0 .83 0 1.67.08 2.49A67.47 67.47 0 0 0 2.7 83 10.34 10.34 0 0 0 5 87.78a9 9 0 0 0 4.13 2.86 8.43 8.43 0 0 0 1.32.49 16.57 16.57 0 0 0 2.23.11h3.76c2.38 0 4.76.15 7.13.13 4.47 0 8.93.16 13.39-.1 2.75-.16 5.51-.25 8.26-.3 5.12-.09 10.24.11 15.36-.24 1.94-.13 3.89.11 5.82-.38a17.29 17.29 0 0 0 2.07-.5 3 3 0 0 0 2.06-2c.3-1.17.71-2.31.93-3.49a29.19 29.19 0 0 0 .26-3.11c0-.64.08-1.28.13-1.92l.33-4.09c0-.45.07-.9.11-1.35.08-1.05.17-2.1.26-3.13-1.36 1.72-2.69 3.44-4.06 5.12-.83 1-1.73 2-2.61 2.92a1 1 0 0 1-1.61.07 5.27 5.27 0 0 1-.43-.51 4.82 4.82 0 0 0-.09.76 5.32 5.32 0 0 1-.35 1.33 4.31 4.31 0 0 1-2.92 2.14 1.92 1.92 0 0 0-1.45 1 2.41 2.41 0 0 1-.84.9c-.93.63-1.89 1.24-2.86 1.81a6.48 6.48 0 0 1-3.82.94 2.82 2.82 0 0 1-2-.84.67.67 0 0 0-.46-.17c-.51 0-1 0-1.54.12a5.58 5.58 0 0 0-2.45.58 3.46 3.46 0 0 1-1.53.31c-1.51.1-3 .17-4.52.23h-2.64a1.24 1.24 0 0 1-1.41-1.11c-.07-.35-.06-.72-.1-1.08a1.51 1.51 0 0 1 1-1.67 1.49 1.49 0 0 0 .14-.12 6.42 6.42 0 0 0-1-.28c-.77-.09-1.54-.13-2.31-.21-.34 0-.67-.12-1-.17a.65.65 0 0 0-.75.32 6.08 6.08 0 0 1-1.09 1.23 5.3 5.3 0 0 1-3.61 1.06c-.28 0-.47 0-.56.36a1.69 1.69 0 0 1-.32.55c-.22.27-.47.52-.74.81 1.23.08 2.42.18 3.61.23 1.69.06 3.39.07 5.08.14 1.2 0 2.39.18 3.58.21q3 .09 6 .1h5.33c1.77 0 3.66-.18 5.5-.27l4-.19c1.52-.08 3-.2 4.55-.26a12.45 12.45 0 0 0 3.11-.25 9.65 9.65 0 0 0 1.37-.57 4.54 4.54 0 0 0 .72-.52l.1.08a3.79 3.79 0 0 1-1.12 1.36 6.81 6.81 0 0 1-2.48 1c-.49.1-1 .18-1.48.25-1.28.2-2.55.43-3.83.56s-2.71.18-4.07.24c-2.41.11-4.82.23-7.23.28h-7.9c-1.23 0-2.46-.11-3.69-.19s-2.3-.19-3.46-.23-2.51 0-3.77 0-2.68-.18-4-.22c-2.37-.07-4.73-.1-7.1-.15-.39 0-.79-.08-1.19-.1-1.3-.08-2.61-.13-3.91-.23a4 4 0 0 1-2.34-.68c-.74-.54-1.37-1.15-2-1.75a1.32 1.32 0 0 1-.12-.2 4.84 4.84 0 0 1 1.21.51 4.89 4.89 0 0 0 3.16.77c.87-.1 1.75-.16 2.63-.19s1.63 0 2.45 0c.4 0 .79.12 1.19.15s.78 0 1.22 0a7.94 7.94 0 0 1-3-1.87.45.45 0 0 0-.19-.11c-.57-.17-1.14-.31-1.69-.51a6 6 0 0 1-2.74-2 4.24 4.24 0 0 1-.74-2.85 6.2 6.2 0 0 1 .51-2.49A9.85 9.85 0 0 1 13 75.53a1.71 1.71 0 0 1 1.34-.87c.1 0 .2-.08.37-.15-1-.38-1.83-.76-2.73-1.05-.61-.19-1.27-.24-1.9-.37a2.2 2.2 0 0 1-.56-.2c-.37-.18-.71-.42-1.09-.57-.73-.3-1.48-.55-2.23-.8s-1.6-.57-2.41-.83a.88.88 0 0 1-.72-1 2.32 2.32 0 0 1 .55-1.08c.67-.76 1.43-1.45 2.13-2.18.54-.54 1-1.11 1.55-1.68s.75-.9 1.12-1.34L5 62.56c-.67-.16-1.09-.56-1.07-1.13a12.53 12.53 0 0 1 .16-1.34c.08-.55.2-1.11.26-1.67.11-.93.17-1.87.29-2.81s.29-1.73.42-2.59.17-1.45.33-2.16c.23-1.06.53-2.11.8-3.16.1-.37.28-.72.69-.76a3.56 3.56 0 0 1 1 .07c.8.18 1.6.4 2.45.61a5.68 5.68 0 0 0 .11-.69v-4.65a.86.86 0 0 0-.24-.54c-.39-.4-.84-.76-1.24-1.16a1.32 1.32 0 0 1-.41-1.47 7.46 7.46 0 0 1 1.84-2.82c.6-.56 1-.57 1.59 0s1.39 1.31 2.1 1.95a.69.69 0 0 0 .41.2h3.52a.53.53 0 0 0 .37-.23c.75-1.49 1.51-3 2.21-4.49.45-1 .85-2 1.21-3.08.42-1.25.77-2.54 1.17-3.8a1.26 1.26 0 0 1 .71-.88 2.24 2.24 0 0 1 1.51-.11 9.55 9.55 0 0 0 1.51.27c1.7.18 3.4.32 5.1.49a5.8 5.8 0 0 1 .93.14.48.48 0 0 0 .59-.18c.8-.92 1.59-1.84 2.4-2.75a3.42 3.42 0 0 1 .69-.63 2 2 0 0 1 1.95.11c1.28.59 2.53 1.24 3.79 1.86s2.26 1.2 3.45 1.68a27.62 27.62 0 0 0 5.22 1.43 1.09 1.09 0 0 1 .9 1.66c-.09.22-.2.44-.34.76a17.63 17.63 0 0 0 2 .41c1 .09 2 .09 3 .11h.86c.92-.12 1.86-.21 2.76-.21a.93.93 0 0 1 .87 1.35c-.11.27-.24.52-.35.79-.51 1.2-1 2.4-1.52 3.61-.2.56-.41 1.16-.66 1.82ZM11.82 65.19a1.75 1.75 0 0 1 1.45.78c.35.47.71 1 1.05 1.43a4.35 4.35 0 0 1 .48.8c.25.63.35.69 1 .75q1.23.09 2.46.27c.71.11 1.4.31 2.11.39s1.71.1 2.56.1h15.18q8.31 0 16.62-.1h7.25c.2 0 .39 0 .54-.23.57-.93 1.16-1.84 1.78-2.74a1.19 1.19 0 0 1 1.26-.64c.32.06.42-.11.44-.36q.14-1.37.24-2.73c.11-1.33.18-2.66.31-4 .08-.87.27-1.73.36-2.6s.17-2 .23-3c.09-1.49.19-3 .22-4.48v-5.62a3.26 3.26 0 0 0-.1-.57l-1.26.8a1.34 1.34 0 0 1-1.81-.14q-.78-.66-1.5-1.38a1 1 0 0 1-.12-1.33c.1-.14.18-.28.31-.47h-5.2c-1.18-.08-2.35-.26-3.53-.31s-2.56-.05-3.85-.05H35.5c-2 0-4 .21-6 .22h-14a.51.51 0 0 0-.55.34c-.42.82-.87 1.64-1.33 2.44-.33.59-.55.67-1.2.55a1.31 1.31 0 0 0-.28 0v.13c0 1-.09 2.09-.06 3.13s-.3 2-.17 3.09a12 12 0 0 1-.06 1.46v12.49ZM61.14 5.77h-.43l-17-.15h-3.84l-9.28.07c-1.17 0-2.34 0-3.51.08-2.28.07-4.56.17-6.83.21a48.08 48.08 0 0 0-5.25.23c-.33 0-.44.16-.39.48s.08.88.12 1.32a11.38 11.38 0 0 0 .11 1.31c.26 1.24.58 2.47.84 3.7.07.35.22.41.53.4 1 0 2-.05 3.05-.05h8.08c2.32 0 4.63-.09 7-.13 2.92 0 5.83-.05 8.75-.1 1.37 0 2.74-.09 4.11-.13.91 0 1.82 0 2.72-.05 1.35-.08 2.7-.26 4.06-.31 1.64-.05 3.29 0 4.94 0H60Zm-47-3.42a18.82 18.82 0 0 1 .32 1.87c0 .41.17.5.55.45.77-.09 1.54-.19 2.32-.22q3.24-.13 6.48-.22C26.91 4.15 30 4 33 4c4.8 0 9.59.07 14.39.1h13.59c.26 0 .32-.12.33-.31v-1c0-.3-.12-.45-.46-.46-.81 0-1.61-.05-2.42-.11-1.51-.1-3-.24-4.54-.33h-2.26c-1.14 0-2.29-.11-3.43-.15a.56.56 0 0 0-.32.17c-.15.17-.26.36-.4.54l-.12-.07.22-.64-.06-.1a2.48 2.48 0 0 0-.49.24 2.93 2.93 0 0 0-.4.46l-.1-.06.13-.61c-.72 0-1.43-.08-2.14-.08h-9.9c-1.33 0-2.65.13-4 .21s-2.47.2-3.74.2c-2.24.06-4.47 0-6.71.21-1.64.16-3.29.09-4.94.12Zm7.6 14a10.66 10.66 0 0 0 1.87 0c1 .05 2.06-.06 3.09-.09l5.89-.11h3.43c1.57-.08 3.13-.29 4.7-.32 3.62-.08 7.24-.08 10.87-.11h.34c1.34-.11 2.67-.24 4-.33.91-.07 1.83-.07 2.75-.1.34 0 .49-.26.48-.7s-.28-.27-.47-.26c-2.89.06-5.78-.09-8.67.19-2.22.23-4.47.19-6.71.25-1.42 0-2.84.06-4.27.09-2.75 0-5.5.11-8.26.14s-5.21 0-7.78 0h-5.87a3.75 3.75 0 0 0-.45 0c.07.26.15.47.19.69a.58.58 0 0 0 .61.55l3.24.13a.63.63 0 0 0 .55-.24 8.48 8.48 0 0 1 .82-.76l.08.09Zm-1.69 22.08a4.09 4.09 0 0 1 .62 0 .53.53 0 0 0 .63-.4 8.33 8.33 0 0 1 .49-1c.35-.64.77-1.24 1.09-1.89s.58-1.42.91-2.11c.56-1.15 1.16-2.28 1.73-3.42a1 1 0 0 1 1.27-.61c.5.13 1 .21 1.52.29.7.1 1.42.18 2.12.29 1.23.19 2.44.42 3.67.6.78.12 1.57.19 2.35.29s.89.41.77 1-.29 1.15-.38 1.73a19.62 19.62 0 0 1-1.12 3.8c-.15.36-.26.74-.38 1.11l.09.12c.27-.07.64-.06.79-.24a10.39 10.39 0 0 0 1.94-3.71 26.44 26.44 0 0 1 1.31-4.07 9.87 9.87 0 0 0 .38-1.3h-.27L36 28.78a3.42 3.42 0 0 1-.45 0c-1-.17-2.07-.4-3.11-.53-1.45-.19-2.91-.35-4.38-.45a19.24 19.24 0 0 1-3.2-.44.52.52 0 0 0-.44.21c-.27.7-.52 1.42-.73 2.14a20.49 20.49 0 0 1-.58 2.21c-.57 1.41-1.22 2.78-1.87 4.16-.37.74-.77 1.5-1.19 2.35Zm30.11-8.71c-.9-.22-1.73-.4-2.54-.63a23.44 23.44 0 0 1-2.62-.86c-1.17-.5-2.31-1.1-3.45-1.67l-3.6-1.8c-.52-.27-.69-.26-1.05.14-.58.65-1.14 1.3-1.71 2a1 1 0 0 0-.11.2 4.73 4.73 0 0 0 .77.15.67.67 0 0 0 .49-.15c.7-.85 1-.7 1.79-.32a4 4 0 0 0 2.08.52 1.06 1.06 0 0 1 1.06.59.66.66 0 0 0 .24.28c1 .56 2.07 1.12 3.12 1.66.62.32 1.26.62 1.89.93.44.22.6.46.47.82a1.51 1.51 0 0 1-.38.5c-.55.55-1.13 1.07-1.65 1.64-.82.9-1.61 1.84-2.41 2.75L41.17 38a16.38 16.38 0 0 0 1.66.1 1.06 1.06 0 0 0 .94-.42c1-1.17 2.11-2.29 3.11-3.48.86-1 1.64-2.13 2.44-3.21.29-.35.54-.79.84-1.27ZM24.29 38.4a3.68 3.68 0 0 1 .22-2.52 5.55 5.55 0 0 1 3-2.93 5.37 5.37 0 0 1 3.49-.26 9.37 9.37 0 0 1 1.92.85 2.68 2.68 0 0 1 1.43 1.81c.1.49.16 1 .25 1.55.09-.26.2-.48.27-.72.28-1 .57-1.91.84-2.88.11-.41.18-.83.3-1.24s.09-.6-.4-.68-1.26-.16-1.9-.24-1.52-.17-2.27-.29-1.41-.27-2.11-.38c-.87-.15-1.74-.27-2.6-.41-.2 0-.3 0-.37.19a8.58 8.58 0 0 1-.37.82c-.52 1-1.11 2-1.55 3a17.61 17.61 0 0 1-1.65 3.2 7.8 7.8 0 0 0-.53 1.12Zm-14 12.68c0-.51 0-1 .1-1.46a.43.43 0 0 0-.37-.54c-.67-.16-1.34-.33-2-.47a.42.42 0 0 0-.36.17 17.21 17.21 0 0 0-.48 1.7c-.2 1-.35 1.92-.52 2.88-.12.66-.27 1.32-.36 2S6.07 57 6 57.75c-.06.51-.13 1-.2 1.52s-.13.82-.22 1.22 0 .56.39.69.67.2 1 .28l3 .67c.22 0 .29-.05.29-.26v-1.51a.42.42 0 0 0-.23-.31c-.48-.1-1-.14-1.44-.22-.87-.15-1-.41-.94-1.07 0-.38.11-.77.16-1.15.18-1.15.33-2.31.52-3.46a8.13 8.13 0 0 1 .59-2.51.84.84 0 0 1 .94-.58Zm29 25.64h5.16c.18 0 .34 0 .31-.29-.08-.72-.16-1.44-.2-2.17a1 1 0 0 1 .89-1.2q1.68-.36 3.36-.63a26.35 26.35 0 0 1 2.66-.28c1-.06 2 0 3-.06a.78.78 0 0 1 .71.53 2.57 2.57 0 0 1 .2.65c.1.63.17 1.26.27 2a11.37 11.37 0 0 1 4.32-.76L57.47 72c-.52-.53-1.29-.49-1.89-.84h-4c-2.36 0-4.72.12-7.09.16-.52 0-.5 0-.54.5a8.28 8.28 0 0 1-.18 1.23c-.09.48-.49.69-.93.89.14.26.27.49.38.72a1.06 1.06 0 0 1-.22 1.45 2 2 0 0 1-.78.25c-.99.13-1.99.24-3 .36Zm28.45-12c0 .18 0 .32-.06.45a1.2 1.2 0 0 0 .32 1.41 8.86 8.86 0 0 1 .73.77c.43.41.87.8 1.29 1.21a.77.77 0 0 1 .25.92 12.79 12.79 0 0 1-1 1.77c-.46.62-1 1.14-1.56 1.73a7 7 0 0 1-1.86 1.52.87.87 0 0 1-1 0c-.58-.42-1.15-.85-1.7-1.3-.73-.61-1.43-1.26-2.15-1.89a.62.62 0 0 0-.34-.13h-1.87l6.21 6.2c.28-.31.52-.59.77-.85.61-.65 1.27-1.26 1.83-2a43.13 43.13 0 0 0 4-5.54c.13-.24.16-.4 0-.59l-3.22-3.16a7.63 7.63 0 0 0-.71-.48Zm-18.53-31a18.55 18.55 0 0 0 1.92.28 18.61 18.61 0 0 1 3.65.47.68.68 0 0 1 .53.94c-.2.48-.44 1-.66 1.43l-.64 1.32c.88.07 1.67.1 2.45.2.32 0 .42-.07.52-.32.45-1.1.91-2.2 1.35-3.3.28-.72.54-1.44.82-2.2-1.28.09-2.49.27-3.7.24a12.87 12.87 0 0 1-4.51-.75.38.38 0 0 0-.52.14c-.2.28-.45.51-.66.78s-.43.52-.62.8Zm-7.75-4.5c-.15.49-.28.92-.43 1.34-.27.77-.62 1.51-.82 2.3a15.81 15.81 0 0 1-1.5 4.16c-.19.32-.34.68-.53 1.08h1.27a.88.88 0 0 0 .54-.25c.73-.8 1.42-1.62 2.13-2.43l2.7-3.1c.27-.3.57-.57.86-.86l-2.18-1.09Zm20.15-16.59c1.31 0 2.61-.08 3.92-.15.11 0 .27-.16.32-.28a11.42 11.42 0 0 0 .8-5.6.34.34 0 0 0-.23-.26c-1.09-.14-2.19-.24-3.28-.39-.32 0-.45.06-.51.34-.15.79-.31 1.57-.44 2.36-.19 1.35-.37 2.63-.58 3.98ZM22.18 76.55a7.4 7.4 0 0 1 3.65-1.41 6.2 6.2 0 0 1 3.86.48l.5-4.25h-5.52c-.11 0-.25.17-.31.29-.16.34-.23.72-.41 1-.59 1.07-1.2 2.12-1.81 3.17-.14.27-.21.47.04.72Zm8 3.18a3.25 3.25 0 0 0-.66-2.14.58.58 0 0 0-.35-.21 5.58 5.58 0 0 0-2.75.17A4.91 4.91 0 0 0 24 79.33a1 1 0 0 0-.05.94 7.74 7.74 0 0 0 1 1.11 3.33 3.33 0 0 1 1 2.23.36.36 0 0 0 .25.27 3.94 3.94 0 0 0 2.38-.54 3.88 3.88 0 0 0 1.64-3.61Zm-3.61-41.3c0-.46-.11-.72-.53-.8s-.5-.27-.41-.58.23-.42.36-.42a.6.6 0 0 0 .66-.45.52.52 0 0 1 .72-.28c.26.13.32.41.22.75a2.49 2.49 0 0 0-.09.81 1.71 1.71 0 0 0 .22.53 2.12 2.12 0 0 0 .48-.23 4.14 4.14 0 0 0 1.08-1.53 1.45 1.45 0 0 1 1.28-.7 1.5 1.5 0 0 1 1.33 1.17.52.52 0 0 0 .38.43.66.66 0 0 1 .38.48c0 .17-.21.35-.36.51s-.17 0-.27.06c.52.06 1.06.12 1.26-.5a3.12 3.12 0 0 0 0-2.29 3.53 3.53 0 0 0-2.81-1.73 4.57 4.57 0 0 0-3.26.6A4.08 4.08 0 0 0 25.28 38a.61.61 0 0 0 .34.42 5.38 5.38 0 0 0 .99.01Zm27.48-3c-.46-.1-.86-.21-1.27-.26-1.33-.16-2.66-.3-4-.43a.63.63 0 0 0-.48.15c-.5.53-1 1.09-1.44 1.64l-1.3 1.48a.56.56 0 0 0 .17.06h6.72a.56.56 0 0 0 .4-.27c.45-.71.82-1.49 1.24-2.32ZM22.86 71.28c-.7 0-1.3-.07-1.9-.08-.08 0-.19.1-.25.19-.17.26-.32.54-.48.81a1 1 0 0 1-1.42.52c-.56-.19-1.12-.36-1.67-.56l-3.26-1.28c-.11 0-.28-.09-.35 0-.39.33-.76.69-1.21 1.11l8.54 3.11a28.23 28.23 0 0 0 2-3.82Zm-8.69-57.79c-.22-1-.49-1.92-.63-2.85-.2-1.27-.33-2.56-.45-3.84 0-.35-.18-.4-.46-.34l-.63.12-1.44.28a.28.28 0 0 0-.27.36c0 .27.09.55.14.82.19 1 .39 1.93.58 2.9.15.75.28 1.5.43 2.25 0 .11.16.28.25.29.82.02 1.64.01 2.48.01Zm3 66.09.13-.09c0-.11-.07-.22-.1-.33a6.6 6.6 0 0 1-.33-1 1.12 1.12 0 0 1 1-1.36.86.86 0 0 0 .78-.32.39.39 0 0 1 .6-.07c.14.14.28.44.21.58a.8.8 0 0 0 0 .83.45.45 0 0 1-.21.67.49.49 0 0 1-.69-.18 1.58 1.58 0 0 0-.29-.34c-.08-.05-.23-.1-.3-.06a.31.31 0 0 0-.08.29 5.85 5.85 0 0 0 .34.91c0 .07.21.1.31.09.65-.07 1.29-.15 1.93-.25a.53.53 0 0 0 .35-.21 1.68 1.68 0 0 0-.59-2 6.07 6.07 0 0 0-4.55-1A1.34 1.34 0 0 0 14.54 77c-.09.69-.12 1.39-.15 2.09a2.69 2.69 0 0 0 1.53 2.17.32.32 0 0 0 .26 0c.14-.22.26-.46.43-.77l-.24.1a.48.48 0 0 1-.67-.08.49.49 0 0 1 0-.66.39.39 0 0 0 .07-.31.51.51 0 0 1 .31-.68c.31-.14.51 0 .69.29a4 4 0 0 0 .4.43Zm25.28-8.21h-2.34c-.08 0-.19.13-.23.23a1 1 0 0 1-.67.66c-.27.08-.54.18-.82.25-1.64.41-3.29.8-4.92 1.22-.59.15-1.16.33-1.73.51-.13 0-.32.15-.34.25-.07.4-.08.81-.12 1.28.2 0 .33 0 .46-.08L37.23 74c1.6-.48 3.2-1 4.78-1.45a.65.65 0 0 0 .38-.4 3.38 3.38 0 0 0 .06-.78Zm-30.4-4.45a14 14 0 0 0-2.94 2.41c-.08.09-.16.27-.12.35A12.28 12.28 0 0 0 9.72 71a.63.63 0 0 0 1 .16c.91-.73 1.79-1.47 2.75-2.26Zm-7.14 2.45 2.6 1c-.39-1-.4-1.28.08-1.75.71-.68 1.42-1.35 2.18-2a1.16 1.16 0 0 0 .52-1.1v-1.66l-.15-.06c-.23.26-.47.51-.7.78-.5.61-1 1.25-1.5 1.82s-1.32 1.25-2 1.87c-.32.35-.64.73-1.03 1.1Zm48.49 9.3a8.43 8.43 0 0 1 2.54-.67c.15 0 .4-.12.42-.23A1.35 1.35 0 0 1 58 76.5a.51.51 0 0 1 .52.49c0 .3-.17.46-.44.53a3 3 0 0 1-.43.08c.29.23.51.54.78.59a1.23 1.23 0 0 1 .86.76.34.34 0 0 0 .3.14 3.23 3.23 0 0 0 1.4-1 1.1 1.1 0 0 0-.32-1.73 3.47 3.47 0 0 0-1.51-.34 8.13 8.13 0 0 0-3.41.84 7.36 7.36 0 0 0-2.35 1.81Zm-30.7 6c.47-.09.94-.16 1.4-.27.12 0 .29-.19.28-.28a2.31 2.31 0 0 0-.14-1 4.55 4.55 0 0 0-1.69-1.82 4 4 0 0 0-3.17-.73.74.74 0 0 0-.6 1.13 4.28 4.28 0 0 0 1.6 2 3.92 3.92 0 0 0 2.32.93Zm45.21-46.7a21.68 21.68 0 0 0-3.56 3c-.16.18-.17.3 0 .45a4.93 4.93 0 0 1 .52.5.4.4 0 0 0 .6.07c.33-.21.67-.43 1-.66l2.33-1.59c.19-.13.3-.3.13-.51-.32-.47-.67-.88-1.02-1.3Zm-3.79 31.7c.28.35.48.63.71.88.4.43.81.86 1.24 1.26.09.09.36.17.43.11.46-.4.9-.83 1.35-1.25.21-.2.18-.36 0-.56-.44-.45-.84-.94-1.28-1.38s-.72-.67-1.11-1ZM52.39 81.56c.26-.08.52-.14.77-.23a1.31 1.31 0 0 1 1.54.2c.26.35.46.75.71 1.17a5.36 5.36 0 0 0 2-2.48.54.54 0 0 0-.52-.69 7.19 7.19 0 0 0-4 1.18.52.52 0 0 0-.17.19c-.13.2-.22.4-.33.66Zm-42.13-26v-3a1.08 1.08 0 0 0-.17-.4c-.12.11-.31.19-.34.31-.21 1-.4 1.94-.56 2.91s-.29 2-.45 3c0 .29.06.43.35.45a4.22 4.22 0 0 1 .7.1c.42.1.48.07.48-.34Zm26 21.71-4.76.66c0 .2.06.43.11.66a.61.61 0 0 0 .57.55c.75.08 1.49.21 2.23.3a1.06 1.06 0 0 0 .46-.07c.31-.11.6-.27.92-.36s.28-.09.3-.3c.07-.47.14-.93.2-1.44Zm-25-39.65c-.26.38-.48.69-.69 1-.49.8-.5.81.2 1.45s1.14 1 1.75 1.51c.32-.58.62-1.1.89-1.64a.44.44 0 0 0-.09-.36c-.67-.58-1.32-1.27-2.07-1.96Zm41.86 44.9h-.2c-.61 0-1.24.17-1.72-.39a.36.36 0 0 0-.35 0c-.34.39-.65.79-1 1.21a.45.45 0 0 0 .16.68 1 1 0 0 0 .51.18 8.54 8.54 0 0 0 3.2-.6 7.61 7.61 0 0 0 1-.47v-.1a2 2 0 0 0-.49 0c-.75.22-.86.18-1.12-.51Zm-14.7-11.15h-3.17a2 2 0 0 0-.71.17 1.82 1.82 0 0 1-1.51.17c-.23-.1-.45-.21-.68-.3s-.5-.21-.57.09a14.89 14.89 0 0 0-.24 1.63Zm13.37 4.78c0 .5.05.55.49.49s.65-.06 1-.14a1.18 1.18 0 0 0 .65-.38 1.33 1.33 0 0 0 .07-.75c0-.05-.32-.09-.49-.08-.36 0-.72.1-1.08.16-.62.1-.63.11-.64.7ZM49 77c.52 0 1-.09 1.47-.16a.39.39 0 0 0 .27-.23 4.91 4.91 0 0 0 .08-.67c0-.2-.06-.29-.25-.27l-1.26.18a.32.32 0 0 0-.31.39V77Zm-25.92 9.1a4.06 4.06 0 0 1-.78 0 5.73 5.73 0 0 1-1.71-.5 8.28 8.28 0 0 1-2.82-2.54c0-.06-.11-.09-.24-.19a2.13 2.13 0 0 0 0 .38 2 2 0 0 0 .85 1.32 9.74 9.74 0 0 0 3.23 1.55 2 2 0 0 0 1.44 0Zm6.17-47.7c.48 0 1 0 1.43-.08a.28.28 0 0 0 .22-.15 9 9 0 0 0 0-1.27c0-.12-.19-.27-.32-.31s-.26.09-.32.19c-.38.54-.7 1.08-1.04 1.64Zm5 43.19.05.1c.12-.09.33-.17.34-.27s-.11-.39-.2-.41c-.78-.14-1.56-.25-2.34-.34-.08 0-.26.1-.26.17a.74.74 0 0 0 .13.42.42.42 0 0 0 .27.11ZM15.89 70.48v.09l2.86 1c.6.22.69.18.87-.53-1-.17-2-.35-3.07-.51a4.34 4.34 0 0 0-.66-.05ZM13 80a2.45 2.45 0 0 0 1 2.26 4.16 4.16 0 0 0 2 1c.07-.32-.09-.39-.29-.48A4.58 4.58 0 0 1 13 80Zm30.44.47h-.57c-.52 0-.28.39-.32.62s.13.33.37.31l1.19-.11c.21 0 .43 0 .44-.31s-.07-.49-.4-.49-.53-.02-.76-.03Zm7.08-5.83 1.22-.18c.35 0 .3-.31.29-.55s-.22-.2-.38-.18c-.46 0-.92.12-1.38.15-.29 0-.34.14-.34.41-.06.48.26.35.54.34Zm-2.59 1.46c-.48.06-.9.09-1.32.17a.58.58 0 0 0-.3.3c0 .17 0 .29.25.33a1.09 1.09 0 0 1 .53.25c.25.22.49.08.7 0s.12-.28.14-.44-.05-.39-.05-.62ZM46 78.64c-.11-.15-.19-.33-.27-.33h-1.64c-.07 0-.18.16-.19.25a.51.51 0 0 0 .09.34c.58 0 1.15.31 1.72 0 .12-.02.19-.14.29-.26Zm16.63-7.43c.47.45.9.88 1.35 1.29s.72.62 1.1.91a1.13 1.13 0 0 0 .38.12v-.12c-.64-.65-1.3-1.28-1.93-1.94a.81.81 0 0 0-.88-.26Zm-10.51 6.5c-.38 0-.73.1-1.09.11s-.79.1-.56.87c1.19.02 1.27-.02 1.67-.98Zm-10.65 3.78c.08-.91 0-1-.78-1h-.07c-.15 0-.41 0-.42.12a2.61 2.61 0 0 0 0 .74s.1.09.15.09Zm6.37-.11a6.9 6.9 0 0 0 .71-.12c.1 0 .23-.17.22-.26a5.39 5.39 0 0 0-.1-.89.27.27 0 0 0-.14 0c-.26.05-.52.09-.77.16-.06 0-.12.13-.12.19.05.3.13.6.2.92Zm14.35-2.16h-.08a10 10 0 0 1-.93.79c-.35.23-.76.38-1.12.59-.08 0-.11.21-.1.31s.17.14.25.12a2.74 2.74 0 0 0 1.72-1.17 4.66 4.66 0 0 0 .26-.64ZM39 85.9a5.6 5.6 0 0 0 .59-.07c.39-.07.23-.39.24-.61s-.23-.22-.39-.22-.45.06-.67 0c-.38 0-.47.15-.45.49.02.57.4.33.68.41Zm-2.81-4.12a4.46 4.46 0 0 1 .43-.19 1.29 1.29 0 0 1 .39-.08c.3 0 .35-.14.34-.4 0-.52-.05-.57-.58-.57h-.3c-.21 0-.29.09-.28.3s-.04.59-.04.94Zm4.75 4c.4 0 .77-.06 1.14-.11.07 0 .15-.13.17-.21.1-.46 0-.57-.48-.53h-.26c-.7 0-.59-.06-.6.61a1.76 1.76 0 0 0-.01.28Zm5.39-.89 2-.26-.18-.51c-.8 0-1.5-.01-1.86.81Zm-4.09-6h.34c.12 0 .35 0 .36-.3s-.12-.35-.37-.34-.48 0-.72 0-.32.07-.32.3.08.36.33.34.21.03.34.03ZM48.77 74a5.4 5.4 0 0 0-.63.08c-.1 0-.28.16-.27.2.06.21.12.53.26.58.5.18.76-.09.68-.61ZM43.3 85.69a3.4 3.4 0 0 0 .76-.13c.11-.06.17-.29.18-.45s-.13-.22-.22-.24a1.16 1.16 0 0 0-.49 0 .33.33 0 0 0-.22.18 4.48 4.48 0 0 0-.01.64Zm-.74-2.36h.9c.07 0 .14-.13.21-.2s-.12-.15-.17-.15c-.59 0-1.18.06-1.77.11l-.14.17c-.05.06.12.1.17.1Zm7.36-2.49 1.32-1.06c-1.5 0-1.41.1-1.32 1.06Zm-10.85.09c0-.11.17-.41-.22-.38-.19 0-.54-.15-.49.24s-.17.65.32.72.4-.23.39-.58Zm2.44-6.08v-.2c-.14-.06-.31-.19-.42-.16-.67.19-1.32.42-2 .64v.05Zm7.09 3.28-.1.16a3.34 3.34 0 0 0 .32.69s.43 0 .46-.16.11-.54 0-.66-.45-.03-.68-.03Zm-1.68-2.93c-.14-.86-.14-.85-.6-.77s-.31.36-.25.58c.17.63.55-.01.85.19Zm-.41 5.21c-.49.08-.56.2-.41.62a.93.93 0 0 0 .19.37.45.45 0 0 0 .33.07c.05 0 .12-.16.1-.23-.05-.24-.14-.55-.21-.83Zm-6.08-2.1a4.14 4.14 0 0 0-.72.12c-.08 0-.15.18-.16.28s.08.25.13.26a1.39 1.39 0 0 0 .68-.07c.09-.05.05-.36.07-.59Zm-3.59 7.57c.22 0 .44.05.41-.29s0-.43-.29-.35-.57-.1-.58.31.2.38.46.33Zm.7-2.78c-.06.29.05.43.32.43a2.12 2.12 0 0 0 .56 0c.09 0 .16-.13.24-.2-.08-.07-.17-.19-.26-.2a8.19 8.19 0 0 0-.86-.03Zm16-9.52c-.32 0-.48.09-.47.39s.1.3.3.26.49 0 .48-.27c-.02-.13-.22-.25-.32-.38Zm-6.68 9.61c.26-.11.67 0 .58-.5-.07-.31-.32-.21-.48-.16-.46.12-.08.47-.11.66ZM38 79.06l.07-.08c.27 0 .37-.06.37-.32s-.14-.27-.33-.26-.47 0-.41.32c.05.13.22.28.3.34Zm2.14 3.88c-.17.13-.37.19-.38.29s.17.24.32.21a1.66 1.66 0 0 0 .38-.18Zm5 .41.11-.18-.38-.29c0 .08-.12.22-.09.24a1.48 1.48 0 0 0 .35.23Zm7.49 2.21v.07l1.05-.23v-.11Zm-30.21-7h.07l.68-.82-.08-.06Z"/><path d="M60 19a9.64 9.64 0 0 1 4 1.48 17.83 17.83 0 0 1 3.43 2.73 32.5 32.5 0 0 1 2.28 2.94 3.08 3.08 0 0 1 .5 1 1 1 0 0 1-.46 1.12c-.46.37-1 .7-1.44 1a1.09 1.09 0 0 1-1.5-.15c-.65-.65-1.24-1.35-1.9-2a21.31 21.31 0 0 0-6.52-4.38 2.24 2.24 0 0 1-1-.57.82.82 0 0 1-.04-1.17c.58-.55 1.15-1.13 1.77-1.63A2.83 2.83 0 0 1 60 19Zm8.52 8.23a14.73 14.73 0 0 0-3.17-3.8 13.69 13.69 0 0 0-4.41-2.66 1.29 1.29 0 0 0-1.71.71 24.52 24.52 0 0 1 8.4 6.4Zm1.25 3.41c1.48-.11 2.26 1.13 2.31 2.46 0 1.17-1 2-2.4 2a2.39 2.39 0 0 1-2.28-2.5c-.06-1.15.95-1.96 2.37-1.96Zm0 1.55c-.54 0-.73.13-.73.49a.85.85 0 0 0 .71.89c.43 0 .84-.25.84-.53a.77.77 0 0 0-.87-.85Zm-54.2-14.8a1.7 1.7 0 0 1-.57 1.47A9.71 9.71 0 0 1 13.46 20c-1.13.62-2.31 1.15-3.45 1.76a14.19 14.19 0 0 0-1.29.9.49.49 0 0 1-.29.11 2.41 2.41 0 0 1 .16-.45 5.57 5.57 0 0 1 1.51-1.66A16.43 16.43 0 0 1 14 18.6a2.29 2.29 0 0 0 1.36-1.12c0-.05.05-.11.08-.17ZM3.21 37.87a12 12 0 0 1-.39-3.95 8.67 8.67 0 0 1 1.94-4.62h.11l-1.53 8.56Zm57.62-21.33c.92 1.14 2.28 1.57 3.37 2.39a2.2 2.2 0 0 1 .26.27v.09c-.25-.05-.51-.1-.77-.17a4.19 4.19 0 0 1-2.47-1.37 1.49 1.49 0 0 1-.39-1.21Zm9.04 33.06a2.09 2.09 0 0 1 1.46-.77 1.7 1.7 0 0 1-1.46.77ZM5.19 83.21a2.06 2.06 0 0 1 1.23-.78 1.39 1.39 0 0 1-1.23.78Zm.42.79a1.09 1.09 0 0 1 1.16-.61l-1.08.73Zm1.52.1a1.9 1.9 0 0 1-1 .73c.01-.41.4-.67 1-.73Zm64.14-34.38a1.29 1.29 0 0 1-1 .7c.22-.49.64-.55 1-.7Zm-30.62-1.18v3.95c0 .31.08.43.42.45a3.5 3.5 0 0 1 3.29 2.24 3.78 3.78 0 0 1 .23 2.06 4.66 4.66 0 0 1-3.09 3.55c-.48.21-.71.45-.63 1a1.16 1.16 0 0 1-.05.45.81.81 0 0 1-.8.57.83.83 0 0 1-.7-.65.93.93 0 0 1 0-.33c0-.29-.08-.36-.38-.33a3.75 3.75 0 0 1-2.07-.21 1.94 1.94 0 0 1-.42-.25.74.74 0 0 1-.16-1 .75.75 0 0 1 1-.29 2.84 2.84 0 0 0 1.84.13c.09 0 .21-.18.21-.28v-4.83c0-.27-.16-.32-.38-.36a4.58 4.58 0 0 1-2-.8 3 3 0 0 1-1.11-3.29 5 5 0 0 1 1.06-2A4.55 4.55 0 0 1 38.75 47c.21-.08.3-.16.32-.39a3.08 3.08 0 0 1 .17-.8.7.7 0 0 1 .92-.44.69.69 0 0 1 .52.73c0 .25-.08.57 0 .74s.44.16.67.26c.68.29 1.36.57 2 .89a.77.77 0 1 1-.68 1.39c-.53-.26-1.07-.5-1.61-.73a2.47 2.47 0 0 0-.41-.11Zm.23 10.83c.31-.16.55-.26.77-.39a2.6 2.6 0 0 0 1-3.65 1.84 1.84 0 0 0-1.81-.78ZM39 52.82v-4.23c-.27.16-.5.27-.7.41a2.69 2.69 0 0 0-1.12 2.35c.07.89.82 1.26 1.82 1.47Zm19.11 14.5a3.55 3.55 0 0 1 1.5-1.75c.06.5-.75 1.43-1.5 1.75Zm.89.78a2.36 2.36 0 0 1 1.37-1.63A3.71 3.71 0 0 1 59 68.1ZM15.74 6.82c.69-.45 3.43-.46 3.83 0a5.43 5.43 0 0 1-3.83 0ZM16.37 4l1-.65a.85.85 0 0 1-1 .65Zm.12-.58-.64.51-.12-.14.62-.53Zm46.9 3.42c.48.87-.19 3.4-1.08 3.62a16 16 0 0 1 1.08-3.62ZM26.87 80.23c.23.09.44.19.67.26a1 1 0 0 1 .67 1.62.54.54 0 0 0 0 .41c.16.34 0 .54-.27.68a.45.45 0 0 1-.67-.22.55.55 0 0 0-.59-.4.42.42 0 0 1-.45-.46c0-.21.26-.41.43-.59s.22 0 .28 0a7.26 7.26 0 0 1-.87-.51.85.85 0 0 1-.26-1.13.66.66 0 0 0 0-.7c-.22-.38-.15-.7.15-.85a.52.52 0 0 1 .75.33.86.86 0 0 0 .63.48c.33.11.54.3.49.65s-.35.42-.78.35a.45.45 0 0 0-.16 0Zm-4.77 2.92-.57.08a1 1 0 0 1-1.31-.81.61.61 0 0 0-.3-.29c-.34-.16-.52-.44-.42-.69a.6.6 0 0 1 .81-.29.43.43 0 0 0 .35 0 .52.52 0 0 1 .71.12.49.49 0 0 1 0 .68.5.5 0 0 0 0 .13h1a.89.89 0 0 1 .91.68 1.63 1.63 0 0 0 .28.52.48.48 0 0 1 0 .65.51.51 0 0 1-.67.16c-.72-.33-.72-.33-.79-.94Z"/></g></g></svg>